<?xml version="1.0" standalone="no"?>
<!DOCTYPE svg PUBLIC "-//W3C//DTD SVG 1.1//EN" "http://www.w3.org/Graphics/SVG/1.1/DTD/svg11.dtd" >
<svg>
<metadata>
Created by FontForge 20110222 at Sun Sep  7 21:53:49 2014
 By Orthosie Webhosting
Copyright (c) 2008 by Hubert Jocham. All rights reserved.
</metadata>
<defs>
<font id="NarzissProCyRegularDrops" horiz-adv-x="500" >
  <font-face 
    font-family="NarzissProCyRegularDrops"
    font-weight="400"
    font-stretch="normal"
    units-per-em="1000"
    panose-1="2 0 5 6 2 0 0 2 0 4"
    ascent="750"
    descent="-250"
    x-height="507"
    cap-height="700"
    bbox="-100 -245 1059 929"
    underline-thickness="50"
    underline-position="-50"
    unicode-range="U+000D-25CA"
  />
<missing-glyph horiz-adv-x="260" 
 />
    <glyph glyph-name=".notdef" horiz-adv-x="260" 
 />
    <glyph glyph-name=".null" horiz-adv-x="0" 
 />
    <glyph glyph-name="nonmarkingreturn" horiz-adv-x="333" 
 />
    <glyph glyph-name="CR" unicode="&#xd;" horiz-adv-x="260" 
 />
    <glyph glyph-name="space" unicode=" " horiz-adv-x="260" 
 />
    <glyph glyph-name="exclam" unicode="!" horiz-adv-x="222" 
d="M116 227h-4q0 90 -23 230t-23 187q0 29 13.5 45t34.5 16t34.5 -16t13.5 -45q0 -47 -23 -187t-23 -230zM114 96q22 0 35.5 -14t13.5 -37q0 -22 -14.5 -36.5t-34.5 -14.5q-21 0 -34.5 14t-13.5 36t14 37t34 15z" />
    <glyph glyph-name="quotedbl" unicode="&#x22;" horiz-adv-x="368" 
d="M113 506h-3q0 36 -20 85t-20 68q0 21 12 33.5t29 12.5q18 0 29.5 -12.5t11.5 -33.5q0 -19 -19.5 -68t-19.5 -85zM259 506h-3q0 36 -20 85t-20 68q0 21 12 33.5t29 12.5q18 0 29.5 -12.5t11.5 -33.5q0 -19 -19.5 -68t-19.5 -85z" />
    <glyph glyph-name="numbersign" unicode="#" 
d="M464 337v-3q-61 0 -113 -2q-2 -20 -9 -74q-8 -50 -11 -65q52 -2 113 -2v-3q-61 0 -115 -2q-20 -118 -29 -186h-3q8 59 14.5 118.5t7.5 66.5q-54 -2 -77 -2q-26 0 -72 2q-20 -119 -29 -185h-3q8 60 15 122t7 64q-52 2 -116 2v3q64 0 116 2q1 8 4 29.5t5 35.5q4 30 12 74
q-52 2 -117 2v3q79 0 118 3q15 69 28 172h3q-11 -81 -20 -172q42 2 69 2q38 0 79 -3q15 73 28 173h3q-11 -81 -20 -173q52 -2 112 -2zM242 196q25 0 77 -2q1 9 4 30t5 34q4 33 12 73q-54 -2 -78 -2q-26 0 -70 2q-2 -17 -9 -73q-7 -45 -11 -64q44 2 70 2z" />
    <glyph glyph-name="dollar" unicode="$" horiz-adv-x="513" 
d="M266 706v-312q6 -2 33.5 -13t35.5 -14.5t32 -14.5t32.5 -17.5t26 -19t24.5 -24t16.5 -27.5t13 -34.5t3.5 -39.5q0 -86 -62 -142t-155 -58v-71h-3v71q-60 1 -114 27.5t-80 26.5q-35 0 -35 -36h-4v209h4q17 -99 78 -160.5t151 -62.5v313q-7 3 -30.5 12t-32 12.5t-29.5 13
t-30 15t-25.5 16.5t-24.5 20t-19 23t-15.5 27.5t-8.5 31.5t-4 38q0 88 59 140.5t160 53.5v90h3v-90q45 -1 92.5 -19t67.5 -18q16 0 25.5 10t9.5 27h3v-209h-3q-21 97 -65.5 150.5t-129.5 54.5zM263 395v311q-73 -1 -113 -41.5t-40 -100.5q0 -66 39 -102.5t114 -66.5z
M266 306v-312q72 1 111 42t39 105q0 65 -38.5 100.5t-111.5 64.5z" />
    <glyph glyph-name="percent" unicode="%" horiz-adv-x="744" 
d="M529 723h3q-54 -132 -95.5 -239t-52.5 -135q-15 -35 -62.5 -141t-99.5 -233h-3q48 116 87 215.5t63 158.5q21 50 65 150.5t95 223.5zM202 709q69 0 114 -51t45 -127t-48 -130t-114 -54q-68 0 -113.5 51.5t-45.5 127.5q0 75 48 129t114 54zM202 705q-46 0 -69.5 -48
t-23.5 -127t23.5 -129t66.5 -50q46 0 69.5 48.5t23.5 127.5t-23.5 128.5t-66.5 49.5zM545 353q69 0 114 -51t45 -127t-48 -130t-114 -54q-68 0 -113.5 51.5t-45.5 127.5q0 75 48 129t114 54zM545 349q-46 0 -69.5 -48t-23.5 -127t23.5 -129t66.5 -50q46 0 69.5 48.5
t23.5 127.5t-23.5 128.5t-66.5 49.5z" />
    <glyph glyph-name="ampersand" unicode="&#x26;" horiz-adv-x="759" 
d="M352 386h-17q-89 0 -146.5 -54t-57.5 -141q0 -80 65.5 -139.5t189.5 -59.5q122 0 184.5 53.5t62.5 132.5q0 64 -31.5 99.5t-94.5 36.5q-66 0 -104 -25t-38 -53q0 -5 5 -5q1 0 5 2t11 4t14 2q20 0 35 -13.5t15 -37.5q0 -22 -15 -36.5t-38 -14.5q-22 0 -36.5 16t-14.5 41
q0 55 43 89t118 34q66 0 102 26t36 54q0 5 -5 5q-1 0 -5 -2t-11 -4t-14 -2q-20 0 -35 14t-15 37q0 21 15 36t38 15q22 0 36.5 -16t14.5 -41q0 -49 -34 -83.5t-96 -40.5q79 -6 125.5 -40.5t46.5 -88.5q0 -81 -81.5 -139t-238.5 -58q-168 0 -252 56t-84 148q0 83 71 135.5
t176 61.5q-168 28 -168 141q0 74 59.5 119t149.5 45q88 0 133.5 -40t45.5 -92q0 -25 -15 -41t-37 -16q-24 0 -38 13.5t-14 34.5q0 24 15 37.5t35 13.5q7 0 14 -2t11 -4t5 -2q5 0 5 5q0 27 -36 56t-110 29q-66 0 -107 -41t-41 -109t37 -108t102 -40h9v-3z" />
    <glyph glyph-name="quotesingle" unicode="'" horiz-adv-x="222" 
d="M113 506h-3q0 36 -20 85t-20 68q0 21 12 33.5t29 12.5q18 0 29.5 -12.5t11.5 -33.5q0 -19 -19.5 -68t-19.5 -85z" />
    <glyph glyph-name="parenleft" unicode="(" horiz-adv-x="317" 
d="M307 761v-4q-80 -24 -122.5 -123.5t-42.5 -302.5q0 -383 165 -432v-4q-104 30 -175.5 144t-71.5 285t72 289t175 148z" />
    <glyph glyph-name="parenright" unicode=")" horiz-adv-x="317" 
d="M10 757v4q103 -30 175 -148t72 -289t-71.5 -285t-175.5 -144v4q165 49 165 432q0 203 -42.5 302.5t-122.5 123.5z" />
    <glyph glyph-name="asterisk" unicode="*" horiz-adv-x="367" 
d="M183 705q14 0 23.5 -10t9.5 -27q0 -15 -15.5 -54.5t-15.5 -67.5q26 9 57.5 36t46.5 32q5 2 14 2q24 0 32 -22q1 -3 1 -9q0 -25 -26 -34q-11 -4 -27 -4q-7 0 -27 1.5t-36.5 1t-33.5 -5.5q17 -22 52 -44t44 -34q8 -13 8 -24q0 -16 -13 -26q-9 -6 -19 -6q-17 0 -30 16
q-9 13 -18 53.5t-26 63.5q-16 -23 -26 -63.5t-19 -53.5q-13 -16 -30 -16q-10 0 -19 6q-13 10 -13 26q0 11 8 24q9 12 44.5 34t52.5 44q-18 6 -44 6q-10 0 -28 -1.5t-26 -1.5q-16 0 -27 4q-26 9 -26 34q0 6 1 9q8 22 32 22q21 0 56.5 -30.5t62.5 -39.5q-1 28 -17 67t-16 55
q0 17 9.5 27t23.5 10z" />
    <glyph glyph-name="plus" unicode="+" 
d="M249 463h3q0 -69 2.5 -125.5t2.5 -68.5q11 0 68 -2.5t125 -2.5v-3q-65 0 -118.5 -2.5t-74.5 -2.5q0 -16 -2.5 -72t-2.5 -121h-3q0 62 -2.5 115t-2.5 78q-25 0 -78 2.5t-116 2.5v3q66 0 121.5 2.5t72.5 2.5q0 22 2.5 75t2.5 119z" />
    <glyph glyph-name="comma" unicode="," horiz-adv-x="222" 
d="M70 -94v3q39 11 59.5 41t20.5 53q0 5 -5 5q-1 0 -5 -2t-11 -4t-14 -2q-20 0 -35 14t-15 37q0 21 14 36t36 15q24 0 39 -17.5t15 -42.5q0 -41 -26 -82t-73 -54z" />
    <glyph glyph-name="hyphen" unicode="-" horiz-adv-x="397" 
d="M50 282v3q49 0 87.5 2.5t59.5 2.5q18 0 58.5 -2.5t91.5 -2.5v-3q-51 0 -91.5 -2.5t-58.5 -2.5q-21 0 -59.5 2.5t-87.5 2.5z" />
    <glyph glyph-name="period" unicode="." horiz-adv-x="222" 
d="M114 96q22 0 35.5 -14t13.5 -37q0 -22 -14.5 -36.5t-34.5 -14.5q-21 0 -34.5 14t-13.5 36t14 37t34 15z" />
    <glyph glyph-name="slash" unicode="/" horiz-adv-x="312" 
d="M269 723h3q-40 -130 -69.5 -234.5t-39.5 -139.5q-16 -51 -49.5 -151.5t-70.5 -222.5h-3q37 120 65.5 220.5t44.5 153.5q15 50 48 150.5t71 223.5z" />
    <glyph glyph-name="zero" unicode="0" horiz-adv-x="600" 
d="M295 708q106 0 176 -101.5t70 -252.5q0 -150 -74 -256.5t-177 -106.5q-106 0 -175.5 102.5t-69.5 252.5t73.5 256t176.5 106zM295 703q-83 0 -125 -96t-42 -254t41.5 -258t120.5 -100q56 0 94 47.5t55.5 125t17.5 179.5q0 157 -41.5 256.5t-120.5 99.5z" />
    <glyph glyph-name="one" unicode="1" horiz-adv-x="247" 
d="M165 3h62v-3h-207v3h63v686l-63 -12v3l145 28v-705z" />
    <glyph glyph-name="two" unicode="2" horiz-adv-x="529" 
d="M40 1l221 245q62 69 94 137t32 153q0 74 -35.5 120t-107.5 46q-79 0 -122.5 -42t-43.5 -73q0 -5 5 -5q1 0 5 2t11 4t14 2q20 0 35 -14t15 -37q0 -21 -14.5 -36t-38.5 -15q-22 0 -36.5 16t-14.5 41q0 60 53.5 111.5t148.5 51.5q97 0 155 -48t58 -131q0 -24 -4.5 -47
t-10 -40.5t-19.5 -39t-22 -34t-30 -35t-32 -32t-38 -36t-39 -36.5l-171 -162h199q89 0 133 15.5t62 62.5h3l-51 -144h-414z" />
    <glyph glyph-name="three" unicode="3" horiz-adv-x="529" 
d="M75 708h3q0 -27 28 -27q16 0 62.5 13.5t84.5 13.5q100 0 159.5 -43.5t59.5 -126.5q0 -70 -55.5 -120t-142.5 -61q101 -5 160.5 -50.5t59.5 -119.5q0 -86 -68 -142.5t-179 -56.5q-97 0 -149 42t-52 94q0 25 14.5 42.5t36.5 17.5q23 0 38 -15t15 -36q0 -23 -15 -37t-35 -14
q-7 0 -14 2t-11 4t-5 2q-5 0 -5 -5q0 -26 43.5 -57.5t118.5 -31.5q85 0 134 52t49 129q0 78 -47 128t-132 50h-71v3h70q80 2 117.5 50.5t37.5 126.5q0 83 -30.5 126t-101.5 43t-115 -42.5t-60 -112.5h-3v159z" />
    <glyph glyph-name="four" unicode="4" horiz-adv-x="529" 
d="M393 724v-501q53 2 79.5 17.5t41.5 54.5h3l-51 -136h-73v-156h62v-3h-198v3h63v156h-302zM64 222h256v386z" />
    <glyph glyph-name="five" unicode="5" horiz-adv-x="529" 
d="M445 624h-316l-49 -282q2 3 7 8.5t21.5 19t36 24t51 19t66.5 8.5q107 0 168.5 -53.5t61.5 -147.5t-69 -159.5t-183 -65.5q-96 0 -148.5 46.5t-52.5 99.5q0 25 14.5 42.5t36.5 17.5q24 0 38.5 -14.5t14.5 -36.5q0 -24 -15 -37.5t-35 -13.5q-7 0 -14 2t-11 4t-5 2
q-5 0 -5 -5q0 -28 44 -63.5t118 -35.5q88 0 138 60.5t50 148.5q0 91 -43 145t-128 54q-47 0 -86.5 -18.5t-54.5 -36.5l-16 -18h-3l61 352h160q89 0 133 15.5t62 62.5h3z" />
    <glyph glyph-name="six" unicode="6" horiz-adv-x="548" 
d="M375 713v-4q-40 -13 -75.5 -35.5t-71.5 -62t-61 -105.5t-34 -151q70 57 157 57q100 0 158 -53t58 -149q0 -93 -66.5 -157t-161.5 -64q-106 0 -168 67.5t-62 201.5q0 94 31 176t81.5 136.5t105 90.5t109.5 52zM265 402q-73 0 -132 -51q-4 -36 -4 -88q0 -125 42.5 -198
t106.5 -73q69 0 106.5 60.5t37.5 149.5q0 94 -39.5 147t-117.5 53z" />
    <glyph glyph-name="seven" unicode="7" horiz-adv-x="529" 
d="M506 700l-179 -335q-11 -20 -19.5 -41.5t-14.5 -38.5t-10.5 -39.5t-6.5 -35t-3.5 -36.5t-2 -31.5t-1 -33t-0.5 -29.5q-2 -89 -54 -89q-16 0 -26.5 10.5t-10.5 30.5q0 40 32 110.5t115 225.5l142 266h-235q-89 0 -133 -15.5t-62 -62.5h-3l51 144h421z" />
    <glyph glyph-name="eight" unicode="8" horiz-adv-x="572" 
d="M286 708q95 0 154.5 -45.5t59.5 -126.5q0 -71 -52.5 -119.5t-138.5 -59.5q100 -5 159 -51.5t59 -121.5q0 -86 -64.5 -139t-176.5 -53t-176.5 50.5t-64.5 135.5q0 75 59.5 125t158.5 54q-87 11 -139 57t-52 116q0 80 60.5 129t153.5 49zM286 705q-65 0 -96 -48.5
t-31 -128.5q0 -75 31 -122.5t96 -47.5q64 0 95.5 50.5t31.5 124.5q0 79 -30.5 125.5t-96.5 46.5zM282 355q-74 0 -113.5 -50.5t-39.5 -126.5q0 -82 39.5 -132.5t117.5 -50.5t117.5 49t39.5 130q0 78 -43 129.5t-118 51.5z" />
    <glyph glyph-name="nine" unicode="9" horiz-adv-x="548" 
d="M172 -9v4q40 12 75.5 35t71.5 62.5t61 105.5t34 151q-70 -57 -157 -57q-100 0 -158 53t-58 149q0 93 66.5 155.5t161.5 62.5q106 0 168 -66.5t62 -199.5q0 -94 -31 -176t-81.5 -136.5t-105 -90.5t-109.5 -52zM269 709q-69 0 -106.5 -59.5t-37.5 -147.5q0 -94 39.5 -147
t117.5 -53q72 0 132 51q4 36 4 88q0 124 -42.5 196t-106.5 72z" />
    <glyph glyph-name="colon" unicode=":" horiz-adv-x="222" 
d="M114 507q22 0 35.5 -14t13.5 -37q0 -22 -14.5 -36.5t-34.5 -14.5q-21 0 -34.5 14t-13.5 36t14 37t34 15zM114 96q22 0 35.5 -14t13.5 -37q0 -22 -14.5 -36.5t-34.5 -14.5q-21 0 -34.5 14t-13.5 36t14 37t34 15z" />
    <glyph glyph-name="semicolon" unicode=";" horiz-adv-x="222" 
d="M114 507q22 0 35.5 -14t13.5 -37q0 -22 -14.5 -36.5t-34.5 -14.5q-21 0 -34.5 14t-13.5 36t14 37t34 15zM70 -94v3q39 11 59.5 41t20.5 53q0 5 -5 5q-1 0 -5 -2t-11 -4t-14 -2q-20 0 -35 14t-15 37q0 21 14 36t36 15q24 0 39 -17.5t15 -42.5q0 -41 -26 -82t-73 -54z" />
    <glyph glyph-name="less" unicode="&#x3c;" 
d="M449 389l1 -3q-129 -41 -234.5 -77t-140.5 -47q28 -9 136 -46t239 -78l-1 -3q-129 41 -236 72.5t-155 46.5q-8 3 -8 8t8 8q48 15 155 46.5t236 72.5z" />
    <glyph glyph-name="equal" unicode="=" 
d="M50 321v3q65 0 117.5 2.5t80.5 2.5q24 0 79 -2.5t123 -2.5v-3q-68 0 -123 -2.5t-79 -2.5q-28 0 -80.5 2.5t-117.5 2.5zM50 201v3q65 0 117.5 2.5t80.5 2.5q24 0 79 -2.5t123 -2.5v-3q-68 0 -123 -2.5t-79 -2.5q-28 0 -80.5 2.5t-117.5 2.5z" />
    <glyph glyph-name="greater" unicode="&#x3e;" 
d="M50 386l1 3q129 -41 236 -72.5t155 -46.5q8 -3 8 -8t-8 -8q-48 -15 -155 -46.5t-236 -72.5l-1 3q131 41 239 78t136 46q-35 11 -140.5 47t-234.5 77z" />
    <glyph glyph-name="question" unicode="?" horiz-adv-x="373" 
d="M163 218h-4q-13 43 -13 77q0 35 13 65t31.5 52l37 44t31.5 52.5t13 67.5q0 54 -30 88t-82 34q-58 0 -89.5 -32t-31.5 -60q0 -5 5 -5q1 0 5 2t11 4t14 2q20 0 35 -13.5t15 -37.5q0 -22 -15 -36.5t-38 -14.5q-22 0 -36.5 16t-14.5 41q0 55 40.5 97.5t115.5 42.5
q77 0 122 -38.5t45 -103.5q0 -44 -19 -81t-46.5 -63t-55 -50t-46.5 -53t-19 -60q0 -17 6 -37zM174 96q22 0 35.5 -14t13.5 -37q0 -22 -14.5 -36.5t-34.5 -14.5q-21 0 -34.5 14t-13.5 36t14 37t34 15z" />
    <glyph glyph-name="at" unicode="@" horiz-adv-x="842" 
d="M741 57h4q-3 -5 -10 -13.5t-33 -29.5t-57 -37t-84 -29.5t-112 -13.5q-171 0 -285 109t-114 273q0 165 114.5 274.5t285.5 109.5q163 0 264 -97t101 -241q0 -116 -56.5 -187t-136.5 -71q-37 0 -64 19t-29 57q-15 -31 -49.5 -55t-79.5 -24q-47 0 -82 27t-35 73q0 42 26 68
t63.5 38t74.5 25t63 39.5t26 69.5q0 89 -106 89q-47 0 -79.5 -26t-32.5 -43q0 -4 5 -4q1 0 4 1.5t9 3t12 1.5q15 0 27.5 -11.5t12.5 -29.5t-12 -30t-30 -12q-19 0 -31 13t-12 33q0 41 38.5 75t101.5 34q70 0 110.5 -43.5t40.5 -114.5v-211q0 -53 53 -53q62 0 113.5 69
t51.5 180q0 142 -100.5 238.5t-261.5 96.5q-163 0 -255 -108.5t-92 -271.5t91.5 -271.5t254.5 -108.5q59 0 110.5 12.5t83 30t55 35t33.5 29.5zM528 208v180q-15 -24 -46 -44t-57.5 -32t-47 -39t-20.5 -67q0 -37 22 -59t58 -22q41 0 66 24.5t25 58.5z" />
    <glyph glyph-name="A" unicode="A" horiz-adv-x="675" 
d="M619 3h56v-3h-210v3h66l-116 297h-247l-68 -188q-10 -28 -10 -47q0 -62 73 -62h7v-3h-170v3h4q32 0 52.5 28.5t39.5 81.5l214 587h37zM169 303h245l-126 325z" />
    <glyph glyph-name="B" unicode="B" horiz-adv-x="563" 
d="M20 700h269q104 0 162 -47t58 -127q0 -70 -52 -116.5t-136 -57.5q103 -3 162.5 -49.5t59.5 -122.5q0 -79 -71.5 -129.5t-178.5 -50.5h-273v3h63v694h-63v3zM165 697v-345h98q159 0 159 171q0 79 -37.5 126.5t-117.5 47.5h-102zM165 349v-346h116q89 0 132 47t43 127
q0 77 -43 124.5t-128 47.5h-120z" />
    <glyph glyph-name="C" unicode="C" horiz-adv-x="581" 
d="M542 167h4q-9 -80 -66.5 -128.5t-157.5 -48.5q-128 0 -210 103t-82 253q0 156 88.5 260t224.5 104q48 0 93.5 -18.5t65.5 -18.5q16 0 25.5 10t9.5 27h3v-209h-3q-21 100 -64 152.5t-130 52.5q-113 0 -167.5 -98t-54.5 -256q0 -150 67 -247t176 -97q71 0 120 42t58 117z
" />
    <glyph glyph-name="D" unicode="D" horiz-adv-x="637" 
d="M20 700h252q155 0 245 -95t90 -251q0 -154 -95.5 -254t-239.5 -100h-252v3h63v694h-63v3zM165 697v-694h99q121 0 186.5 96t65.5 249q0 147 -69 248t-184 101h-98z" />
    <glyph glyph-name="E" unicode="E" horiz-adv-x="564" 
d="M494 526h-2q-16 95 -53 133t-123 38h-151v-345h96q66 0 96.5 27t37.5 81h3v-219h-3q-7 54 -37.5 81t-96.5 27h-96v-346h161q86 0 123 38t53 133h2v-174h-484v3h63v694h-63v3h474v-174z" />
    <glyph glyph-name="F" unicode="F" horiz-adv-x="529" 
d="M494 526h-2q-16 95 -53 133t-123 38h-151v-352h96q66 0 96.5 27t37.5 81h3v-219h-3q-7 54 -37.5 81t-96.5 27h-96v-339h63v-3h-208v3h63v694h-63v3h474v-174z" />
    <glyph glyph-name="G" unicode="G" horiz-adv-x="646" 
d="M564 -17v13q0 38 -8.5 55t-29.5 17t-46.5 -19.5t-62 -39t-85.5 -19.5q-129 0 -215.5 103.5t-86.5 252.5q0 156 88.5 260t224.5 104q48 0 93.5 -18.5t65.5 -18.5q16 0 25.5 10t9.5 27h3v-209h-3q-21 100 -64 152.5t-130 52.5q-113 0 -167.5 -98t-54.5 -256
q0 -101 22.5 -180.5t71 -128.5t117.5 -49q71 0 113 39t42 112v142h-74v3h213v-3h-58v-304h-4z" />
    <glyph glyph-name="H" unicode="H" horiz-adv-x="671" 
d="M444 697v3h207v-3h-62v-694h62v-3h-207v3h63v343h-342v-343h62v-3h-207v3h63v694h-63v3h207v-3h-62v-348h342v348h-63z" />
    <glyph glyph-name="I" unicode="I" horiz-adv-x="247" 
d="M227 697h-62v-694h62v-3h-207v3h63v694h-63v3h207v-3z" />
    <glyph glyph-name="J" unicode="J" horiz-adv-x="333" 
d="M313 697h-62v-499q0 -91 -29 -148.5t-95 -57.5q-50 0 -78.5 30.5t-28.5 76.5q0 29 16.5 48.5t40.5 19.5q25 0 39 -15t14 -38q0 -25 -15.5 -39.5t-37.5 -14.5q-10 0 -21 4l-11 4q-5 0 -5 -5q0 -22 23 -45.5t64 -23.5t67 25.5t26 72.5q0 39 -25.5 125.5t-25.5 175.5v304
h-63v3h207v-3z" />
    <glyph glyph-name="K" unicode="K" horiz-adv-x="625" 
d="M580 697h-4q-22 0 -49 -18.5t-42.5 -34t-49.5 -53.5l-131 -153l264 -435h52v-3h-215v3h67l-223 370l-84 -99v-271h62v-3h-207v3h63v694h-63v3h207v-3h-62v-418l266 313q38 41 38 71q0 34 -52 34h-7v3h170v-3z" />
    <glyph glyph-name="L" unicode="L" horiz-adv-x="534" 
d="M228 697h-63v-694h161q86 0 123 38t53 133h2v-174h-484v3h63v694h-63v3h208v-3z" />
    <glyph glyph-name="M" unicode="M" horiz-adv-x="744" 
d="M724 697h-62v-694h62v-3h-205v3h63v684l-217 -687h-34l-244 686v-558q0 -65 20.5 -95t52.5 -30v-3h-140v3q28 0 45.5 31t17.5 94v569h-63v3h148l218 -622l196 622h142v-3z" />
    <glyph glyph-name="N" unicode="N" horiz-adv-x="643" 
d="M628 700v-3q-63 0 -63 -125v-572h-70l-408 690v-562q0 -65 20.5 -95t52.5 -30v-3h-140v3q63 0 63 125v569h-63v3h154l387 -663v535q0 65 -20.5 95t-52.5 30v3h140z" />
    <glyph glyph-name="O" unicode="O" horiz-adv-x="704" 
d="M352 710q153 0 237.5 -98.5t84.5 -257.5q0 -157 -90.5 -261t-231.5 -104q-153 0 -237.5 99t-84.5 258q0 157 90.5 260.5t231.5 103.5zM352 706q-118 0 -174.5 -98t-56.5 -256q0 -152 59.5 -255.5t171.5 -103.5q118 0 174.5 98.5t56.5 256.5q0 152 -59.5 255t-171.5 103z
" />
    <glyph glyph-name="P" unicode="P" horiz-adv-x="563" 
d="M20 700h287q108 0 172 -49.5t64 -129.5q0 -79 -72 -133t-178 -54h-128v-331h62v-3h-207v3h63v694h-63v3zM165 697v-360h116q88 0 131.5 50.5t43.5 130.5q0 78 -43.5 128.5t-127.5 50.5h-120z" />
    <glyph glyph-name="Q" unicode="Q" horiz-adv-x="704" 
d="M426 -22v24q-37 -8 -74 -8q-153 0 -237.5 98.5t-84.5 256.5q0 156 90 258.5t232 102.5q153 0 237.5 -97.5t84.5 -255.5q0 -109 -46.5 -195.5t-126.5 -130.5q3 -24 3 -53q0 -47 8 -68.5t30 -21.5q16 0 26 14.5t10 35.5v21h3v-21q0 -37 -18.5 -64t-57.5 -27q-46 0 -62.5 33
t-16.5 98zM350 -2v22q0 37 18.5 64t57.5 27q55 0 70 -55q87 90 87 295q0 98 -24 176.5t-77.5 128.5t-129.5 50q-61 0 -106.5 -27t-72 -76t-39.5 -110.5t-13 -137.5q0 -72 14 -135t41.5 -113t72 -79t101.5 -30zM353 20v-22q40 0 73 12q0 60 -36 60q-16 0 -26.5 -14.5
t-10.5 -35.5z" />
    <glyph glyph-name="R" unicode="R" horiz-adv-x="610" 
d="M20 700h287q109 0 172.5 -48.5t63.5 -127.5q0 -72 -60 -122.5t-153 -59.5q93 -7 138 -64.5t45 -156.5q0 -47 8 -68.5t30 -21.5q16 0 26 14.5t10 35.5v21h3v-21q0 -37 -18.5 -64t-57.5 -27q-46 0 -62.5 33t-16.5 98q0 54 -6 91t-22 67.5t-47 45.5t-78 15h-117v-337h62v-3
h-207v3h63v694h-63v3zM165 697v-354h116q89 0 132 49t43 129q0 77 -43.5 126.5t-127.5 49.5h-120z" />
    <glyph glyph-name="S" unicode="S" horiz-adv-x="513" 
d="M464 501h-3q-21 98 -67 151.5t-133 53.5q-72 0 -113 -40.5t-41 -101.5q0 -45 20.5 -77.5t54 -52t73.5 -35t80 -32t73.5 -37.5t54 -56.5t20.5 -83.5q0 -87 -63.5 -143.5t-155.5 -56.5q-61 0 -115 27t-80 27q-35 0 -35 -36h-4v209h4q17 -99 78.5 -161t151.5 -62
q73 0 112.5 41t39.5 106q0 44 -20.5 77t-54 52t-73 35t-79.5 32.5t-73.5 37.5t-54 57t-20.5 84q0 89 60 141.5t160 52.5q48 0 96.5 -18.5t68.5 -18.5q16 0 25.5 10t9.5 27h3v-209z" />
    <glyph glyph-name="T" unicode="T" horiz-adv-x="604" 
d="M569 528h-3q-7 92 -49.5 130.5t-135.5 38.5h-38v-694h62v-3h-207v3h63v694h-38q-93 0 -135.5 -38.5t-49.5 -130.5h-3v209h3q0 -17 9.5 -27t25.5 -10h458q16 0 25.5 10t9.5 27h3v-209z" />
    <glyph glyph-name="U" unicode="U" horiz-adv-x="671" 
d="M656 697h-4q-80 0 -80 -110v-350q0 -108 -72 -177t-176 -69t-172.5 67.5t-68.5 169.5v469h-63v3h207v-3h-62v-464q0 -87 58 -140.5t147 -53.5q87 0 142.5 52.5t55.5 146.5v349q0 110 -78 110h-4v3h170v-3z" />
    <glyph glyph-name="V" unicode="V" horiz-adv-x="655" 
d="M655 700v-3q-36 0 -57.5 -29.5t-38.5 -80.5l-204 -587h-37l-262 697h-56v3h210v-3h-66l232 -623l179 514q10 24 10 48q0 61 -80 61v3h170z" />
    <glyph glyph-name="W" unicode="W" horiz-adv-x="930" 
d="M925 700v-3q-68 0 -98 -110l-164 -587h-37l-162 550l-165 -550h-37l-201 697h-56v3h208v-3h-66l173 -612l142 473l-41 139h-56v3h203v-3h-66l180 -614l141 505q8 29 8 49q0 60 -76 60v3h170z" />
    <glyph glyph-name="X" unicode="X" horiz-adv-x="644" 
d="M622 700v-3q-36 0 -67 -28t-69 -82l-140 -204l241 -380h52v-3h-213v3h67l-199 319l-144 -210q-32 -45 -32 -72q0 -37 61 -37v-3h-169v3q24 0 50 18t40.5 35.5t45.5 56.5l146 212l-235 372h-52v3h213v-3h-67l193 -310l138 201q31 46 31 72q0 37 -61 37v3h170z" />
    <glyph glyph-name="Y" unicode="Y" horiz-adv-x="649" 
d="M649 700v-3q-36 0 -67 -28t-69 -82l-155 -234v-350h62v-3h-207v3h63v339l-224 355h-52v3h213v-3h-67l212 -338l151 229q31 46 31 72q0 37 -61 37v3h170z" />
    <glyph glyph-name="Z" unicode="Z" horiz-adv-x="608" 
d="M133 3h247q86 0 123 38t53 133h2v-174h-518l424 697h-224q-86 0 -123 -38t-53 -133h-2v174h495z" />
    <glyph glyph-name="bracketleft" unicode="[" horiz-adv-x="317" 
d="M307 747h-153v-838h153v-3h-224v844h224v-3z" />
    <glyph glyph-name="backslash" unicode="\" horiz-adv-x="312" 
d="M40 723h3q38 -123 71 -223.5t48 -150.5q16 -53 44.5 -153.5t65.5 -220.5h-3q-37 122 -70.5 222.5t-49.5 151.5q-10 35 -39.5 139.5t-69.5 234.5z" />
    <glyph glyph-name="bracketright" unicode="]" horiz-adv-x="317" 
d="M234 -94h-224v3h153v838h-153v3h224v-844z" />
    <glyph glyph-name="asciicircum" unicode="^" 
d="M126 62l-3 1q41 129 72.5 236t46.5 155q3 8 8 8t8 -8q15 -48 46.5 -155t72.5 -236l-3 -1q-41 131 -78 239t-46 136q-11 -35 -47 -140.5t-77 -234.5z" />
    <glyph glyph-name="underscore" unicode="_" 
d="M502 -104h-504v3h504v-3z" />
    <glyph glyph-name="grave" unicode="`" 
d="M340 631l-1 -3q-35 16 -70 30.5t-68.5 27t-48.5 18.5q-12 4 -12 12q0 9 9 9q4 0 10 -2q20 -9 79 -41t102 -51z" />
    <glyph glyph-name="a" unicode="a" horiz-adv-x="509" 
d="M501 70h3q-2 -28 -23.5 -54t-60.5 -26q-77 0 -84 96q-17 -38 -59.5 -67t-97.5 -29q-56 0 -95 32.5t-39 88.5q0 52 31 84t75 47l88 30t75 47.5t31 85.5q0 109 -132 109q-58 0 -95.5 -31.5t-37.5 -53.5q0 -5 5 -5q1 0 5 2t11 4t14 2q20 0 35 -14t15 -37q0 -21 -14.5 -36
t-38.5 -15q-22 0 -36.5 16t-14.5 41q0 50 46 91t121 41q86 0 135 -53t49 -141v-255q0 -23 12 -35t30 -12q19 0 32 13t15 34zM335 120v219q-15 -25 -43 -44.5t-55 -33t-53 -30.5t-42 -45t-16 -68q0 -46 27 -73t72 -27q49 0 79.5 30t30.5 72z" />
    <glyph glyph-name="b" unicode="b" horiz-adv-x="547" 
d="M139 700v-269q18 40 56 64.5t90 24.5q98 0 157.5 -73.5t59.5 -185.5q0 -111 -67.5 -190t-163.5 -79q-44 0 -78 16.5t-57 33t-40 16.5q-20 0 -30.5 -17.5t-26.5 -72.5h-5q3 11 11 36.5t11 36.5t6 31t3 41v584h-65v3h139zM139 378v-254q0 -62 33.5 -94t88.5 -32
q76 0 117 71.5t41 186.5q0 112 -41 180.5t-114 68.5q-57 0 -91 -34t-34 -93z" />
    <glyph glyph-name="c" unicode="c" horiz-adv-x="471" 
d="M437 121h4q-6 -59 -51 -95t-119 -36q-98 0 -162 76t-64 187q0 110 68 188.5t168 78.5q76 0 116.5 -37.5t40.5 -87.5q0 -25 -14.5 -42.5t-36.5 -17.5q-23 0 -38 14.5t-15 36.5q0 24 15 37.5t35 13.5q7 0 14 -2t11 -4t5 -2q5 0 5 5q0 23 -32.5 52t-90.5 29q-78 0 -123 -69
t-45 -188q0 -111 49 -182.5t129 -71.5q49 0 86.5 31.5t44.5 85.5z" />
    <glyph glyph-name="d" unicode="d" horiz-adv-x="577" 
d="M482 700v-630q0 -23 12.5 -35t30.5 -12q17 0 30 13t14 34h3q-2 -28 -24 -54t-62 -26q-69 0 -78 90q-17 -40 -55.5 -65t-90.5 -25q-98 0 -157.5 73.5t-59.5 185.5t65 191.5t161 79.5q48 0 84 -22.5t53 -59.5v259h-65v3h139zM408 132v254q0 57 -33.5 90t-86.5 33
q-76 0 -118 -70.5t-42 -184.5q0 -112 41 -181t114 -69q57 0 91 34.5t34 93.5z" />
    <glyph glyph-name="e" unicode="e" horiz-adv-x="489" 
d="M274 520q76 0 124.5 -36.5t48.5 -94.5q0 -49 -31 -79t-75.5 -44.5t-89.5 -28t-76 -41.5t-31 -73q0 -54 40.5 -91t107.5 -37q58 0 98 31.5t40 53.5q0 5 -5 5q-1 0 -5 -2t-11 -4t-14 -2q-20 0 -35 13.5t-15 37.5q0 22 14.5 36.5t38.5 14.5q22 0 36.5 -16t14.5 -41
q0 -49 -48 -90.5t-124 -41.5q-100 0 -166 76t-66 187t65.5 189t163.5 78zM274 517q-68 0 -107 -77t-39 -192q0 -56 10 -99q8 28 34.5 49.5t58.5 36.5t63 33t51.5 48t20.5 72q0 57 -24.5 93t-67.5 36z" />
    <glyph glyph-name="f" unicode="f" horiz-adv-x="287" 
d="M78 507v24q0 87 34.5 138t97.5 51q52 0 79.5 -29t27.5 -74q0 -26 -15.5 -44t-37.5 -18q-23 0 -37 14t-14 35q0 24 14.5 38t35.5 14q7 0 14 -2t11 -4t5 -2q5 0 5 5q0 21 -22 43t-66 22q-45 0 -73.5 -29.5t-28.5 -76.5q0 -37 20 -105h140v-3h-139q26 -82 26 -171v-330h62
v-3h-202v3h63v501h-63v3h63z" />
    <glyph glyph-name="g" unicode="g" horiz-adv-x="506" 
d="M393 663q23 0 39 -15t16 -39q0 -42 -32.5 -72.5t-87.5 -33.5q47 -19 73 -57.5t26 -87.5q0 -70 -53 -117.5t-133 -47.5q-21 0 -47.5 3.5t-37.5 3.5q-35 0 -60 -19t-25 -54q0 -28 18.5 -46t49.5 -18q28 0 62.5 22.5t74.5 45.5t83 23q61 0 92 -33.5t31 -82.5
q0 -80 -67.5 -132t-178.5 -52q-97 0 -149 42t-52 94q0 25 14.5 42.5t36.5 17.5q24 0 38.5 -15t14.5 -36q0 -23 -15 -37t-35 -14q-7 0 -14 2t-11 4t-5 2q-5 0 -5 -5q0 -26 43.5 -57.5t118.5 -31.5q86 0 137 46t51 115q0 97 -95 97q-35 0 -87 -30t-83 -30q-34 0 -53 19t-19 48
q0 35 25.5 56t64.5 28q-44 19 -70 57t-26 86q0 70 53 117t133 47q20 0 47 -4t45 -4q33 0 59.5 16.5t26.5 39.5q0 5 -5 5q-1 0 -5 -2t-11 -4t-14 -2q-20 0 -35 13.5t-15 36.5q0 21 14.5 35.5t38.5 14.5zM247 515q-109 0 -109 -158q0 -72 25 -116.5t78 -44.5q109 0 109 159
q0 72 -25 116t-78 44z" />
    <glyph glyph-name="h" unicode="h" horiz-adv-x="536" 
d="M456 327v-257q0 -23 12.5 -35t30.5 -12q17 0 30 13t14 34h3q-2 -28 -24 -54t-62 -26q-39 0 -60.5 29t-21.5 82v297q0 50 -26.5 77t-72.5 27q-54 0 -89 -42.5t-35 -96.5v-360h62v-3h-202v3h63v694h-63v3h140v-289q15 42 56.5 74t98.5 32q72 0 109 -50.5t37 -139.5z" />
    <glyph glyph-name="i" unicode="i" horiz-adv-x="222" 
d="M114 705q22 0 35.5 -14t13.5 -37q0 -22 -14.5 -36.5t-34.5 -14.5q-21 0 -34.5 14t-13.5 36t14 37t34 15zM155 3h62v-3h-202v3h63v501h-63v3h140v-504z" />
    <glyph glyph-name="j" unicode="j" horiz-adv-x="216" 
d="M107 705q22 0 35.5 -14t13.5 -37q0 -22 -14.5 -36.5t-34.5 -14.5q-21 0 -34.5 14t-13.5 36t14 37t34 15zM148 507v-475q0 -82 -34 -140.5t-94 -58.5q-40 0 -66.5 22.5t-26.5 60.5q0 27 16 45.5t38 18.5q23 0 36.5 -14t13.5 -36q0 -24 -15 -37.5t-35 -13.5q-7 0 -14 2
t-11 4t-5 2q-5 0 -5 -5q0 -15 21.5 -31t52.5 -16q37 0 68 27t31 70q0 37 -24 122.5t-24 169.5v280h-63v3h140z" />
    <glyph glyph-name="k" unicode="k" horiz-adv-x="536" 
d="M155 700v-322q19 53 66 96t118 43q64 0 99 -27t35 -77q0 -35 -15 -59.5t-42.5 -38t-54.5 -22t-63.5 -18t-57.5 -18.5l136 -179q42 -55 89 -55q19 0 33 13t15 34h3q-2 -28 -24 -54t-62 -26q-49 0 -90.5 30.5t-89.5 91.5l-72 93q12 26 39.5 44t56 29t56 24.5t45 39.5
t17.5 65q0 44 -24 68.5t-64 24.5q-58 0 -103.5 -51t-45.5 -120v-326h62v-3h-202v3h63v694h-63v3h140z" />
    <glyph glyph-name="l" unicode="l" horiz-adv-x="231" 
d="M141 700v-630q0 -23 12.5 -35t30.5 -12q17 0 30 13t14 34h3q-2 -28 -24 -54t-62 -26q-39 0 -59.5 29t-20.5 82v596h-65v3h141z" />
    <glyph glyph-name="m" unicode="m" horiz-adv-x="796" 
d="M155 507v-89q16 41 54 70t92 29q108 0 129 -115q17 53 56 84t95 31q68 0 101.5 -50t33.5 -140v-257q0 -23 12.5 -35t30.5 -12q17 0 30 13t14 34h3q-2 -28 -24 -54t-62 -26q-39 0 -60.5 29t-21.5 82v297q0 50 -23 77t-65 27q-52 0 -83.5 -39t-31.5 -93v-367h62v-3h-202v3
h63v395q0 50 -23 77t-65 27q-52 0 -83.5 -39t-31.5 -93v-367h62v-3h-202v3h63v501h-63v3h140z" />
    <glyph glyph-name="n" unicode="n" horiz-adv-x="536" 
d="M155 507v-96q15 42 56.5 74t98.5 32q72 0 109 -50.5t37 -139.5v-257q0 -23 12.5 -35t30.5 -12q17 0 30 13t14 34h3q-2 -28 -24 -54t-62 -26q-39 0 -60.5 29t-21.5 82v297q0 50 -26.5 77t-72.5 27q-54 0 -89 -42.5t-35 -96.5v-360h62v-3h-202v3h63v501h-63v3h140z" />
    <glyph glyph-name="o" unicode="o" horiz-adv-x="557" 
d="M281 518q99 0 165 -75t66 -185t-69.5 -188.5t-166.5 -78.5q-99 0 -165 75.5t-66 185.5t69.5 188t166.5 78zM281 514q-75 0 -114 -71t-39 -186t38.5 -188.5t109.5 -73.5q75 0 114 71t39 187q0 115 -38.5 188t-109.5 73z" />
    <glyph glyph-name="p" unicode="p" horiz-adv-x="553" 
d="M145 507v-77q17 40 55.5 65t90.5 25q98 0 157.5 -71.5t59.5 -182.5t-65 -188.5t-161 -77.5q-48 0 -84 22.5t-53 59.5v-225h62v-3h-202v3h63v647h-63v3h140zM145 378v-244q0 -57 33.5 -90t86.5 -33q76 0 118 68.5t42 181.5q0 111 -41 178t-114 67q-57 0 -91 -34.5
t-34 -93.5z" />
    <glyph glyph-name="q" unicode="q" horiz-adv-x="552" 
d="M508 542h5q-3 -11 -11 -36.5t-11 -36.5t-6 -31t-3 -41v-540h65v-3h-204v3h65v232q-18 -40 -56 -64.5t-90 -24.5q-98 0 -157.5 71.5t-59.5 182.5q0 110 67 187t164 77q44 0 78 -16.5t57 -33t40 -16.5q20 0 30.5 17.5t26.5 72.5zM408 142v244q0 62 -33.5 94t-88.5 32
q-76 0 -117 -69.5t-41 -183.5q0 -111 41 -177.5t114 -66.5q57 0 91 34t34 93z" />
    <glyph glyph-name="r" unicode="r" horiz-adv-x="436" 
d="M155 507v-123q52 131 151 131q53 0 81.5 -30.5t28.5 -73.5q0 -27 -16 -44t-40 -17q-23 0 -38.5 15t-15.5 39t15.5 38.5t37.5 14.5q7 0 16 -2l9 -2q5 0 5 6q0 17 -22 35t-61 18q-65 0 -108 -58t-43 -139v-312h62v-3h-202v3h63v501h-63v3h140z" />
    <glyph glyph-name="s" unicode="s" horiz-adv-x="442" 
d="M387 360h-3q-31 154 -160 154q-58 0 -87.5 -28.5t-29.5 -73.5q0 -43 30.5 -71.5t73.5 -44t86.5 -32t74 -48t30.5 -79.5q0 -64 -52.5 -105.5t-130.5 -41.5q-77 0 -128 39.5t-51 88.5q0 25 14.5 41t36.5 16q23 0 38 -14.5t15 -36.5q0 -24 -15 -37.5t-35 -13.5q-7 0 -14 2
t-11 4t-5 2q-5 0 -5 -5q0 -21 44.5 -51t109.5 -30q59 0 94 29.5t35 74.5q0 43 -30.5 71t-74 44t-86.5 32t-73.5 48t-30.5 80q0 66 48 105.5t129 39.5q43 0 80 -13.5t52 -13.5q28 0 28 27h3v-159z" />
    <glyph glyph-name="t" unicode="t" horiz-adv-x="316" 
d="M141 507h165v-3h-165v-372q0 -112 94 -112q29 0 51.5 18t26.5 46h3q-4 -36 -39 -65t-81 -29q-66 0 -98.5 40t-32.5 111v363h-65v3h65v104l76 38v-142z" />
    <glyph glyph-name="u" unicode="u" horiz-adv-x="542" 
d="M-7 437h-3q2 28 24 54t62 26q39 0 60.5 -29t21.5 -82v-297q0 -50 26.5 -77t72.5 -27q55 0 89.5 40t34.5 94v365h-62v3h138v-437q0 -23 12.5 -35t30.5 -12q17 0 30 13t14 34h3q-2 -28 -24 -54t-62 -26q-33 0 -54.5 27.5t-25.5 73.5q-15 -41 -56.5 -71t-98.5 -30
q-72 0 -109 50.5t-37 139.5v257q0 23 -12.5 35t-30.5 12q-17 0 -30 -13t-14 -34z" />
    <glyph glyph-name="v" unicode="v" horiz-adv-x="533" 
d="M533 507v-3q-36 0 -57.5 -29.5t-38.5 -80.5l-145 -394h-37l-199 504h-56v3h203v-3h-66l173 -444l123 335q10 24 10 48q0 61 -80 61v3h170z" />
    <glyph glyph-name="w" unicode="w" horiz-adv-x="752" 
d="M752 507v-3q-36 0 -57.5 -29.5t-38.5 -80.5l-125 -394h-37l-115 356l-121 -356h-37l-165 504h-56v3h202v-3h-66l140 -439l101 298l-45 141h-56v3h198v-3h-66l140 -436l104 327q10 24 10 48q0 61 -80 61v3h170z" />
    <glyph glyph-name="x" unicode="x" horiz-adv-x="543" 
d="M514 507v-3q-8 0 -15.5 -1.5t-14 -4t-14 -7.5t-13 -8.5t-13.5 -12t-12 -12.5t-12.5 -14.5t-12 -15.5t-13 -17t-13.5 -17l-84 -114l189 -277h52v-3h-207v3h67l-155 227l-86 -118q-31 -44 -31 -70q0 -39 63 -39v-3h-169v3q23 0 47 17t34.5 28.5t41.5 52.5q7 8 10 12l88 120
l-184 271h-52v3h207v-3h-67l150 -221l82 112q30 43 30 70q0 39 -63 39v3h170z" />
    <glyph glyph-name="y" unicode="y" horiz-adv-x="514" 
d="M135 504l168 -368q11 17 41 64t42.5 68.5t31.5 56.5t26.5 60t7.5 46q0 11 -9 11q-2 0 -13 -4t-21 -4q-20 0 -35.5 14.5t-15.5 38.5q0 22 14.5 37t37.5 15q26 0 42.5 -19t16.5 -48q0 -44 -25.5 -102.5t-62 -116t-73 -114t-62 -110.5t-25.5 -90q0 -10 9 -10q2 0 13 4t21 4
q20 0 35.5 -14.5t15.5 -38.5q0 -22 -14.5 -37t-37.5 -15q-26 0 -42.5 19t-16.5 48q0 62 56 165l-204 440h-56v3h204v-3h-69z" />
    <glyph glyph-name="z" unicode="z" horiz-adv-x="487" 
d="M442 507l-314 -484q40 0 105 -15.5t110 -15.5q23 0 23 17q0 4 -4.5 14.5t-4.5 20.5q0 20 14.5 35.5t38.5 15.5q22 0 37 -14t15 -37q0 -29 -20 -48t-60 -19q-60 0 -135.5 21.5t-118.5 21.5q-57 0 -98 -20l327 504h-135q-69 0 -116 -38.5t-61 -89.5h-3l20 131h380z" />
    <glyph glyph-name="braceleft" unicode="{" horiz-adv-x="317" 
d="M307 761v-4q-89 0 -135.5 -36t-46.5 -97q0 -48 39.5 -110.5t39.5 -96.5q0 -35 -32.5 -60t-73.5 -29q41 -4 73.5 -29t32.5 -60q0 -34 -39.5 -96.5t-39.5 -110.5q0 -61 46.5 -97t135.5 -36v-4q-115 0 -183.5 49.5t-68.5 120.5q0 34 15.5 65t34 49.5t34 42.5t15.5 46
q0 58 -77 58v4q77 0 77 58q0 22 -15.5 46t-34 42.5t-34 49.5t-15.5 65q0 71 68.5 120.5t183.5 49.5z" />
    <glyph glyph-name="bar" unicode="|" horiz-adv-x="213" 
d="M105 731h3q0 -149 2.5 -267.5t2.5 -172.5q0 -62 -2.5 -180t-2.5 -260h-3q0 142 -2.5 260t-2.5 180q0 54 2.5 172.5t2.5 267.5z" />
    <glyph glyph-name="braceright" unicode="}" horiz-adv-x="317" 
d="M10 757v4q115 0 183.5 -49.5t68.5 -120.5q0 -34 -15.5 -65t-34 -49.5t-34 -42.5t-15.5 -46q0 -58 77 -58v-4q-77 0 -77 -58q0 -22 15.5 -46t34 -42.5t34 -49.5t15.5 -65q0 -71 -68.5 -120.5t-183.5 -49.5v4q89 0 135.5 36t46.5 97q0 48 -39.5 110.5t-39.5 96.5
q0 35 32.5 60t73.5 29q-41 4 -73.5 29t-32.5 60q0 34 39.5 96.5t39.5 110.5q0 61 -46.5 97t-135.5 36z" />
    <glyph glyph-name="asciitilde" unicode="~" 
d="M53 230h-3q20 41 45 60.5t67 19.5q37 0 88.5 -37t97.5 -37q66 0 100 67h3q-20 -41 -45 -60.5t-67 -19.5q-33 0 -60.5 11.5t-43 25.5t-37.5 25.5t-45 11.5q-66 0 -100 -67z" />
    <glyph glyph-name="exclamdown" unicode="&#xa1;" horiz-adv-x="222" 
d="M115 507q21 0 34.5 -14t13.5 -36t-14 -37t-34 -15q-22 0 -35.5 14t-13.5 37q0 22 14.5 36.5t34.5 14.5zM113 274h4q0 -90 23 -230t23 -187q0 -29 -13.5 -45t-34.5 -16t-34.5 16t-13.5 45q0 47 23 187t23 230z" />
    <glyph glyph-name="cent" unicode="&#xa2;" horiz-adv-x="471" 
d="M437 121h4q-6 -58 -50 -94t-116 -37v-71h-3l-1 71q-98 0 -162 76t-64 187q0 108 65 185.5t162 81.5v82h3v-82h6q76 0 116.5 -37.5t40.5 -87.5q0 -25 -14.5 -42.5t-36.5 -17.5q-23 0 -38 14.5t-15 36.5q0 24 15 37.5t35 13.5q7 0 14 -2t11 -4t5 -2q5 0 5 5q0 23 -32.5 52
t-90.5 29q-14 0 -21 -1v-507q15 -3 31 -3q49 0 86.5 31.5t44.5 85.5zM272 8v505q-68 -11 -106 -78.5t-38 -176.5q0 -98 39 -166.5t105 -83.5z" />
    <glyph glyph-name="sterling" unicode="&#xa3;" horiz-adv-x="545" 
d="M533 148l-67 -168h-26q-49 0 -91.5 16t-72.5 39.5t-56 46.5t-53.5 39t-53.5 16q-32 0 -49.5 -14t-17.5 -31q0 -5 5 -5q1 0 5 2t11 4t14 2q20 0 35 -13.5t15 -37.5q0 -21 -14.5 -34.5t-38.5 -13.5q-22 0 -36.5 16t-14.5 41q0 40 25.5 64.5t70.5 24.5q39 0 66.5 22.5
t27.5 65.5q0 31 -11 58h-131v3h129q-9 21 -29 49.5t-36.5 50.5t-29.5 61t-13 86q0 71 52.5 118t135.5 47q38 0 83.5 -13.5t61.5 -13.5q28 0 28 27h3v-171h-3q-14 84 -55.5 125.5t-117.5 41.5q-60 0 -94 -36t-34 -93q0 -58 39.5 -146.5t44.5 -132.5h176v-3h-176q1 -7 1 -21
q0 -53 -27 -86t-70 -40q43 -4 129.5 -44.5t143.5 -40.5q78 3 113 92h3z" />
    <glyph glyph-name="yen" unicode="&#xa5;" horiz-adv-x="649" 
d="M609 700v-3q-36 0 -67 -28t-69 -82l-115 -167h203v-3h-203v-116h203v-3h-203v-295h62v-3h-207v3h63v295h-194v3h194v116h-194v3h192l-182 277h-52v3h213v-3h-67l172 -273l111 164q31 46 31 72q0 37 -61 37v3h170z" />
    <glyph glyph-name="brokenbar" unicode="&#xa6;" horiz-adv-x="213" 
d="M105 730h3q0 -68 2.5 -122t2.5 -78q0 -28 -2.5 -81.5t-2.5 -118.5h-3q0 65 -2.5 118.5t-2.5 81.5q0 24 2.5 78t2.5 122zM105 251h3q0 -68 2.5 -122t2.5 -78q0 -28 -2.5 -81.5t-2.5 -118.5h-3q0 65 -2.5 118.5t-2.5 81.5q0 24 2.5 78t2.5 122z" />
    <glyph glyph-name="section" unicode="&#xa7;" horiz-adv-x="545" 
d="M444 544h-3q-17 73 -54 114t-106 41q-54 0 -85.5 -29.5t-31.5 -73.5q0 -53 34.5 -94.5t84 -70t99 -58t84 -75t34.5 -104.5q0 -101 -69 -145q10 -28 10 -55q0 -66 -48 -105.5t-129 -39.5q-38 0 -77 13.5t-55 13.5q-28 0 -28 -27h-3v159h3q17 -73 54 -114t106 -41
q54 0 85.5 29.5t31.5 73.5q0 53 -34.5 94.5t-84 70t-99 58t-84 75t-34.5 104.5q0 99 68 144q-9 25 -9 56q0 66 48 105.5t129 39.5q38 0 77 -13.5t55 -13.5q28 0 28 27h3v-159zM114 499q-45 -31 -45 -91q0 -50 31.5 -89.5t79 -68t97 -55t93.5 -63.5t60 -80q46 33 46 92
q0 50 -31.5 89.5t-79 68t-97 55t-93.5 63t-61 79.5z" />
    <glyph glyph-name="dieresis" unicode="&#xa8;" 
d="M170 705q22 0 35.5 -14t13.5 -37q0 -22 -14.5 -36.5t-34.5 -14.5q-21 0 -34.5 14t-13.5 36t14 37t34 15zM329 705q22 0 35.5 -14t13.5 -37q0 -22 -14.5 -36.5t-34.5 -14.5q-21 0 -34.5 14t-13.5 36t14 37t34 15z" />
    <glyph glyph-name="copyright" unicode="&#xa9;" horiz-adv-x="842" 
d="M421 711q160 0 265.5 -102.5t105.5 -257.5q0 -156 -105.5 -259t-265.5 -103t-265.5 102.5t-105.5 257.5q0 156 105.5 259t265.5 103zM421 708q-157 0 -243.5 -97t-86.5 -261t86.5 -261t243.5 -97q158 0 244 97t86 261t-86 261t-244 97zM590 244h4q-6 -49 -47.5 -78.5
t-109.5 -29.5q-92 0 -150.5 62.5t-58.5 154.5q0 91 63 155.5t155 64.5q71 0 108 -31t37 -76q0 -22 -13.5 -37.5t-33.5 -15.5q-22 0 -35.5 13t-13.5 33q0 21 14 33.5t33 12.5q8 0 18 -3l9 -4q4 0 4 4q0 19 -29.5 42.5t-84.5 23.5q-71 0 -112.5 -56.5t-41.5 -154.5
q0 -91 45 -150t119 -59q46 0 80.5 26t40.5 70z" />
    <glyph glyph-name="ordfeminine" unicode="&#xaa;" 
d="M443 392h2q-2 -20 -17.5 -38.5t-44.5 -18.5q-56 0 -64 64q-13 -26 -44 -45t-72 -19q-43 0 -72 23t-29 63q0 36 23 58t56 32.5l66 21t56 33t23 59.5q0 76 -97 76q-37 0 -63.5 -16t-26.5 -31q0 -9 16 -9q15 0 27 -10t12 -28q0 -17 -11.5 -28t-29.5 -11q-17 0 -28 12.5
t-11 30.5q0 35 34.5 65t91.5 30q65 0 101.5 -37t36.5 -100v-177q0 -15 8.5 -23.5t21.5 -8.5q30 0 35 32zM318 427v147q-14 -17 -43 -33.5t-52 -27t-41 -33t-18 -54.5q0 -31 20.5 -50t53.5 -19q36 0 58 20.5t22 49.5z" />
    <glyph glyph-name="guillemotleft" unicode="&#xab;" horiz-adv-x="520" 
d="M343 483l-273 -222l273 -221v-5l-285 212q-8 6 -8 14q0 9 8 15l285 212v-5zM469 461l-273 -200l273 -199v-4l-285 190q-8 6 -8 13q0 8 8 14l285 190v-4z" />
    <glyph glyph-name="logicalnot" unicode="&#xac;" 
d="M50 322v3q127 0 233.5 3t157.5 3q14 0 14 -13q0 -33 -3.5 -103t-3.5 -152h-3q0 82 -3.5 151t-3.5 102q-51 0 -156 3t-232 3z" />
    <glyph glyph-name="registered" unicode="&#xae;" horiz-adv-x="842" 
d="M421 711q160 0 265.5 -102.5t105.5 -257.5q0 -156 -105.5 -259t-265.5 -103t-265.5 102.5t-105.5 257.5q0 156 105.5 259t265.5 103zM421 708q-157 0 -243.5 -97t-86.5 -261t86.5 -261t243.5 -97q158 0 244 97t86 261t-86 261t-244 97zM239 563h201q76 0 120.5 -29
t44.5 -77q0 -43 -42 -73.5t-107 -35.5q132 -9 132 -132q0 -44 6 -50q5 -4 13 -4q24 0 24 30v12h3v-12q0 -22 -13 -38.5t-40 -16.5q-64 0 -64 79q0 28 -1 44.5t-6.5 35.5t-15.5 29t-28 16.5t-44 6.5h-72v-202h44v-3h-155v3h44v414h-44v3zM350 560v-209h72q112 0 112 105
q0 104 -110 104h-74z" />
    <glyph glyph-name="macron" unicode="&#xaf;" 
d="M103 669v3q49 0 87.5 2.5t59.5 2.5q18 0 58.5 -2.5t91.5 -2.5v-3q-51 0 -91.5 -2.5t-58.5 -2.5q-21 0 -59.5 2.5t-87.5 2.5z" />
    <glyph glyph-name="degree" unicode="&#xb0;" horiz-adv-x="358" 
d="M178 709q46 0 78 -32t32 -78q0 -45 -32 -76.5t-78 -31.5q-45 0 -76.5 31.5t-31.5 76.5q0 46 31.5 78t76.5 32zM178 706q-42 0 -65.5 -30.5t-23.5 -76.5q0 -45 23.5 -75t65.5 -30q43 0 67 30t24 75q0 46 -24 76.5t-67 30.5z" />
    <glyph glyph-name="plusminus" unicode="&#xb1;" 
d="M249 493h3q0 -62 2.5 -113t2.5 -61q11 0 68 -2.5t125 -2.5v-3q-65 0 -118.5 -2.5t-74.5 -2.5q0 -14 -2.5 -64.5t-2.5 -108.5h-3q0 56 -2.5 103.5t-2.5 69.5q-25 0 -78 2.5t-116 2.5v3q66 0 121.5 2.5t72.5 2.5q0 19 2.5 67t2.5 107zM50 95v3q65 0 117.5 2.5t80.5 2.5
q24 0 79 -2.5t123 -2.5v-3q-68 0 -123 -2.5t-79 -2.5q-28 0 -80.5 2.5t-117.5 2.5z" />
    <glyph glyph-name="acute" unicode="&#xb4;" 
d="M161 628l-1 3q43 19 102 51t79 41q6 2 10 2q9 0 9 -9q0 -8 -12 -12q-15 -6 -48.5 -18.5t-68.5 -27t-70 -30.5z" />
    <glyph glyph-name="paragraph" unicode="&#xb6;" horiz-adv-x="563" 
d="M533 697h-66v-697h-3v697h-143v-697h-3v334h-28q-106 0 -178 54t-72 133q0 80 64 129.5t172 49.5h257v-3zM318 697h-20q-84 0 -127.5 -50.5t-43.5 -128.5q0 -80 43.5 -130.5t131.5 -50.5h16v360z" />
    <glyph glyph-name="periodcentered" unicode="&#xb7;" horiz-adv-x="397" 
d="M195 335q22 0 35.5 -14t13.5 -37q0 -22 -14.5 -36.5t-34.5 -14.5q-21 0 -34.5 14t-13.5 36t14 37t34 15z" />
    <glyph glyph-name="cedilla" unicode="&#xb8;" 
d="M251 -10l-73 -68q21 15 63 15q39 0 63.5 -14.5t24.5 -43.5q0 -30 -27.5 -49.5t-68.5 -19.5q-38 0 -60 15.5t-22 33.5q0 8 6 14.5t14 6.5q9 0 15 -5.5t6 -13.5t-6 -13t-13 -5q-5 0 -11 3l-1 1q-2 0 -2 -2q0 -5 7 -12t22.5 -13.5t35.5 -6.5q39 0 60 17t21 46q0 58 -74 58
q-17 0 -30 -4t-18 -8l-5 -3h-6l76 71h3z" />
    <glyph glyph-name="ordmasculine" unicode="&#xba;" 
d="M253 707q74 0 123.5 -52.5t49.5 -130.5q0 -77 -52 -132t-125 -55q-75 0 -124.5 52.5t-49.5 129.5q0 78 52 133t126 55zM253 702q-56 0 -85 -49.5t-29 -129.5q0 -79 28.5 -130.5t81.5 -51.5q55 0 84 50t29 129t-28.5 130.5t-80.5 51.5z" />
    <glyph glyph-name="guillemotright" unicode="&#xbb;" horiz-adv-x="520" 
d="M177 488l285 -212q8 -6 8 -15q0 -8 -8 -14l-285 -212v5l273 221l-273 222v5zM51 465l285 -190q8 -6 8 -14q0 -7 -8 -13l-285 -190v4l273 199l-273 200v4z" />
    <glyph glyph-name="questiondown" unicode="&#xbf;" horiz-adv-x="373" 
d="M189 507q21 0 34.5 -14t13.5 -36t-14 -37t-34 -15q-22 0 -35.5 14t-13.5 37q0 22 14.5 36.5t34.5 14.5zM200 283h4q13 -43 13 -77q0 -35 -13 -65t-31.5 -52l-37 -44t-31.5 -52.5t-13 -67.5q0 -54 30 -88t82 -34q58 0 89.5 32t31.5 60q0 5 -5 5q-1 0 -5 -2t-11 -4t-14 -2
q-20 0 -35 14t-15 37q0 21 14.5 36t38.5 15q22 0 36.5 -16t14.5 -41q0 -55 -40.5 -97.5t-115.5 -42.5q-77 0 -122 38.5t-45 103.5q0 44 19 81t46.5 63t55 50t46.5 53t19 60q0 18 -6 37z" />
    <glyph glyph-name="Agrave" unicode="&#xc0;" horiz-adv-x="675" 
d="M432 784l-1 -3q-35 16 -70 30.5t-68.5 27t-48.5 18.5q-12 4 -12 12q0 9 9 9q4 0 10 -2q20 -9 79 -41t102 -51zM675 3v-3h-210v3h66l-116 297h-247l-68 -188q-10 -28 -10 -47q0 -62 73 -62h7v-3h-170v3h4q32 0 52.5 28.5t39.5 81.5l214 587h37l272 -697h56zM414 303
l-126 325l-119 -325h245z" />
    <glyph glyph-name="Aacute" unicode="&#xc1;" horiz-adv-x="675" 
d="M233 781l-1 3q43 19 102 51t79 41q6 2 10 2q9 0 9 -9q0 -8 -12 -12q-15 -6 -48.5 -18.5t-68.5 -27t-70 -30.5zM675 3v-3h-210v3h66l-116 297h-247l-68 -188q-10 -28 -10 -47q0 -62 73 -62h7v-3h-170v3h4q32 0 52.5 28.5t39.5 81.5l214 587h37l272 -697h56zM414 303
l-126 325l-119 -325h245z" />
    <glyph glyph-name="Acircumflex" unicode="&#xc2;" horiz-adv-x="675" 
d="M214 778l-1 4q37 31 64.5 59t44.5 42q4 4 10 4q7 0 10 -4q15 -12 43.5 -41t65.5 -60l-1 -4l-118 89zM675 3v-3h-210v3h66l-116 297h-247l-68 -188q-10 -28 -10 -47q0 -62 73 -62h7v-3h-170v3h4q32 0 52.5 28.5t39.5 81.5l214 587h37l272 -697h56zM414 303l-126 325
l-119 -325h245z" />
    <glyph glyph-name="Atilde" unicode="&#xc3;" horiz-adv-x="675" 
d="M160 802h-3q18 41 40 60t58 19q32 0 77 -35.5t85 -35.5q58 0 87 64h3q-18 -41 -40 -60t-58 -19t-63.5 17.5t-50.5 35.5t-48 18q-58 0 -87 -64zM675 3v-3h-210v3h66l-116 297h-247l-68 -188q-10 -28 -10 -47q0 -62 73 -62h7v-3h-170v3h4q32 0 52.5 28.5t39.5 81.5l214 587
h37l272 -697h56zM414 303l-126 325l-119 -325h245z" />
    <glyph glyph-name="Adieresis" unicode="&#xc4;" horiz-adv-x="675" 
d="M252 858q22 0 35.5 -14t13.5 -37q0 -22 -14.5 -36.5t-34.5 -14.5q-21 0 -34.5 14t-13.5 36t14 37t34 15zM411 858q22 0 35.5 -14t13.5 -37q0 -22 -14.5 -36.5t-34.5 -14.5q-21 0 -34.5 14t-13.5 36t14 37t34 15zM675 3v-3h-210v3h66l-116 297h-247l-68 -188
q-10 -28 -10 -47q0 -62 73 -62h7v-3h-170v3h4q32 0 52.5 28.5t39.5 81.5l214 587h37l272 -697h56zM414 303l-126 325l-119 -325h245z" />
    <glyph glyph-name="Aring" unicode="&#xc5;" horiz-adv-x="675" 
d="M331 929q39 0 66.5 -27.5t27.5 -66.5t-27.5 -66t-66.5 -27t-66 27t-27 66t27 66.5t66 27.5zM331 926q-37 0 -57 -26t-20 -65t20 -64.5t57 -25.5t57.5 25.5t20.5 64.5t-20.5 65t-57.5 26zM675 3v-3h-210v3h66l-116 297h-247l-68 -188q-10 -28 -10 -47q0 -62 73 -62h7v-3
h-170v3h4q32 0 52.5 28.5t39.5 81.5l214 587h37l272 -697h56zM414 303l-126 325l-119 -325h245z" />
    <glyph glyph-name="AE" unicode="&#xc6;" horiz-adv-x="983" 
d="M913 526h-2q-16 95 -53 133t-123 38h-151v-345h96q66 0 96.5 27t37.5 81h3v-219h-3q-7 54 -37.5 81t-96.5 27h-96v-346h161q86 0 123 38t53 133h2v-174h-484v3h63v346h-215l-146 -237q-25 -39 -25 -67q0 -42 58 -42h7v-3h-169v3h4q55 0 121 110l361 584h-88v3h503v-174z
M289 352h213v345z" />
    <glyph glyph-name="Ccedilla" unicode="&#xc7;" horiz-adv-x="581" 
d="M542 167h4q-9 -80 -66.5 -128.5t-157.5 -48.5q-128 0 -210 103t-82 253q0 156 88.5 260t224.5 104q48 0 93.5 -18.5t65.5 -18.5q16 0 25.5 10t9.5 27h3v-209h-3q-21 100 -64 152.5t-130 52.5q-113 0 -167.5 -98t-54.5 -256q0 -150 67 -247t176 -97q71 0 120 42t58 117z
M329 -10l-73 -68q21 15 63 15q39 0 63.5 -14.5t24.5 -43.5q0 -30 -27.5 -49.5t-68.5 -19.5q-38 0 -60 15.5t-22 33.5q0 8 6 14.5t14 6.5q9 0 15 -5.5t6 -13.5t-6 -13t-13 -5q-5 0 -11 3l-1 1q-2 0 -2 -2q0 -5 7 -12t22.5 -13.5t35.5 -6.5q39 0 60 17t21 46q0 58 -74 58
q-17 0 -30 -4t-18 -8l-5 -3h-6l76 71h3z" />
    <glyph glyph-name="Egrave" unicode="&#xc8;" horiz-adv-x="564" 
d="M378 784l-1 -3q-35 16 -70 30.5t-68.5 27t-48.5 18.5q-12 4 -12 12q0 9 9 9q4 0 10 -2q20 -9 79 -41t102 -51zM494 526h-2q-16 95 -53 133t-123 38h-151v-345h96q66 0 96.5 27t37.5 81h3v-219h-3q-7 54 -37.5 81t-96.5 27h-96v-346h161q86 0 123 38t53 133h2v-174h-484v3
h63v694h-63v3h474v-174z" />
    <glyph glyph-name="Eacute" unicode="&#xc9;" horiz-adv-x="564" 
d="M179 781l-1 3q43 19 102 51t79 41q6 2 10 2q9 0 9 -9q0 -8 -12 -12q-15 -6 -48.5 -18.5t-68.5 -27t-70 -30.5zM494 526h-2q-16 95 -53 133t-123 38h-151v-345h96q66 0 96.5 27t37.5 81h3v-219h-3q-7 54 -37.5 81t-96.5 27h-96v-346h161q86 0 123 38t53 133h2v-174h-484v3
h63v694h-63v3h474v-174z" />
    <glyph glyph-name="Ecircumflex" unicode="&#xca;" horiz-adv-x="564" 
d="M160 778l-1 4q37 31 64.5 59t44.5 42q4 4 10 4q7 0 10 -4q15 -12 43.5 -41t65.5 -60l-1 -4l-118 89zM494 526h-2q-16 95 -53 133t-123 38h-151v-345h96q66 0 96.5 27t37.5 81h3v-219h-3q-7 54 -37.5 81t-96.5 27h-96v-346h161q86 0 123 38t53 133h2v-174h-484v3h63v694
h-63v3h474v-174z" />
    <glyph glyph-name="Edieresis" unicode="&#xcb;" horiz-adv-x="564" 
d="M198 858q22 0 35.5 -14t13.5 -37q0 -22 -14.5 -36.5t-34.5 -14.5q-21 0 -34.5 14t-13.5 36t14 37t34 15zM357 858q22 0 35.5 -14t13.5 -37q0 -22 -14.5 -36.5t-34.5 -14.5q-21 0 -34.5 14t-13.5 36t14 37t34 15zM494 526h-2q-16 95 -53 133t-123 38h-151v-345h96
q66 0 96.5 27t37.5 81h3v-219h-3q-7 54 -37.5 81t-96.5 27h-96v-346h161q86 0 123 38t53 133h2v-174h-484v3h63v694h-63v3h474v-174z" />
    <glyph glyph-name="Igrave" unicode="&#xcc;" horiz-adv-x="247" 
d="M224 784l-1 -3q-35 16 -70 30.5t-68.5 27t-48.5 18.5q-12 4 -12 12q0 9 9 9q4 0 10 -2q20 -9 79 -41t102 -51zM165 697v-694h62v-3h-207v3h63v694h-63v3h207v-3h-62z" />
    <glyph glyph-name="Iacute" unicode="&#xcd;" horiz-adv-x="247" 
d="M25 781l-1 3q43 19 102 51t79 41q6 2 10 2q9 0 9 -9q0 -8 -12 -12q-15 -6 -48.5 -18.5t-68.5 -27t-70 -30.5zM165 697v-694h62v-3h-207v3h63v694h-63v3h207v-3h-62z" />
    <glyph glyph-name="Icircumflex" unicode="&#xce;" horiz-adv-x="247" 
d="M6 778l-1 4q37 31 64.5 59t44.5 42q4 4 10 4q7 0 10 -4q15 -12 43.5 -41t65.5 -60l-1 -4l-118 89zM165 697v-694h62v-3h-207v3h63v694h-63v3h207v-3h-62z" />
    <glyph glyph-name="Idieresis" unicode="&#xcf;" horiz-adv-x="247" 
d="M44 858q22 0 35.5 -14t13.5 -37q0 -22 -14.5 -36.5t-34.5 -14.5q-21 0 -34.5 14t-13.5 36t14 37t34 15zM203 858q22 0 35.5 -14t13.5 -37q0 -22 -14.5 -36.5t-34.5 -14.5q-21 0 -34.5 14t-13.5 36t14 37t34 15zM165 697v-694h62v-3h-207v3h63v694h-63v3h207v-3h-62z" />
    <glyph glyph-name="Eth" unicode="&#xd0;" horiz-adv-x="637" 
d="M20 700h252q155 0 245 -95t90 -251q0 -154 -95.5 -254t-239.5 -100h-252v3h63v343h-61v3h61v348h-63v3zM165 3h99q121 0 186.5 96t65.5 249q0 147 -69 248t-184 101h-98v-348h164v-3h-164v-343z" />
    <glyph glyph-name="Ntilde" unicode="&#xd1;" horiz-adv-x="643" 
d="M153 802h-3q18 41 40 60t58 19q32 0 77 -35.5t85 -35.5q58 0 87 64h3q-18 -41 -40 -60t-58 -19t-63.5 17.5t-50.5 35.5t-48 18q-58 0 -87 -64zM628 700v-3q-63 0 -63 -125v-572h-70l-408 690v-562q0 -65 20.5 -95t52.5 -30v-3h-140v3q63 0 63 125v569h-63v3h154l387 -663
v535q0 65 -20.5 95t-52.5 30v3h140z" />
    <glyph glyph-name="Ograve" unicode="&#xd2;" horiz-adv-x="704" 
d="M452 784l-1 -3q-35 16 -70 30.5t-68.5 27t-48.5 18.5q-12 4 -12 12q0 9 9 9q4 0 10 -2q20 -9 79 -41t102 -51zM352 710q153 0 237.5 -98.5t84.5 -257.5q0 -157 -90.5 -261t-231.5 -104q-153 0 -237.5 99t-84.5 258q0 157 90.5 260.5t231.5 103.5zM352 706
q-118 0 -174.5 -98t-56.5 -256q0 -152 59.5 -255.5t171.5 -103.5q118 0 174.5 98.5t56.5 256.5q0 152 -59.5 255t-171.5 103z" />
    <glyph glyph-name="Oacute" unicode="&#xd3;" horiz-adv-x="704" 
d="M253 781l-1 3q43 19 102 51t79 41q6 2 10 2q9 0 9 -9q0 -8 -12 -12q-15 -6 -48.5 -18.5t-68.5 -27t-70 -30.5zM352 710q153 0 237.5 -98.5t84.5 -257.5q0 -157 -90.5 -261t-231.5 -104q-153 0 -237.5 99t-84.5 258q0 157 90.5 260.5t231.5 103.5zM352 706
q-118 0 -174.5 -98t-56.5 -256q0 -152 59.5 -255.5t171.5 -103.5q118 0 174.5 98.5t56.5 256.5q0 152 -59.5 255t-171.5 103z" />
    <glyph glyph-name="Ocircumflex" unicode="&#xd4;" horiz-adv-x="704" 
d="M234 778l-1 4q37 31 64.5 59t44.5 42q4 4 10 4q7 0 10 -4q15 -12 43.5 -41t65.5 -60l-1 -4l-118 89zM352 710q153 0 237.5 -98.5t84.5 -257.5q0 -157 -90.5 -261t-231.5 -104q-153 0 -237.5 99t-84.5 258q0 157 90.5 260.5t231.5 103.5zM352 706q-118 0 -174.5 -98
t-56.5 -256q0 -152 59.5 -255.5t171.5 -103.5q118 0 174.5 98.5t56.5 256.5q0 152 -59.5 255t-171.5 103z" />
    <glyph glyph-name="Otilde" unicode="&#xd5;" horiz-adv-x="704" 
d="M180 802h-3q18 41 40 60t58 19q32 0 77 -35.5t85 -35.5q58 0 87 64h3q-18 -41 -40 -60t-58 -19t-63.5 17.5t-50.5 35.5t-48 18q-58 0 -87 -64zM352 710q153 0 237.5 -98.5t84.5 -257.5q0 -157 -90.5 -261t-231.5 -104q-153 0 -237.5 99t-84.5 258q0 157 90.5 260.5
t231.5 103.5zM352 706q-118 0 -174.5 -98t-56.5 -256q0 -152 59.5 -255.5t171.5 -103.5q118 0 174.5 98.5t56.5 256.5q0 152 -59.5 255t-171.5 103z" />
    <glyph glyph-name="Odieresis" unicode="&#xd6;" horiz-adv-x="704" 
d="M272 858q22 0 35.5 -14t13.5 -37q0 -22 -14.5 -36.5t-34.5 -14.5q-21 0 -34.5 14t-13.5 36t14 37t34 15zM431 858q22 0 35.5 -14t13.5 -37q0 -22 -14.5 -36.5t-34.5 -14.5q-21 0 -34.5 14t-13.5 36t14 37t34 15zM352 710q153 0 237.5 -98.5t84.5 -257.5
q0 -157 -90.5 -261t-231.5 -104q-153 0 -237.5 99t-84.5 258q0 157 90.5 260.5t231.5 103.5zM352 706q-118 0 -174.5 -98t-56.5 -256q0 -152 59.5 -255.5t171.5 -103.5q118 0 174.5 98.5t56.5 256.5q0 152 -59.5 255t-171.5 103z" />
    <glyph glyph-name="multiply" unicode="&#xd7;" 
d="M405 419l1 -1q-46 -46 -88 -91.5t-60 -63.5q14 -14 58 -61.5t90 -93.5l-1 -1q-42 41 -87.5 83.5t-67.5 64.5q-17 -16 -63.5 -59.5t-91.5 -88.5l-1 1q45 45 88.5 91.5t59.5 63.5q-22 21 -64.5 67t-83.5 88l1 1q47 -47 93 -89.5t62 -58.5q18 18 63.5 60t91.5 88z" />
    <glyph glyph-name="Oslash" unicode="&#xd8;" horiz-adv-x="704" 
d="M584 740l-47 -82q67 -46 102 -125t35 -179q0 -157 -90.5 -261t-231.5 -104q-99 0 -172 45l-51 -86h-2l50 87q-71 45 -109 126t-38 185q0 157 90.5 260.5t231.5 103.5q108 0 182 -51l48 81h2zM121 352q0 -180 76 -281q25 44 76 135t77 138q68 119 162 277q-62 85 -160 85
q-118 0 -174.5 -98t-56.5 -256zM352 -7q118 0 174.5 98.5t56.5 256.5q0 171 -69 269q-25 -44 -76 -135t-77 -138q-69 -123 -161 -276q59 -75 152 -75z" />
    <glyph glyph-name="Ugrave" unicode="&#xd9;" horiz-adv-x="671" 
d="M457 784l-1 -3q-35 16 -70 30.5t-68.5 27t-48.5 18.5q-12 4 -12 12q0 9 9 9q4 0 10 -2q20 -9 79 -41t102 -51zM656 697h-4q-80 0 -80 -110v-350q0 -108 -72 -177t-176 -69t-172.5 67.5t-68.5 169.5v469h-63v3h207v-3h-62v-464q0 -87 58 -140.5t147 -53.5q87 0 142.5 52.5
t55.5 146.5v349q0 110 -78 110h-4v3h170v-3z" />
    <glyph glyph-name="Uacute" unicode="&#xda;" horiz-adv-x="671" 
d="M258 781l-1 3q43 19 102 51t79 41q6 2 10 2q9 0 9 -9q0 -8 -12 -12q-15 -6 -48.5 -18.5t-68.5 -27t-70 -30.5zM656 697h-4q-80 0 -80 -110v-350q0 -108 -72 -177t-176 -69t-172.5 67.5t-68.5 169.5v469h-63v3h207v-3h-62v-464q0 -87 58 -140.5t147 -53.5q87 0 142.5 52.5
t55.5 146.5v349q0 110 -78 110h-4v3h170v-3z" />
    <glyph glyph-name="Ucircumflex" unicode="&#xdb;" horiz-adv-x="671" 
d="M239 778l-1 4q37 31 64.5 59t44.5 42q4 4 10 4q7 0 10 -4q15 -12 43.5 -41t65.5 -60l-1 -4l-118 89zM656 697h-4q-80 0 -80 -110v-350q0 -108 -72 -177t-176 -69t-172.5 67.5t-68.5 169.5v469h-63v3h207v-3h-62v-464q0 -87 58 -140.5t147 -53.5q87 0 142.5 52.5
t55.5 146.5v349q0 110 -78 110h-4v3h170v-3z" />
    <glyph glyph-name="Udieresis" unicode="&#xdc;" horiz-adv-x="671" 
d="M277 858q22 0 35.5 -14t13.5 -37q0 -22 -14.5 -36.5t-34.5 -14.5q-21 0 -34.5 14t-13.5 36t14 37t34 15zM436 858q22 0 35.5 -14t13.5 -37q0 -22 -14.5 -36.5t-34.5 -14.5q-21 0 -34.5 14t-13.5 36t14 37t34 15zM656 697h-4q-80 0 -80 -110v-350q0 -108 -72 -177
t-176 -69t-172.5 67.5t-68.5 169.5v469h-63v3h207v-3h-62v-464q0 -87 58 -140.5t147 -53.5q87 0 142.5 52.5t55.5 146.5v349q0 110 -78 110h-4v3h170v-3z" />
    <glyph glyph-name="Yacute" unicode="&#xdd;" horiz-adv-x="649" 
d="M232 781l-1 3q43 19 102 51t79 41q6 2 10 2q9 0 9 -9q0 -8 -12 -12q-15 -6 -48.5 -18.5t-68.5 -27t-70 -30.5zM649 700v-3q-36 0 -67 -28t-69 -82l-155 -234v-350h62v-3h-207v3h63v339l-224 355h-52v3h213v-3h-67l212 -338l151 229q31 46 31 72q0 37 -61 37v3h170z" />
    <glyph glyph-name="Thorn" unicode="&#xde;" horiz-adv-x="563" 
d="M228 697h-63v-138h142q108 0 172 -49.5t64 -129.5q0 -79 -72 -133t-178 -54h-128v-190h62v-3h-207v3h63v694h-63v3h208v-3zM165 556v-360h116q88 0 131.5 50.5t43.5 130.5q0 78 -43.5 128.5t-127.5 50.5h-120z" />
    <glyph glyph-name="germandbls" unicode="&#xdf;" horiz-adv-x="526" 
d="M68 3v491q0 106 53 166.5t135 60.5q80 0 127.5 -30t47.5 -82q0 -30 -14.5 -52t-35 -35t-41 -26.5t-35 -35t-14.5 -52.5t21 -54.5t51.5 -40t60.5 -35.5t51 -50.5t21 -74.5q0 -69 -49.5 -115t-122.5 -46q-51 0 -89.5 30t-38.5 75q0 25 14.5 41t36.5 16q23 0 38 -15t15 -36
q0 -23 -15 -37t-35 -14q-7 0 -14 2t-11 4t-5 2q-5 0 -5 -5q0 -18 33 -39t76 -21q55 0 83.5 33t28.5 87q0 38 -20.5 66t-49.5 46t-58 34.5t-49.5 41t-20.5 56.5q0 29 12.5 50.5t30.5 37t36 33.5t30.5 50t12.5 75q0 58 -25 85.5t-79 27.5q-112 0 -112 -164v-554h-139v3h63z
" />
    <glyph glyph-name="agrave" unicode="&#xe0;" horiz-adv-x="509" 
d="M356 631l-1 -3q-35 16 -70 30.5t-68.5 27t-48.5 18.5q-12 4 -12 12q0 9 9 9q4 0 10 -2q20 -9 79 -41t102 -51zM501 70h3q-2 -28 -23.5 -54t-60.5 -26q-77 0 -84 96q-17 -38 -59.5 -67t-97.5 -29q-56 0 -95 32.5t-39 88.5q0 52 31 84t75 47l88 30t75 47.5t31 85.5
q0 109 -132 109q-58 0 -95.5 -31.5t-37.5 -53.5q0 -5 5 -5q1 0 5 2t11 4t14 2q20 0 35 -14t15 -37q0 -21 -14.5 -36t-38.5 -15q-22 0 -36.5 16t-14.5 41q0 50 46 91t121 41q86 0 135 -53t49 -141v-255q0 -23 12 -35t30 -12q19 0 32 13t15 34zM335 120v219q-15 -25 -43 -44.5
t-55 -33t-53 -30.5t-42 -45t-16 -68q0 -46 27 -73t72 -27q49 0 79.5 30t30.5 72z" />
    <glyph glyph-name="aacute" unicode="&#xe1;" horiz-adv-x="509" 
d="M157 628l-1 3q43 19 102 51t79 41q6 2 10 2q9 0 9 -9q0 -8 -12 -12q-15 -6 -48.5 -18.5t-68.5 -27t-70 -30.5zM501 70h3q-2 -28 -23.5 -54t-60.5 -26q-77 0 -84 96q-17 -38 -59.5 -67t-97.5 -29q-56 0 -95 32.5t-39 88.5q0 52 31 84t75 47l88 30t75 47.5t31 85.5
q0 109 -132 109q-58 0 -95.5 -31.5t-37.5 -53.5q0 -5 5 -5q1 0 5 2t11 4t14 2q20 0 35 -14t15 -37q0 -21 -14.5 -36t-38.5 -15q-22 0 -36.5 16t-14.5 41q0 50 46 91t121 41q86 0 135 -53t49 -141v-255q0 -23 12 -35t30 -12q19 0 32 13t15 34zM335 120v219q-15 -25 -43 -44.5
t-55 -33t-53 -30.5t-42 -45t-16 -68q0 -46 27 -73t72 -27q49 0 79.5 30t30.5 72z" />
    <glyph glyph-name="acircumflex" unicode="&#xe2;" horiz-adv-x="509" 
d="M138 625l-1 4q37 31 64.5 59t44.5 42q4 4 10 4q7 0 10 -4q15 -12 43.5 -41t65.5 -60l-1 -4l-118 89zM501 70h3q-2 -28 -23.5 -54t-60.5 -26q-77 0 -84 96q-17 -38 -59.5 -67t-97.5 -29q-56 0 -95 32.5t-39 88.5q0 52 31 84t75 47l88 30t75 47.5t31 85.5q0 109 -132 109
q-58 0 -95.5 -31.5t-37.5 -53.5q0 -5 5 -5q1 0 5 2t11 4t14 2q20 0 35 -14t15 -37q0 -21 -14.5 -36t-38.5 -15q-22 0 -36.5 16t-14.5 41q0 50 46 91t121 41q86 0 135 -53t49 -141v-255q0 -23 12 -35t30 -12q19 0 32 13t15 34zM335 120v219q-15 -25 -43 -44.5t-55 -33
t-53 -30.5t-42 -45t-16 -68q0 -46 27 -73t72 -27q49 0 79.5 30t30.5 72z" />
    <glyph glyph-name="atilde" unicode="&#xe3;" horiz-adv-x="509" 
d="M84 649h-3q18 41 40 60t58 19q32 0 77 -35.5t85 -35.5q58 0 87 64h3q-18 -41 -40 -60t-58 -19q-29 0 -52.5 11t-37.5 24.5t-33 24.5t-39 11q-58 0 -87 -64zM501 70h3q-2 -28 -23.5 -54t-60.5 -26q-77 0 -84 96q-17 -38 -59.5 -67t-97.5 -29q-56 0 -95 32.5t-39 88.5
q0 52 31 84t75 47l88 30t75 47.5t31 85.5q0 109 -132 109q-58 0 -95.5 -31.5t-37.5 -53.5q0 -5 5 -5q1 0 5 2t11 4t14 2q20 0 35 -14t15 -37q0 -21 -14.5 -36t-38.5 -15q-22 0 -36.5 16t-14.5 41q0 50 46 91t121 41q86 0 135 -53t49 -141v-255q0 -23 12 -35t30 -12
q19 0 32 13t15 34zM335 120v219q-15 -25 -43 -44.5t-55 -33t-53 -30.5t-42 -45t-16 -68q0 -46 27 -73t72 -27q49 0 79.5 30t30.5 72z" />
    <glyph glyph-name="adieresis" unicode="&#xe4;" horiz-adv-x="509" 
d="M176 705q22 0 35.5 -14t13.5 -37q0 -22 -14.5 -36.5t-34.5 -14.5q-21 0 -34.5 14t-13.5 36t14 37t34 15zM335 705q22 0 35.5 -14t13.5 -37q0 -22 -14.5 -36.5t-34.5 -14.5q-21 0 -34.5 14t-13.5 36t14 37t34 15zM501 70h3q-2 -28 -23.5 -54t-60.5 -26q-77 0 -84 96
q-17 -38 -59.5 -67t-97.5 -29q-56 0 -95 32.5t-39 88.5q0 52 31 84t75 47l88 30t75 47.5t31 85.5q0 109 -132 109q-58 0 -95.5 -31.5t-37.5 -53.5q0 -5 5 -5q1 0 5 2t11 4t14 2q20 0 35 -14t15 -37q0 -21 -14.5 -36t-38.5 -15q-22 0 -36.5 16t-14.5 41q0 50 46 91t121 41
q86 0 135 -53t49 -141v-255q0 -23 12 -35t30 -12q19 0 32 13t15 34zM335 120v219q-15 -25 -43 -44.5t-55 -33t-53 -30.5t-42 -45t-16 -68q0 -46 27 -73t72 -27q49 0 79.5 30t30.5 72z" />
    <glyph glyph-name="aring" unicode="&#xe5;" horiz-adv-x="509" 
d="M255 776q39 0 66.5 -27.5t27.5 -66.5t-27.5 -66t-66.5 -27t-66 27t-27 66t27 66.5t66 27.5zM255 773q-37 0 -57 -26t-20 -65t20 -64.5t57 -25.5t57.5 25.5t20.5 64.5t-20.5 65t-57.5 26zM501 70h3q-2 -28 -23.5 -54t-60.5 -26q-77 0 -84 96q-17 -38 -59.5 -67t-97.5 -29
q-56 0 -95 32.5t-39 88.5q0 52 31 84t75 47l88 30t75 47.5t31 85.5q0 109 -132 109q-58 0 -95.5 -31.5t-37.5 -53.5q0 -5 5 -5q1 0 5 2t11 4t14 2q20 0 35 -14t15 -37q0 -21 -14.5 -36t-38.5 -15q-22 0 -36.5 16t-14.5 41q0 50 46 91t121 41q86 0 135 -53t49 -141v-255
q0 -23 12 -35t30 -12q19 0 32 13t15 34zM335 120v219q-15 -25 -43 -44.5t-55 -33t-53 -30.5t-42 -45t-16 -68q0 -46 27 -73t72 -27q49 0 79.5 30t30.5 72z" />
    <glyph glyph-name="ae" unicode="&#xe6;" horiz-adv-x="767" 
d="M552 520q76 0 124.5 -36.5t48.5 -94.5q0 -49 -31 -79t-75.5 -44.5t-89.5 -28t-76 -41.5t-31 -73q0 -54 40.5 -91t107.5 -37q58 0 98 31.5t40 53.5q0 5 -5 5q-1 0 -5 -2t-11 -4t-14 -2q-20 0 -35 13.5t-15 37.5q0 22 14.5 36.5t38.5 14.5q22 0 36.5 -16t14.5 -41
q0 -49 -48 -90.5t-124 -41.5q-63 0 -117.5 33.5t-83.5 91.5q-13 -53 -57.5 -89t-117.5 -36q-56 0 -95 32.5t-39 88.5q0 52 31 84t75 47l88 30t75 47.5t31 85.5q0 109 -132 109q-58 0 -95.5 -31.5t-37.5 -53.5q0 -5 5 -5q1 0 5 2t11 4t14 2q20 0 35 -14t15 -37
q0 -21 -14.5 -36t-38.5 -15q-22 0 -36.5 16t-14.5 41q0 50 46 91t121 41q107 0 155 -82q65 83 169 83zM552 517q-68 0 -107 -77t-39 -192q0 -56 10 -99q8 28 34.5 49.5t58.5 36.5t63 33t51.5 48t20.5 72q0 57 -24.5 93t-67.5 36zM333 337q-18 -29 -56 -52.5t-69.5 -38
t-56.5 -47.5t-25 -81q0 -46 28 -73.5t73 -27.5q53 0 84.5 28t31.5 79q0 16 -10 49.5t-10 79.5q0 45 10 84z" />
    <glyph glyph-name="ccedilla" unicode="&#xe7;" horiz-adv-x="471" 
d="M437 121h4q-6 -59 -51 -95t-119 -36q-98 0 -162 76t-64 187q0 110 68 188.5t168 78.5q76 0 116.5 -37.5t40.5 -87.5q0 -25 -14.5 -42.5t-36.5 -17.5q-23 0 -38 14.5t-15 36.5q0 24 15 37.5t35 13.5q7 0 14 -2t11 -4t5 -2q5 0 5 5q0 23 -32.5 52t-90.5 29q-78 0 -123 -69
t-45 -188q0 -111 49 -182.5t129 -71.5q49 0 86.5 31.5t44.5 85.5zM276 -10l-73 -68q21 15 63 15q39 0 63.5 -14.5t24.5 -43.5q0 -30 -27.5 -49.5t-68.5 -19.5q-38 0 -60 15.5t-22 33.5q0 8 6 14.5t14 6.5q9 0 15 -5.5t6 -13.5t-6 -13t-13 -5q-5 0 -10 3l-2 1q-2 0 -2 -2
q0 -5 7 -12t22.5 -13.5t35.5 -6.5q39 0 60 17t21 46q0 58 -74 58q-17 0 -30 -4t-18 -8l-5 -3h-6l76 71h3z" />
    <glyph glyph-name="egrave" unicode="&#xe8;" horiz-adv-x="489" 
d="M371 631l-1 -3q-35 16 -70 30.5t-68.5 27t-48.5 18.5q-12 4 -12 12q0 9 9 9q4 0 10 -2q20 -9 79 -41t102 -51zM274 520q76 0 124.5 -36.5t48.5 -94.5q0 -49 -31 -79t-75.5 -44.5t-89.5 -28t-76 -41.5t-31 -73q0 -54 40.5 -91t107.5 -37q58 0 98 31.5t40 53.5q0 5 -5 5
q-1 0 -5 -2t-11 -4t-14 -2q-20 0 -35 13.5t-15 37.5q0 22 14.5 36.5t38.5 14.5q22 0 36.5 -16t14.5 -41q0 -49 -48 -90.5t-124 -41.5q-100 0 -166 76t-66 187t65.5 189t163.5 78zM274 517q-68 0 -107 -77t-39 -192q0 -56 10 -99q8 28 34.5 49.5t58.5 36.5t63 33t51.5 48
t20.5 72q0 57 -24.5 93t-67.5 36z" />
    <glyph glyph-name="eacute" unicode="&#xe9;" horiz-adv-x="489" 
d="M172 628l-1 3q43 19 102 51t79 41q6 2 10 2q9 0 9 -9q0 -8 -12 -12q-15 -6 -48.5 -18.5t-68.5 -27t-70 -30.5zM274 520q76 0 124.5 -36.5t48.5 -94.5q0 -49 -31 -79t-75.5 -44.5t-89.5 -28t-76 -41.5t-31 -73q0 -54 40.5 -91t107.5 -37q58 0 98 31.5t40 53.5q0 5 -5 5
q-1 0 -5 -2t-11 -4t-14 -2q-20 0 -35 13.5t-15 37.5q0 22 14.5 36.5t38.5 14.5q22 0 36.5 -16t14.5 -41q0 -49 -48 -90.5t-124 -41.5q-100 0 -166 76t-66 187t65.5 189t163.5 78zM274 517q-68 0 -107 -77t-39 -192q0 -56 10 -99q8 28 34.5 49.5t58.5 36.5t63 33t51.5 48
t20.5 72q0 57 -24.5 93t-67.5 36z" />
    <glyph glyph-name="ecircumflex" unicode="&#xea;" horiz-adv-x="489" 
d="M153 625l-1 4q37 31 64.5 59t44.5 42q4 4 10 4q7 0 10 -4q15 -12 43.5 -41t65.5 -60l-1 -4l-118 89zM274 520q76 0 124.5 -36.5t48.5 -94.5q0 -49 -31 -79t-75.5 -44.5t-89.5 -28t-76 -41.5t-31 -73q0 -54 40.5 -91t107.5 -37q58 0 98 31.5t40 53.5q0 5 -5 5q-1 0 -5 -2
t-11 -4t-14 -2q-20 0 -35 13.5t-15 37.5q0 22 14.5 36.5t38.5 14.5q22 0 36.5 -16t14.5 -41q0 -49 -48 -90.5t-124 -41.5q-100 0 -166 76t-66 187t65.5 189t163.5 78zM274 517q-68 0 -107 -77t-39 -192q0 -56 10 -99q8 28 34.5 49.5t58.5 36.5t63 33t51.5 48t20.5 72
q0 57 -24.5 93t-67.5 36z" />
    <glyph glyph-name="edieresis" unicode="&#xeb;" horiz-adv-x="489" 
d="M191 705q22 0 35.5 -14t13.5 -37q0 -22 -14.5 -36.5t-34.5 -14.5q-21 0 -34.5 14t-13.5 36t14 37t34 15zM350 705q22 0 35.5 -14t13.5 -37q0 -22 -14.5 -36.5t-34.5 -14.5q-21 0 -34.5 14t-13.5 36t14 37t34 15zM274 520q76 0 124.5 -36.5t48.5 -94.5q0 -49 -31 -79
t-75.5 -44.5t-89.5 -28t-76 -41.5t-31 -73q0 -54 40.5 -91t107.5 -37q58 0 98 31.5t40 53.5q0 5 -5 5q-1 0 -5 -2t-11 -4t-14 -2q-20 0 -35 13.5t-15 37.5q0 22 14.5 36.5t38.5 14.5q22 0 36.5 -16t14.5 -41q0 -49 -48 -90.5t-124 -41.5q-100 0 -166 76t-66 187t65.5 189
t163.5 78zM274 517q-68 0 -107 -77t-39 -192q0 -56 10 -99q8 28 34.5 49.5t58.5 36.5t63 33t51.5 48t20.5 72q0 57 -24.5 93t-67.5 36z" />
    <glyph glyph-name="igrave" unicode="&#xec;" horiz-adv-x="222" 
d="M219 631l-1 -3q-35 16 -70 30.5t-68.5 27t-48.5 18.5q-12 4 -12 12q0 9 9 9q4 0 10 -2q20 -9 79 -41t102 -51zM217 3v-3h-202v3h63v501h-63v3h140v-504h62z" />
    <glyph glyph-name="iacute" unicode="&#xed;" horiz-adv-x="222" 
d="M20 628l-1 3q43 19 102 51t79 41q6 2 10 2q9 0 9 -9q0 -8 -12 -12q-15 -6 -48.5 -18.5t-68.5 -27t-70 -30.5zM217 3v-3h-202v3h63v501h-63v3h140v-504h62z" />
    <glyph glyph-name="icircumflex" unicode="&#xee;" horiz-adv-x="222" 
d="M1 625l-1 4q37 31 64.5 59t44.5 42q4 4 10 4q7 0 10 -4q15 -12 43.5 -41t65.5 -60l-1 -4l-118 89zM217 3v-3h-202v3h63v501h-63v3h140v-504h62z" />
    <glyph glyph-name="idieresis" unicode="&#xef;" horiz-adv-x="222" 
d="M39 705q22 0 35.5 -14t13.5 -37q0 -22 -14.5 -36.5t-34.5 -14.5q-21 0 -34.5 14t-13.5 36t14 37t34 15zM198 705q22 0 35.5 -14t13.5 -37q0 -22 -14.5 -36.5t-34.5 -14.5q-21 0 -34.5 14t-13.5 36t14 37t34 15zM217 3v-3h-202v3h63v501h-63v3h140v-504h62z" />
    <glyph glyph-name="eth" unicode="&#xf0;" horiz-adv-x="547" 
d="M449 675l-117 -58q77 -63 123.5 -154t46.5 -199q0 -126 -63.5 -200t-166.5 -74q-101 0 -164 71t-63 178q0 108 65 184.5t161 76.5q85 0 130 -68q-30 104 -91 174l-124 -61v5l121 60q-60 68 -132 88v4q83 -24 153 -82l121 60v-5zM286 -5q65 0 100 70.5t35 192.5
q0 54 -5.5 93t-19.5 72t-41 49.5t-67 16.5q-76 0 -118 -67.5t-42 -177.5t41 -179.5t117 -69.5z" />
    <glyph glyph-name="ntilde" unicode="&#xf1;" horiz-adv-x="536" 
d="M94 649h-3q18 41 40 60t58 19q32 0 77 -35.5t85 -35.5q58 0 87 64h3q-18 -41 -40 -60t-58 -19q-29 0 -52.5 11t-37.5 24.5t-33 24.5t-39 11q-58 0 -87 -64zM155 507v-96q15 42 56.5 74t98.5 32q72 0 109 -50.5t37 -139.5v-257q0 -23 12.5 -35t30.5 -12q17 0 30 13t14 34
h3q-2 -28 -24 -54t-62 -26q-39 0 -60.5 29t-21.5 82v297q0 50 -26.5 77t-72.5 27q-54 0 -89 -42.5t-35 -96.5v-360h62v-3h-202v3h63v501h-63v3h140z" />
    <glyph glyph-name="ograve" unicode="&#xf2;" horiz-adv-x="557" 
d="M378 631l-1 -3q-35 16 -70 30.5t-68.5 27t-48.5 18.5q-12 4 -12 12q0 9 9 9q4 0 10 -2q20 -9 79 -41t102 -51zM281 518q99 0 165 -75t66 -185t-69.5 -188.5t-166.5 -78.5q-99 0 -165 75.5t-66 185.5t69.5 188t166.5 78zM281 514q-75 0 -114 -71t-39 -186t38.5 -188.5
t109.5 -73.5q75 0 114 71t39 187q0 115 -38.5 188t-109.5 73z" />
    <glyph glyph-name="oacute" unicode="&#xf3;" horiz-adv-x="557" 
d="M179 628l-1 3q43 19 102 51t79 41q6 2 10 2q9 0 9 -9q0 -8 -12 -12q-15 -6 -48.5 -18.5t-68.5 -27t-70 -30.5zM281 518q99 0 165 -75t66 -185t-69.5 -188.5t-166.5 -78.5q-99 0 -165 75.5t-66 185.5t69.5 188t166.5 78zM281 514q-75 0 -114 -71t-39 -186t38.5 -188.5
t109.5 -73.5q75 0 114 71t39 187q0 115 -38.5 188t-109.5 73z" />
    <glyph glyph-name="ocircumflex" unicode="&#xf4;" horiz-adv-x="557" 
d="M160 625l-1 4q37 31 64.5 59t44.5 42q4 4 10 4q7 0 10 -4q15 -12 43.5 -41t65.5 -60l-1 -4l-118 89zM281 518q99 0 165 -75t66 -185t-69.5 -188.5t-166.5 -78.5q-99 0 -165 75.5t-66 185.5t69.5 188t166.5 78zM281 514q-75 0 -114 -71t-39 -186t38.5 -188.5t109.5 -73.5
q75 0 114 71t39 187q0 115 -38.5 188t-109.5 73z" />
    <glyph glyph-name="otilde" unicode="&#xf5;" horiz-adv-x="557" 
d="M106 649h-3q18 41 40 60t58 19q32 0 77 -35.5t85 -35.5q58 0 87 64h3q-18 -41 -40 -60t-58 -19q-29 0 -52.5 11t-37.5 24.5t-33 24.5t-39 11q-58 0 -87 -64zM281 518q99 0 165 -75t66 -185t-69.5 -188.5t-166.5 -78.5q-99 0 -165 75.5t-66 185.5t69.5 188t166.5 78z
M281 514q-75 0 -114 -71t-39 -186t38.5 -188.5t109.5 -73.5q75 0 114 71t39 187q0 115 -38.5 188t-109.5 73z" />
    <glyph glyph-name="odieresis" unicode="&#xf6;" horiz-adv-x="557" 
d="M198 705q22 0 35.5 -14t13.5 -37q0 -22 -14.5 -36.5t-34.5 -14.5q-21 0 -34.5 14t-13.5 36t14 37t34 15zM357 705q22 0 35.5 -14t13.5 -37q0 -22 -14.5 -36.5t-34.5 -14.5q-21 0 -34.5 14t-13.5 36t14 37t34 15zM281 518q99 0 165 -75t66 -185t-69.5 -188.5t-166.5 -78.5
q-99 0 -165 75.5t-66 185.5t69.5 188t166.5 78zM281 514q-75 0 -114 -71t-39 -186t38.5 -188.5t109.5 -73.5q75 0 114 71t39 187q0 115 -38.5 188t-109.5 73z" />
    <glyph glyph-name="divide" unicode="&#xf7;" 
d="M250 453q8 0 14 -6t6 -14t-6 -13.5t-14 -5.5q-19 0 -19 19q0 8 5.5 14t13.5 6zM50 261v3q65 0 118.5 2.5t81.5 2.5q24 0 78 -2.5t122 -2.5v-3q-68 0 -122 -2.5t-78 -2.5q-28 0 -81.5 2.5t-118.5 2.5zM250 111q8 0 14 -6t6 -14t-6 -13.5t-14 -5.5q-19 0 -19 19q0 8 5.5 14
t13.5 6z" />
    <glyph glyph-name="oslash" unicode="&#xf8;" horiz-adv-x="557" 
d="M462 579l-55 -101q49 -34 77 -92t28 -128q0 -110 -69.5 -188.5t-166.5 -78.5q-67 0 -120 36l-52 -91h-2l51 93q-50 34 -79 93t-29 130q0 110 69.5 188t166.5 78q68 0 123 -38l56 99h2zM128 257q0 -125 43 -196q18 34 52.5 99t52.5 97q17 31 54 94.5t56 97.5
q-38 65 -105 65q-75 0 -114 -71t-39 -186zM276 -5q75 0 114 71t39 187q0 121 -40 192q-16 -30 -49 -93.5t-51 -94.5q-18 -32 -57 -98.5t-59 -101.5q38 -62 103 -62z" />
    <glyph glyph-name="ugrave" unicode="&#xf9;" horiz-adv-x="542" 
d="M348 631l-1 -3q-35 16 -70 30.5t-68.5 27t-48.5 18.5q-12 4 -12 12q0 9 9 9q4 0 10 -2q20 -9 79 -41t102 -51zM-7 437h-3q2 28 24 54t62 26q39 0 60.5 -29t21.5 -82v-297q0 -50 26.5 -77t72.5 -27q55 0 89.5 40t34.5 94v365h-62v3h138v-437q0 -23 12.5 -35t30.5 -12
q17 0 30 13t14 34h3q-2 -28 -24 -54t-62 -26q-33 0 -54.5 27.5t-25.5 73.5q-15 -41 -56.5 -71t-98.5 -30q-72 0 -109 50.5t-37 139.5v257q0 23 -12.5 35t-30.5 12q-17 0 -30 -13t-14 -34z" />
    <glyph glyph-name="uacute" unicode="&#xfa;" horiz-adv-x="542" 
d="M149 628l-1 3q43 19 102 51t79 41q6 2 10 2q9 0 9 -9q0 -8 -12 -12q-15 -6 -48.5 -18.5t-68.5 -27t-70 -30.5zM-7 437h-3q2 28 24 54t62 26q39 0 60.5 -29t21.5 -82v-297q0 -50 26.5 -77t72.5 -27q55 0 89.5 40t34.5 94v365h-62v3h138v-437q0 -23 12.5 -35t30.5 -12
q17 0 30 13t14 34h3q-2 -28 -24 -54t-62 -26q-33 0 -54.5 27.5t-25.5 73.5q-15 -41 -56.5 -71t-98.5 -30q-72 0 -109 50.5t-37 139.5v257q0 23 -12.5 35t-30.5 12q-17 0 -30 -13t-14 -34z" />
    <glyph glyph-name="ucircumflex" unicode="&#xfb;" horiz-adv-x="542" 
d="M130 625l-1 4q37 31 64.5 59t44.5 42q4 4 10 4q7 0 10 -4q15 -12 43.5 -41t65.5 -60l-1 -4l-118 89zM-7 437h-3q2 28 24 54t62 26q39 0 60.5 -29t21.5 -82v-297q0 -50 26.5 -77t72.5 -27q55 0 89.5 40t34.5 94v365h-62v3h138v-437q0 -23 12.5 -35t30.5 -12q17 0 30 13
t14 34h3q-2 -28 -24 -54t-62 -26q-33 0 -54.5 27.5t-25.5 73.5q-15 -41 -56.5 -71t-98.5 -30q-72 0 -109 50.5t-37 139.5v257q0 23 -12.5 35t-30.5 12q-17 0 -30 -13t-14 -34z" />
    <glyph glyph-name="udieresis" unicode="&#xfc;" horiz-adv-x="542" 
d="M168 705q22 0 35.5 -14t13.5 -37q0 -22 -14.5 -36.5t-34.5 -14.5q-21 0 -34.5 14t-13.5 36t14 37t34 15zM327 705q22 0 35.5 -14t13.5 -37q0 -22 -14.5 -36.5t-34.5 -14.5q-21 0 -34.5 14t-13.5 36t14 37t34 15zM-7 437h-3q2 28 24 54t62 26q39 0 60.5 -29t21.5 -82v-297
q0 -50 26.5 -77t72.5 -27q55 0 89.5 40t34.5 94v365h-62v3h138v-437q0 -23 12.5 -35t30.5 -12q17 0 30 13t14 34h3q-2 -28 -24 -54t-62 -26q-33 0 -54.5 27.5t-25.5 73.5q-15 -41 -56.5 -71t-98.5 -30q-72 0 -109 50.5t-37 139.5v257q0 23 -12.5 35t-30.5 12q-17 0 -30 -13
t-14 -34z" />
    <glyph glyph-name="yacute" unicode="&#xfd;" horiz-adv-x="514" 
d="M181 628l-1 3q43 19 102 51t79 41q6 2 10 2q9 0 9 -9q0 -8 -12 -12q-15 -6 -48.5 -18.5t-68.5 -27t-70 -30.5zM135 504l168 -368q11 17 41 64t42.5 68.5t31.5 56.5t26.5 60t7.5 46q0 11 -9 11q-2 0 -13 -4t-21 -4q-20 0 -35.5 14.5t-15.5 38.5q0 22 14.5 37t37.5 15
q26 0 42.5 -19t16.5 -48q0 -44 -25.5 -102.5t-62 -116t-73 -114t-62 -110.5t-25.5 -90q0 -10 9 -10q2 0 13 4t21 4q20 0 35.5 -14.5t15.5 -38.5q0 -22 -14.5 -37t-37.5 -15q-26 0 -42.5 19t-16.5 48q0 62 56 165l-204 440h-56v3h204v-3h-69z" />
    <glyph glyph-name="thorn" unicode="&#xfe;" horiz-adv-x="548" 
d="M140 700v-270q17 40 55.5 65t90.5 25q98 0 157.5 -71.5t59.5 -182.5t-65 -188.5t-161 -77.5q-48 0 -84 22.5t-53 59.5v-225h62v-3h-202v3h63v840h-63v3h140zM140 378v-244q0 -57 33.5 -90t86.5 -33q76 0 118 68.5t42 181.5q0 111 -41 178t-114 67q-57 0 -91 -34.5
t-34 -93.5z" />
    <glyph glyph-name="ydieresis" unicode="&#xff;" horiz-adv-x="514" 
d="M200 705q22 0 35.5 -14t13.5 -37q0 -22 -14.5 -36.5t-34.5 -14.5q-21 0 -34.5 14t-13.5 36t14 37t34 15zM359 705q22 0 35.5 -14t13.5 -37q0 -22 -14.5 -36.5t-34.5 -14.5q-21 0 -34.5 14t-13.5 36t14 37t34 15zM135 504l168 -368q11 17 41 64t42.5 68.5t31.5 56.5
t26.5 60t7.5 46q0 11 -9 11q-2 0 -13 -4t-21 -4q-20 0 -35.5 14.5t-15.5 38.5q0 22 14.5 37t37.5 15q26 0 42.5 -19t16.5 -48q0 -44 -25.5 -102.5t-62 -116t-73 -114t-62 -110.5t-25.5 -90q0 -10 9 -10q2 0 13 4t21 4q20 0 35.5 -14.5t15.5 -38.5q0 -22 -14.5 -37t-37.5 -15
q-26 0 -42.5 19t-16.5 48q0 62 56 165l-204 440h-56v3h204v-3h-69z" />
    <glyph glyph-name="Amacron" unicode="&#x100;" horiz-adv-x="675" 
d="M183 822v3q49 0 87.5 2.5t59.5 2.5q18 0 58.5 -2.5t91.5 -2.5v-3q-51 0 -91.5 -2.5t-58.5 -2.5q-21 0 -59.5 2.5t-87.5 2.5zM675 3v-3h-210v3h66l-116 297h-247l-68 -188q-10 -28 -10 -47q0 -62 73 -62h7v-3h-170v3h4q32 0 52.5 28.5t39.5 81.5l214 587h37l272 -697h56z
M414 303l-126 325l-119 -325h245z" />
    <glyph glyph-name="amacron" unicode="&#x101;" horiz-adv-x="509" 
d="M107 669v3q49 0 87.5 2.5t59.5 2.5q18 0 58.5 -2.5t91.5 -2.5v-3q-51 0 -91.5 -2.5t-58.5 -2.5q-21 0 -59.5 2.5t-87.5 2.5zM501 70h3q-2 -28 -23.5 -54t-60.5 -26q-77 0 -84 96q-17 -38 -59.5 -67t-97.5 -29q-56 0 -95 32.5t-39 88.5q0 52 31 84t75 47l88 30t75 47.5
t31 85.5q0 109 -132 109q-58 0 -95.5 -31.5t-37.5 -53.5q0 -5 5 -5q1 0 5 2t11 4t14 2q20 0 35 -14t15 -37q0 -21 -14.5 -36t-38.5 -15q-22 0 -36.5 16t-14.5 41q0 50 46 91t121 41q86 0 135 -53t49 -141v-255q0 -23 12 -35t30 -12q19 0 32 13t15 34zM335 120v219
q-15 -25 -43 -44.5t-55 -33t-53 -30.5t-42 -45t-16 -68q0 -46 27 -73t72 -27q49 0 79.5 30t30.5 72z" />
    <glyph glyph-name="Abreve" unicode="&#x102;" horiz-adv-x="675" 
d="M485 882h3q-42 -99 -156 -99t-156 99h3q37 -85 153 -85t153 85zM675 3v-3h-210v3h66l-116 297h-247l-68 -188q-10 -28 -10 -47q0 -62 73 -62h7v-3h-170v3h4q32 0 52.5 28.5t39.5 81.5l214 587h37l272 -697h56zM414 303l-126 325l-119 -325h245z" />
    <glyph glyph-name="abreve" unicode="&#x103;" horiz-adv-x="509" 
d="M409 729h3q-42 -99 -156 -99t-156 99h3q37 -85 153 -85t153 85zM501 70h3q-2 -28 -23.5 -54t-60.5 -26q-77 0 -84 96q-17 -38 -59.5 -67t-97.5 -29q-56 0 -95 32.5t-39 88.5q0 52 31 84t75 47l88 30t75 47.5t31 85.5q0 109 -132 109q-58 0 -95.5 -31.5t-37.5 -53.5
q0 -5 5 -5q1 0 5 2t11 4t14 2q20 0 35 -14t15 -37q0 -21 -14.5 -36t-38.5 -15q-22 0 -36.5 16t-14.5 41q0 50 46 91t121 41q86 0 135 -53t49 -141v-255q0 -23 12 -35t30 -12q19 0 32 13t15 34zM335 120v219q-15 -25 -43 -44.5t-55 -33t-53 -30.5t-42 -45t-16 -68
q0 -46 27 -73t72 -27q49 0 79.5 30t30.5 72z" />
    <glyph glyph-name="Aogonek" unicode="&#x104;" horiz-adv-x="675" 
d="M675 0h-60l-10 -2.5t-21.5 -8.5t-27.5 -16.5t-22 -27.5t-10 -40q0 -75 95 -75q23 0 41.5 7.5t26.5 16t8 14.5q0 3 -2 3l-2 -1q-2 -2 -5 -3t-7 -1q-9 0 -15.5 6t-6.5 15t7 16t18 7q9 0 15.5 -8t6.5 -17q0 -21 -25.5 -39.5t-69.5 -18.5q-48 0 -77.5 20.5t-29.5 56.5
q0 22 10.5 40t26 28t31 16.5t26.5 9.5l10 2h-141v3h66l-116 297h-247l-68 -188q-10 -28 -10 -47q0 -62 73 -62h7v-3h-170v3h4q32 0 52.5 28.5t39.5 81.5l214 587h37l272 -697h56v-3zM414 303l-126 325l-119 -325h245z" />
    <glyph glyph-name="aogonek" unicode="&#x105;" horiz-adv-x="509" 
d="M461 0h-1q-16 -8 -27 -9q-63 -28 -63 -86q0 -75 95 -75q23 0 41.5 7.5t26.5 16t8 14.5q0 3 -2 3l-2 -1q-2 -2 -5 -3t-7 -1q-9 0 -15.5 6t-6.5 15t7 16t18 7q9 0 15.5 -8t6.5 -17q0 -21 -25.5 -39.5t-69.5 -18.5q-48 0 -77.5 20.5t-29.5 56.5q0 59 71 86q-76 1 -83 96
q-17 -38 -59.5 -67t-97.5 -29q-56 0 -95 32.5t-39 88.5q0 52 31 84t75 47l88 30t75 47.5t31 85.5q0 109 -132 109q-58 0 -95.5 -31.5t-37.5 -53.5q0 -5 5 -5q1 0 5 2t11 4t14 2q20 0 35 -14t15 -37q0 -21 -14.5 -36t-38.5 -15q-22 0 -36.5 16t-14.5 41q0 50 46 91t121 41
q86 0 135 -53t49 -141v-255q0 -23 12 -35t30 -12q19 0 32 13t15 34h3q-1 -18 -12 -38t-31 -32zM335 120v219q-15 -25 -43 -44.5t-55 -33t-53 -30.5t-42 -45t-16 -68q0 -46 27 -73t72 -27q49 0 79.5 30t30.5 72z" />
    <glyph glyph-name="Cacute" unicode="&#x106;" horiz-adv-x="581" 
d="M244 781l-1 3q43 19 102 51t79 41q6 2 10 2q9 0 9 -9q0 -8 -12 -12q-15 -6 -48.5 -18.5t-68.5 -27t-70 -30.5zM542 167h4q-9 -80 -66.5 -128.5t-157.5 -48.5q-128 0 -210 103t-82 253q0 156 88.5 260t224.5 104q48 0 93.5 -18.5t65.5 -18.5q16 0 25.5 10t9.5 27h3v-209
h-3q-21 100 -64 152.5t-130 52.5q-113 0 -167.5 -98t-54.5 -256q0 -150 67 -247t176 -97q71 0 120 42t58 117z" />
    <glyph glyph-name="cacute" unicode="&#x107;" horiz-adv-x="471" 
d="M181 628l-1 3q43 19 102 51t79 41q6 2 10 2q9 0 9 -9q0 -8 -12 -12q-15 -6 -48.5 -18.5t-68.5 -27t-70 -30.5zM437 121h4q-6 -59 -51 -95t-119 -36q-98 0 -162 76t-64 187q0 110 68 188.5t168 78.5q76 0 116.5 -37.5t40.5 -87.5q0 -25 -14.5 -42.5t-36.5 -17.5
q-23 0 -38 14.5t-15 36.5q0 24 15 37.5t35 13.5q7 0 14 -2t11 -4t5 -2q5 0 5 5q0 23 -32.5 52t-90.5 29q-78 0 -123 -69t-45 -188q0 -111 49 -182.5t129 -71.5q49 0 86.5 31.5t44.5 85.5z" />
    <glyph glyph-name="Cdotaccent" unicode="&#x10a;" horiz-adv-x="581" 
d="M342 858q22 0 35.5 -14t13.5 -37q0 -22 -14.5 -36.5t-34.5 -14.5q-21 0 -34.5 14t-13.5 36t14 37t34 15zM542 167h4q-9 -80 -66.5 -128.5t-157.5 -48.5q-128 0 -210 103t-82 253q0 156 88.5 260t224.5 104q48 0 93.5 -18.5t65.5 -18.5q16 0 25.5 10t9.5 27h3v-209h-3
q-21 100 -64 152.5t-130 52.5q-113 0 -167.5 -98t-54.5 -256q0 -150 67 -247t176 -97q71 0 120 42t58 117z" />
    <glyph glyph-name="cdotaccent" unicode="&#x10b;" horiz-adv-x="471" 
d="M279 705q22 0 35.5 -14t13.5 -37q0 -22 -14.5 -36.5t-34.5 -14.5q-21 0 -34.5 14t-13.5 36t14 37t34 15zM437 121h4q-6 -59 -51 -95t-119 -36q-98 0 -162 76t-64 187q0 110 68 188.5t168 78.5q76 0 116.5 -37.5t40.5 -87.5q0 -25 -14.5 -42.5t-36.5 -17.5q-23 0 -38 14.5
t-15 36.5q0 24 15 37.5t35 13.5q7 0 14 -2t11 -4t5 -2q5 0 5 5q0 23 -32.5 52t-90.5 29q-78 0 -123 -69t-45 -188q0 -111 49 -182.5t129 -71.5q49 0 86.5 31.5t44.5 85.5z" />
    <glyph glyph-name="Ccaron" unicode="&#x10c;" horiz-adv-x="581" 
d="M462 894v-3q-37 -31 -65.5 -60t-43.5 -41q-4 -4 -10 -4q-4 0 -10 4q-17 14 -44.5 42t-64.5 59v3l119 -88zM542 167h4q-9 -80 -66.5 -128.5t-157.5 -48.5q-128 0 -210 103t-82 253q0 156 88.5 260t224.5 104q48 0 93.5 -18.5t65.5 -18.5q16 0 25.5 10t9.5 27h3v-209h-3
q-21 100 -64 152.5t-130 52.5q-113 0 -167.5 -98t-54.5 -256q0 -150 67 -247t176 -97q71 0 120 42t58 117z" />
    <glyph glyph-name="ccaron" unicode="&#x10d;" horiz-adv-x="471" 
d="M399 741v-3q-37 -31 -65.5 -60t-43.5 -41q-4 -4 -10 -4q-4 0 -10 4q-17 14 -44.5 42t-64.5 59v3l119 -88zM437 121h4q-6 -59 -51 -95t-119 -36q-98 0 -162 76t-64 187q0 110 68 188.5t168 78.5q76 0 116.5 -37.5t40.5 -87.5q0 -25 -14.5 -42.5t-36.5 -17.5
q-23 0 -38 14.5t-15 36.5q0 24 15 37.5t35 13.5q7 0 14 -2t11 -4t5 -2q5 0 5 5q0 23 -32.5 52t-90.5 29q-78 0 -123 -69t-45 -188q0 -111 49 -182.5t129 -71.5q49 0 86.5 31.5t44.5 85.5z" />
    <glyph glyph-name="Dcaron" unicode="&#x10e;" horiz-adv-x="637" 
d="M408 894v-3q-37 -31 -65.5 -60t-43.5 -41q-4 -4 -10 -4q-4 0 -10 4q-17 14 -44.5 42t-64.5 59v3l119 -88zM20 700h252q155 0 245 -95t90 -251q0 -154 -95.5 -254t-239.5 -100h-252v3h63v694h-63v3zM165 3h99q121 0 186.5 96t65.5 249q0 147 -69 248t-184 101h-98v-694z
" />
    <glyph glyph-name="dcaron" unicode="&#x10f;" horiz-adv-x="610" 
d="M530 525v3q36 11 54.5 38t18.5 48q0 5 -5 5l-10 -4q-9 -4 -17 -4q-18 0 -32 13t-14 34q0 20 12.5 33.5t33.5 13.5q22 0 35.5 -16t13.5 -39q0 -38 -23.5 -75.5t-66.5 -49.5zM482 700v-630q0 -23 12.5 -35t30.5 -12q17 0 30 13t14 34h3q-2 -28 -24 -54t-62 -26
q-69 0 -78 90q-17 -40 -55.5 -65t-90.5 -25q-98 0 -157.5 73.5t-59.5 185.5t65 191.5t161 79.5q48 0 84 -22.5t53 -59.5v259h-65v3h139zM408 132v254q0 57 -33.5 90t-86.5 33q-76 0 -118 -70.5t-42 -184.5q0 -112 41 -181t114 -69q57 0 91 34.5t34 93.5z" />
    <glyph glyph-name="Dcroat" unicode="&#x110;" horiz-adv-x="637" 
d="M20 700h252q155 0 245 -95t90 -251q0 -154 -95.5 -254t-239.5 -100h-252v3h63v343h-61v3h61v348h-63v3zM165 3h99q121 0 186.5 96t65.5 249q0 147 -69 248t-184 101h-98v-348h164v-3h-164v-343z" />
    <glyph glyph-name="dcroat" unicode="&#x111;" horiz-adv-x="577" 
d="M569 70h3q-2 -28 -24 -54t-62 -26q-69 0 -78 90q-17 -40 -55.5 -65t-90.5 -25q-98 0 -157.5 73.5t-59.5 185.5t65 191.5t161 79.5q48 0 84 -22.5t53 -59.5v163h-135v3h135v93h-65v3h139v-96h88v-3h-88v-531q0 -23 12.5 -35t30.5 -12q17 0 30 13t14 34zM408 132v254
q0 57 -33.5 90t-86.5 33q-76 0 -118 -70.5t-42 -184.5q0 -112 41 -181t114 -69q57 0 91 34.5t34 93.5z" />
    <glyph glyph-name="Emacron" unicode="&#x112;" horiz-adv-x="564" 
d="M129 822v3q49 0 87.5 2.5t59.5 2.5q18 0 58.5 -2.5t91.5 -2.5v-3q-51 0 -91.5 -2.5t-58.5 -2.5q-21 0 -59.5 2.5t-87.5 2.5zM494 526h-2q-16 95 -53 133t-123 38h-151v-345h96q66 0 96.5 27t37.5 81h3v-219h-3q-7 54 -37.5 81t-96.5 27h-96v-346h161q86 0 123 38t53 133
h2v-174h-484v3h63v694h-63v3h474v-174z" />
    <glyph glyph-name="emacron" unicode="&#x113;" horiz-adv-x="489" 
d="M122 669v3q49 0 87.5 2.5t59.5 2.5q18 0 58.5 -2.5t91.5 -2.5v-3q-51 0 -91.5 -2.5t-58.5 -2.5q-21 0 -59.5 2.5t-87.5 2.5zM274 520q76 0 124.5 -36.5t48.5 -94.5q0 -49 -31 -79t-75.5 -44.5t-89.5 -28t-76 -41.5t-31 -73q0 -54 40.5 -91t107.5 -37q58 0 98 31.5
t40 53.5q0 5 -5 5q-1 0 -5 -2t-11 -4t-14 -2q-20 0 -35 13.5t-15 37.5q0 22 14.5 36.5t38.5 14.5q22 0 36.5 -16t14.5 -41q0 -49 -48 -90.5t-124 -41.5q-100 0 -166 76t-66 187t65.5 189t163.5 78zM274 517q-68 0 -107 -77t-39 -192q0 -56 10 -99q8 28 34.5 49.5t58.5 36.5
t63 33t51.5 48t20.5 72q0 57 -24.5 93t-67.5 36z" />
    <glyph glyph-name="Edotaccent" unicode="&#x116;" horiz-adv-x="564" 
d="M277 858q22 0 35.5 -14t13.5 -37q0 -22 -14.5 -36.5t-34.5 -14.5q-21 0 -34.5 14t-13.5 36t14 37t34 15zM494 526h-2q-16 95 -53 133t-123 38h-151v-345h96q66 0 96.5 27t37.5 81h3v-219h-3q-7 54 -37.5 81t-96.5 27h-96v-346h161q86 0 123 38t53 133h2v-174h-484v3h63
v694h-63v3h474v-174z" />
    <glyph glyph-name="edotaccent" unicode="&#x117;" horiz-adv-x="489" 
d="M270 705q22 0 35.5 -14t13.5 -37q0 -22 -14.5 -36.5t-34.5 -14.5q-21 0 -34.5 14t-13.5 36t14 37t34 15zM274 520q76 0 124.5 -36.5t48.5 -94.5q0 -49 -31 -79t-75.5 -44.5t-89.5 -28t-76 -41.5t-31 -73q0 -54 40.5 -91t107.5 -37q58 0 98 31.5t40 53.5q0 5 -5 5
q-1 0 -5 -2t-11 -4t-14 -2q-20 0 -35 13.5t-15 37.5q0 22 14.5 36.5t38.5 14.5q22 0 36.5 -16t14.5 -41q0 -49 -48 -90.5t-124 -41.5q-100 0 -166 76t-66 187t65.5 189t163.5 78zM274 517q-68 0 -107 -77t-39 -192q0 -56 10 -99q8 28 34.5 49.5t58.5 36.5t63 33t51.5 48
t20.5 72q0 57 -24.5 93t-67.5 36z" />
    <glyph glyph-name="Eogonek" unicode="&#x118;" horiz-adv-x="564" 
d="M504 0h-34l-10 -2.5t-21.5 -8.5t-27.5 -16.5t-22 -27.5t-10 -40q0 -75 95 -75q23 0 41.5 7.5t26.5 16t8 14.5q0 3 -2 3l-2 -1q-2 -2 -5 -3t-7 -1q-9 0 -15.5 6t-6.5 15t7 16t18 7q9 0 15.5 -8t6.5 -17q0 -21 -25.5 -39.5t-69.5 -18.5q-48 0 -77.5 20.5t-29.5 56.5
q0 22 10.5 40t26 28t31 16.5t25.5 9.5l11 2h-441v3h63v694h-63v3h474v-174h-2q-16 95 -53 133t-123 38h-151v-345h96q66 0 96.5 27t37.5 81h3v-219h-3q-7 54 -37.5 81t-96.5 27h-96v-346h161q86 0 123 38t53 133h2v-174z" />
    <glyph glyph-name="eogonek" unicode="&#x119;" horiz-adv-x="489" 
d="M367 9l-3 -1q-20 -8 -31 -11q-57 -26 -57 -83q0 -75 95 -75q23 0 41.5 7.5t26.5 16t8 14.5q0 3 -2 3l-2 -1l-5 -2.5t-7 -1.5q-9 0 -15.5 6t-6.5 15t7 16t18 7q9 0 15.5 -8t6.5 -17q0 -21 -25.5 -39.5t-69.5 -18.5q-48 0 -77.5 20.5t-29.5 56.5q0 50 56 79q-20 -2 -33 -2
q-100 0 -166 76t-66 187t65.5 189t163.5 78q76 0 124.5 -36.5t48.5 -94.5q0 -49 -31 -79t-75.5 -44.5t-89.5 -28t-76 -41.5t-31 -73q0 -54 40.5 -91t107.5 -37q11 0 29 2l37 12l4 1q30 14 49 35.5t19 34.5q0 5 -5 5q-1 0 -5 -2t-11 -4t-14 -2q-20 0 -35 13.5t-15 37.5
q0 22 14.5 36.5t38.5 14.5q22 0 36.5 -16t14.5 -41q0 -32 -22 -63t-60 -50zM128 248q0 -56 10 -99q8 28 34.5 49.5t58.5 36.5t63 33t51.5 48t20.5 72q0 57 -24.5 93t-67.5 36q-68 0 -107 -77t-39 -192z" />
    <glyph glyph-name="Ecaron" unicode="&#x11a;" horiz-adv-x="564" 
d="M397 894v-3q-37 -31 -65.5 -60t-43.5 -41q-4 -4 -10 -4q-4 0 -10 4q-17 14 -44.5 42t-64.5 59v3l119 -88zM494 526h-2q-16 95 -53 133t-123 38h-151v-345h96q66 0 96.5 27t37.5 81h3v-219h-3q-7 54 -37.5 81t-96.5 27h-96v-346h161q86 0 123 38t53 133h2v-174h-484v3h63
v694h-63v3h474v-174z" />
    <glyph glyph-name="ecaron" unicode="&#x11b;" horiz-adv-x="489" 
d="M390 741v-3q-37 -31 -65.5 -60t-43.5 -41q-4 -4 -10 -4q-4 0 -10 4q-17 14 -44.5 42t-64.5 59v3l119 -88zM274 520q76 0 124.5 -36.5t48.5 -94.5q0 -49 -31 -79t-75.5 -44.5t-89.5 -28t-76 -41.5t-31 -73q0 -54 40.5 -91t107.5 -37q58 0 98 31.5t40 53.5q0 5 -5 5
q-1 0 -5 -2t-11 -4t-14 -2q-20 0 -35 13.5t-15 37.5q0 22 14.5 36.5t38.5 14.5q22 0 36.5 -16t14.5 -41q0 -49 -48 -90.5t-124 -41.5q-100 0 -166 76t-66 187t65.5 189t163.5 78zM274 517q-68 0 -107 -77t-39 -192q0 -56 10 -99q8 28 34.5 49.5t58.5 36.5t63 33t51.5 48
t20.5 72q0 57 -24.5 93t-67.5 36z" />
    <glyph glyph-name="Gbreve" unicode="&#x11e;" horiz-adv-x="646" 
d="M496 882h3q-42 -99 -156 -99t-156 99h3q37 -85 153 -85t153 85zM564 -17v13q0 38 -8.5 55t-29.5 17t-46.5 -19.5t-62 -39t-85.5 -19.5q-129 0 -215.5 103.5t-86.5 252.5q0 156 88.5 260t224.5 104q48 0 93.5 -18.5t65.5 -18.5q16 0 25.5 10t9.5 27h3v-209h-3
q-21 100 -64 152.5t-130 52.5q-113 0 -167.5 -98t-54.5 -256q0 -101 22.5 -180.5t71 -128.5t117.5 -49q71 0 113 39t42 112v142h-74v3h213v-3h-58v-304h-4z" />
    <glyph glyph-name="gbreve" unicode="&#x11f;" horiz-adv-x="506" 
d="M403 749h3q-42 -99 -156 -99t-156 99h3q37 -85 153 -85t153 85zM393 663q23 0 39 -15t16 -39q0 -42 -32.5 -72.5t-87.5 -33.5q47 -19 73 -57.5t26 -87.5q0 -70 -53 -117.5t-133 -47.5q-21 0 -47.5 3.5t-37.5 3.5q-35 0 -60 -19t-25 -54q0 -28 18.5 -46t49.5 -18
q28 0 62.5 22.5t74.5 45.5t83 23q61 0 92 -33.5t31 -82.5q0 -80 -67.5 -132t-178.5 -52q-97 0 -149 42t-52 94q0 25 14.5 42.5t36.5 17.5q24 0 38.5 -15t14.5 -36q0 -23 -15 -37t-35 -14q-7 0 -14 2t-11 4t-5 2q-5 0 -5 -5q0 -26 43.5 -57.5t118.5 -31.5q86 0 137 46t51 115
q0 97 -95 97q-35 0 -87 -30t-83 -30q-34 0 -53 19t-19 48q0 35 25.5 56t64.5 28q-44 19 -70 57t-26 86q0 70 53 117t133 47q20 0 47 -4t45 -4q33 0 59.5 16.5t26.5 39.5q0 5 -5 5q-1 0 -5 -2t-11 -4t-14 -2q-20 0 -35 13.5t-15 36.5q0 21 14.5 35.5t38.5 14.5zM247 515
q-109 0 -109 -158q0 -72 25 -116.5t78 -44.5q109 0 109 159q0 72 -25 116t-78 44z" />
    <glyph glyph-name="Gdotaccent" unicode="&#x120;" horiz-adv-x="646" 
d="M342 858q22 0 35.5 -14t13.5 -37q0 -22 -14.5 -36.5t-34.5 -14.5q-21 0 -34.5 14t-13.5 36t14 37t34 15zM564 -17v13q0 38 -8.5 55t-29.5 17t-46.5 -19.5t-62 -39t-85.5 -19.5q-129 0 -215.5 103.5t-86.5 252.5q0 156 88.5 260t224.5 104q48 0 93.5 -18.5t65.5 -18.5
q16 0 25.5 10t9.5 27h3v-209h-3q-21 100 -64 152.5t-130 52.5q-113 0 -167.5 -98t-54.5 -256q0 -101 22.5 -180.5t71 -128.5t117.5 -49q71 0 113 39t42 112v142h-74v3h213v-3h-58v-304h-4z" />
    <glyph glyph-name="gdotaccent" unicode="&#x121;" horiz-adv-x="506" 
d="M249 725q22 0 35.5 -14t13.5 -37q0 -22 -14.5 -36.5t-34.5 -14.5q-21 0 -34.5 14t-13.5 36t14 37t34 15zM393 663q23 0 39 -15t16 -39q0 -42 -32.5 -72.5t-87.5 -33.5q47 -19 73 -57.5t26 -87.5q0 -70 -53 -117.5t-133 -47.5q-21 0 -47.5 3.5t-37.5 3.5q-35 0 -60 -19
t-25 -54q0 -28 18.5 -46t49.5 -18q28 0 62.5 22.5t74.5 45.5t83 23q61 0 92 -33.5t31 -82.5q0 -80 -67.5 -132t-178.5 -52q-97 0 -149 42t-52 94q0 25 14.5 42.5t36.5 17.5q24 0 38.5 -15t14.5 -36q0 -23 -15 -37t-35 -14q-7 0 -14 2t-11 4t-5 2q-5 0 -5 -5
q0 -26 43.5 -57.5t118.5 -31.5q86 0 137 46t51 115q0 97 -95 97q-35 0 -87 -30t-83 -30q-34 0 -53 19t-19 48q0 35 25.5 56t64.5 28q-44 19 -70 57t-26 86q0 70 53 117t133 47q20 0 47 -4t45 -4q33 0 59.5 16.5t26.5 39.5q0 5 -5 5q-1 0 -5 -2t-11 -4t-14 -2q-20 0 -35 13.5
t-15 36.5q0 21 14.5 35.5t38.5 14.5zM247 515q-109 0 -109 -158q0 -72 25 -116.5t78 -44.5q109 0 109 159q0 72 -25 116t-78 44z" />
    <glyph glyph-name="Gcommaaccent" unicode="&#x122;" horiz-adv-x="646" 
d="M564 -17v13q0 38 -8.5 55t-29.5 17t-46.5 -19.5t-62 -39t-85.5 -19.5q-129 0 -215.5 103.5t-86.5 252.5q0 156 88.5 260t224.5 104q48 0 93.5 -18.5t65.5 -18.5q16 0 25.5 10t9.5 27h3v-209h-3q-21 100 -64 152.5t-130 52.5q-113 0 -167.5 -98t-54.5 -256
q0 -101 22.5 -180.5t71 -128.5t117.5 -49q71 0 113 39t42 112v142h-74v3h213v-3h-58v-304h-4zM293 -245v4q36 11 54 37t18 47q0 5 -4 5l-9 -4q-10 -4 -18 -4q-19 0 -32.5 12.5t-13.5 34.5q0 19 13 32.5t33 13.5q23 0 36.5 -15.5t13.5 -39.5q0 -37 -24 -73.5t-67 -49.5z" />
    <glyph glyph-name="gcommaaccent" unicode="&#x123;" horiz-adv-x="506" 
d="M287 787v-3q-36 -11 -54.5 -38t-18.5 -48q0 -5 5 -5l9 4q10 4 18 4q18 0 32 -13t14 -34q0 -20 -12.5 -33.5t-33.5 -13.5q-22 0 -35.5 16t-13.5 39q0 38 23.5 75.5t66.5 49.5zM393 663q23 0 39 -15t16 -39q0 -42 -32.5 -72.5t-87.5 -33.5q47 -19 73 -57.5t26 -87.5
q0 -70 -53 -117.5t-133 -47.5q-21 0 -47.5 3.5t-37.5 3.5q-35 0 -60 -19t-25 -54q0 -28 18.5 -46t49.5 -18q28 0 62.5 22.5t74.5 45.5t83 23q61 0 92 -33.5t31 -82.5q0 -80 -67.5 -132t-178.5 -52q-97 0 -149 42t-52 94q0 25 14.5 42.5t36.5 17.5q24 0 38.5 -15t14.5 -36
q0 -23 -15 -37t-35 -14q-7 0 -14 2t-11 4t-5 2q-5 0 -5 -5q0 -26 43.5 -57.5t118.5 -31.5q86 0 137 46t51 115q0 97 -95 97q-35 0 -87 -30t-83 -30q-34 0 -53 19t-19 48q0 35 25.5 56t64.5 28q-44 19 -70 57t-26 86q0 70 53 117t133 47q20 0 47 -4t45 -4q33 0 59.5 16.5
t26.5 39.5q0 5 -5 5q-1 0 -5 -2t-11 -4t-14 -2q-20 0 -35 13.5t-15 36.5q0 21 14.5 35.5t38.5 14.5zM247 515q-109 0 -109 -158q0 -72 25 -116.5t78 -44.5q109 0 109 159q0 72 -25 116t-78 44z" />
    <glyph glyph-name="Hbar" unicode="&#x126;" horiz-adv-x="671" 
d="M589 697v-173h61v-3h-61v-518h62v-3h-207v3h63v343h-342v-343h62v-3h-207v3h63v518h-62v3h62v173h-63v3h207v-3h-62v-173h342v173h-63v3h207v-3h-62zM507 521h-342v-172h342v172z" />
    <glyph glyph-name="hbar" unicode="&#x127;" horiz-adv-x="532" 
d="M543 70h3q-2 -28 -24 -54t-62 -26q-39 0 -60.5 29t-21.5 82v297q0 50 -26.5 77t-72.5 27q-54 0 -89 -42.5t-35 -96.5v-360h62v-3h-202v3h63v598h-62v3h62v93h-63v3h140v-96h158v-3h-158v-190q15 42 56.5 74t98.5 32q72 0 109 -50.5t37 -139.5v-257q0 -23 12.5 -35
t30.5 -12q17 0 30 13t14 34z" />
    <glyph glyph-name="Imacron" unicode="&#x12a;" horiz-adv-x="247" 
d="M-25 822v3q49 0 87.5 2.5t59.5 2.5q18 0 58.5 -2.5t91.5 -2.5v-3q-51 0 -91.5 -2.5t-58.5 -2.5q-21 0 -59.5 2.5t-87.5 2.5zM165 697v-694h62v-3h-207v3h63v694h-63v3h207v-3h-62z" />
    <glyph glyph-name="imacron" unicode="&#x12b;" horiz-adv-x="222" 
d="M-30 669v3q49 0 87.5 2.5t59.5 2.5q18 0 58.5 -2.5t91.5 -2.5v-3q-51 0 -91.5 -2.5t-58.5 -2.5q-21 0 -59.5 2.5t-87.5 2.5zM217 3v-3h-202v3h63v501h-63v3h140v-504h62z" />
    <glyph glyph-name="Iogonek" unicode="&#x12e;" horiz-adv-x="247" 
d="M227 0h-42l-10 -2.5t-21.5 -8.5t-27.5 -16.5t-22 -27.5t-10 -40q0 -75 95 -75q23 0 41.5 7.5t26.5 16t8 14.5q0 3 -2 3l-2 -1q-2 -2 -5 -3t-7 -1q-9 0 -15.5 6t-6.5 15t7 16t18 7q9 0 15.5 -8t6.5 -17q0 -21 -25.5 -39.5t-69.5 -18.5q-48 0 -77.5 20.5t-29.5 56.5
q0 22 10.5 40t26 28t31 16.5t26.5 9.5l10 2h-156v3h63v694h-63v3h207v-3h-62v-694h62v-3z" />
    <glyph glyph-name="iogonek" unicode="&#x12f;" horiz-adv-x="222" 
d="M118 603q-21 0 -34.5 14t-13.5 36t14 37t34 15q22 0 35.5 -14t13.5 -37q0 -22 -14.5 -36.5t-34.5 -14.5zM217 0h-56l-10 -2.5t-21.5 -8.5t-27.5 -16.5t-22 -27.5t-10 -40q0 -75 95 -75q23 0 41.5 7.5t26.5 16t8 14.5q0 3 -2 3l-2 -1q-2 -2 -5 -3t-7 -1q-9 0 -15.5 6
t-6.5 15t7 16t18 7q9 0 15.5 -8t6.5 -17q0 -21 -25.5 -39.5t-69.5 -18.5q-48 0 -77.5 20.5t-29.5 56.5q0 22 10.5 40t26 28t31 16.5t26.5 9.5l10 2h-137v3h63v501h-63v3h140v-504h62v-3z" />
    <glyph glyph-name="Idotaccent" unicode="&#x130;" horiz-adv-x="247" 
d="M123 858q22 0 35.5 -14t13.5 -37q0 -22 -14.5 -36.5t-34.5 -14.5q-21 0 -34.5 14t-13.5 36t14 37t34 15zM165 697v-694h62v-3h-207v3h63v694h-63v3h207v-3h-62z" />
    <glyph glyph-name="dotlessi" unicode="&#x131;" horiz-adv-x="222" 
d="M155 3h62v-3h-202v3h63v501h-63v3h140v-504z" />
    <glyph glyph-name="IJ" unicode="&#x132;" horiz-adv-x="580" 
d="M165 697v-694h62v-3h-207v3h63v694h-63v3h207v-3h-62zM560 697h-62v-499q0 -91 -29 -148.5t-95 -57.5q-50 0 -78.5 30.5t-28.5 76.5q0 29 16.5 48.5t40.5 19.5q25 0 39 -15t14 -38q0 -25 -15.5 -39.5t-37.5 -14.5q-10 0 -21 4l-11 4q-5 0 -5 -5q0 -22 23 -45.5t64 -23.5
t67 25.5t26 72.5q0 39 -25.5 125.5t-25.5 175.5v304h-63v3h207v-3z" />
    <glyph glyph-name="ij" unicode="&#x133;" horiz-adv-x="438" 
d="M114 705q22 0 35.5 -14t13.5 -37q0 -22 -14.5 -36.5t-34.5 -14.5q-21 0 -34.5 14t-13.5 36t14 37t34 15zM329 705q22 0 35.5 -14t13.5 -37q0 -22 -14.5 -36.5t-34.5 -14.5q-21 0 -34.5 14t-13.5 36t14 37t34 15zM217 3v-3h-202v3h63v501h-63v3h140v-504h62zM370 507v-475
q0 -82 -34 -140.5t-94 -58.5q-40 0 -66.5 22.5t-26.5 60.5q0 27 16 45.5t38 18.5q23 0 36.5 -14t13.5 -36q0 -24 -15 -37.5t-35 -13.5q-7 0 -14 2t-11 4t-5 2q-5 0 -5 -5q0 -15 21.5 -31t52.5 -16q37 0 68 27t31 70q0 37 -24 122.5t-24 169.5v280h-63v3h140z" />
    <glyph glyph-name="jcircumflex" unicode="&#x135;" horiz-adv-x="216" 
d="M-7 625l-1 4q37 31 64.5 59t44.5 42q4 4 10 4q7 0 10 -4q15 -12 43.5 -41t65.5 -60l-1 -4l-118 89zM148 507v-475q0 -82 -34 -140.5t-94 -58.5q-40 0 -66.5 22.5t-26.5 60.5q0 27 16 45.5t38 18.5q23 0 36.5 -14t13.5 -36q0 -24 -15 -37.5t-35 -13.5q-7 0 -14 2t-11 4
t-5 2q-5 0 -5 -5q0 -15 21.5 -31t52.5 -16q37 0 68 27t31 70q0 37 -24 122.5t-24 169.5v280h-63v3h140z" />
    <glyph glyph-name="Kcommaaccent" unicode="&#x136;" horiz-adv-x="625" 
d="M580 697h-4q-22 0 -49 -18.5t-42.5 -34t-49.5 -53.5l-131 -153l264 -435h52v-3h-215v3h67l-223 370l-84 -99v-271h62v-3h-207v3h63v694h-63v3h207v-3h-62v-418l266 313q38 41 38 71q0 34 -52 34h-7v3h170v-3zM270 -245v4q36 11 54 37t18 47q0 5 -4 5l-10 -4q-9 -4 -17 -4
q-19 0 -32.5 12.5t-13.5 34.5q0 19 13 32.5t33 13.5q23 0 36.5 -15.5t13.5 -39.5q0 -37 -24 -73.5t-67 -49.5z" />
    <glyph glyph-name="kcommaaccent" unicode="&#x137;" horiz-adv-x="536" 
d="M155 700v-322q19 53 66 96t118 43q64 0 99 -27t35 -77q0 -35 -15 -59.5t-42.5 -38t-54.5 -22t-63.5 -18t-57.5 -18.5l136 -179q42 -55 89 -55q19 0 33 13t15 34h3q-2 -28 -24 -54t-62 -26q-49 0 -90.5 30.5t-89.5 91.5l-72 93q12 26 39.5 44t56 29t56 24.5t45 39.5
t17.5 65q0 44 -24 68.5t-64 24.5q-58 0 -103.5 -51t-45.5 -120v-326h62v-3h-202v3h63v694h-63v3h140zM219 -245v4q36 11 54 37t18 47q0 5 -4 5l-9 -4q-10 -4 -18 -4q-19 0 -32.5 12.5t-13.5 34.5q0 19 13 32.5t33 13.5q23 0 36.5 -15.5t13.5 -39.5q0 -37 -24 -73.5
t-67 -49.5z" />
    <glyph glyph-name="Lacute" unicode="&#x139;" horiz-adv-x="534" 
d="M164 781l-1 3q43 19 102 51t79 41q6 2 10 2q9 0 9 -9q0 -8 -12 -12q-15 -6 -48.5 -18.5t-68.5 -27t-70 -30.5zM165 697v-694h161q86 0 123 38t53 133h2v-174h-484v3h63v694h-63v3h208v-3h-63z" />
    <glyph glyph-name="lacute" unicode="&#x13a;" horiz-adv-x="231" 
d="M17 781l-1 3q43 19 102 51t79 41q6 2 10 2q9 0 9 -9q0 -8 -12 -12q-15 -6 -48.5 -18.5t-68.5 -27t-70 -30.5zM141 700v-630q0 -23 12.5 -35t30.5 -12q17 0 30 13t14 34h3q-2 -28 -24 -54t-62 -26q-39 0 -59.5 29t-20.5 82v596h-65v3h141z" />
    <glyph glyph-name="Lcommaaccent" unicode="&#x13b;" horiz-adv-x="534" 
d="M165 697v-694h161q86 0 123 38t53 133h2v-174h-484v3h63v694h-63v3h208v-3h-63zM227 -245v4q36 11 54 37t18 47q0 5 -4 5l-9 -4q-10 -4 -18 -4q-19 0 -32.5 12.5t-13.5 34.5q0 19 13 32.5t33 13.5q23 0 36.5 -15.5t13.5 -39.5q0 -37 -24 -73.5t-67 -49.5z" />
    <glyph glyph-name="lcommaaccent" unicode="&#x13c;" horiz-adv-x="231" 
d="M141 700v-630q0 -23 12.5 -35t30.5 -12q17 0 30 13t14 34h3q-2 -28 -24 -54t-62 -26q-39 0 -59.5 29t-20.5 82v596h-65v3h141zM76 -245v4q36 11 54 37t18 47q0 5 -4 5l-10 -4q-9 -4 -17 -4q-19 0 -32.5 12.5t-13.5 34.5q0 19 13 32.5t33 13.5q23 0 36.5 -15.5t13.5 -39.5
q0 -37 -24 -73.5t-67 -49.5z" />
    <glyph glyph-name="Lcaron" unicode="&#x13d;" horiz-adv-x="534" 
d="M292 525v3q36 11 54.5 38t18.5 48q0 5 -5 5l-10 -4q-9 -4 -17 -4q-18 0 -32 13t-14 34q0 20 12.5 33.5t33.5 13.5q22 0 35.5 -16t13.5 -39q0 -38 -23.5 -75.5t-66.5 -49.5zM165 697v-694h161q86 0 123 38t53 133h2v-174h-484v3h63v694h-63v3h208v-3h-63z" />
    <glyph glyph-name="lcaron" unicode="&#x13e;" horiz-adv-x="287" 
d="M202 525v3q36 11 54.5 38t18.5 48q0 5 -5 5l-10 -4q-9 -4 -17 -4q-18 0 -32 13t-14 34q0 20 12.5 33.5t33.5 13.5q22 0 35.5 -16t13.5 -39q0 -38 -23.5 -75.5t-66.5 -49.5zM141 700v-630q0 -23 12.5 -35t30.5 -12q17 0 30 13t14 34h3q-2 -28 -24 -54t-62 -26
q-39 0 -59.5 29t-20.5 82v596h-65v3h141z" />
    <glyph glyph-name="Ldot" unicode="&#x13f;" horiz-adv-x="534" 
d="M165 697v-694h161q86 0 123 38t53 133h2v-174h-484v3h63v694h-63v3h208v-3h-63zM308 335q22 0 35.5 -14t13.5 -37q0 -22 -14.5 -36.5t-34.5 -14.5q-21 0 -34.5 14t-13.5 36t14 37t34 15z" />
    <glyph glyph-name="ldot" unicode="&#x140;" horiz-adv-x="271" 
d="M141 700v-630q0 -23 12.5 -35t30.5 -12q17 0 30 13t14 34h3q-2 -28 -24 -54t-62 -26q-39 0 -59.5 29t-20.5 82v596h-65v3h141zM252 335q22 0 35.5 -14t13.5 -37q0 -22 -14.5 -36.5t-34.5 -14.5q-21 0 -34.5 14t-13.5 36t14 37t34 15z" />
    <glyph glyph-name="Lslash" unicode="&#x141;" horiz-adv-x="534" 
d="M504 174v-174h-484v3h63v345l-83 -58v6l83 58v343h-63v3h208v-3h-63v-285l122 85v-6l-122 -85v-403h161q86 0 123 38t53 133h2z" />
    <glyph glyph-name="lslash" unicode="&#x142;" horiz-adv-x="232" 
d="M141 412v-342q0 -23 12.5 -35t30.5 -12q17 0 30 13t14 34h3q-2 -28 -24 -54t-62 -26q-39 0 -59.5 29t-20.5 82v252l-65 -50v6l65 50v338h-65v3h141v-282l91 71v-6z" />
    <glyph glyph-name="Nacute" unicode="&#x143;" horiz-adv-x="643" 
d="M226 781l-1 3q43 19 102 51t79 41q6 2 10 2q9 0 9 -9q0 -8 -12 -12q-15 -6 -48.5 -18.5t-68.5 -27t-70 -30.5zM628 700v-3q-63 0 -63 -125v-572h-70l-408 690v-562q0 -65 20.5 -95t52.5 -30v-3h-140v3q63 0 63 125v569h-63v3h154l387 -663v535q0 65 -20.5 95t-52.5 30v3
h140z" />
    <glyph glyph-name="nacute" unicode="&#x144;" horiz-adv-x="536" 
d="M167 628l-1 3q43 19 102 51t79 41q6 2 10 2q9 0 9 -9q0 -8 -12 -12q-15 -6 -48.5 -18.5t-68.5 -27t-70 -30.5zM155 507v-96q15 42 56.5 74t98.5 32q72 0 109 -50.5t37 -139.5v-257q0 -23 12.5 -35t30.5 -12q17 0 30 13t14 34h3q-2 -28 -24 -54t-62 -26q-39 0 -60.5 29
t-21.5 82v297q0 50 -26.5 77t-72.5 27q-54 0 -89 -42.5t-35 -96.5v-360h62v-3h-202v3h63v501h-63v3h140z" />
    <glyph glyph-name="Ncommaaccent" unicode="&#x145;" horiz-adv-x="643" 
d="M628 700v-3q-63 0 -63 -125v-572h-70l-408 690v-562q0 -65 20.5 -95t52.5 -30v-3h-140v3q63 0 63 125v569h-63v3h154l387 -663v535q0 65 -20.5 95t-52.5 30v3h140zM272 -245v4q36 11 54 37t18 47q0 5 -4 5l-10 -4q-9 -4 -17 -4q-19 0 -32.5 12.5t-13.5 34.5q0 19 13 32.5
t33 13.5q23 0 36.5 -15.5t13.5 -39.5q0 -37 -24 -73.5t-67 -49.5z" />
    <glyph glyph-name="ncommaaccent" unicode="&#x146;" horiz-adv-x="536" 
d="M155 507v-96q15 42 56.5 74t98.5 32q72 0 109 -50.5t37 -139.5v-257q0 -23 12.5 -35t30.5 -12q17 0 30 13t14 34h3q-2 -28 -24 -54t-62 -26q-39 0 -60.5 29t-21.5 82v297q0 50 -26.5 77t-72.5 27q-54 0 -89 -42.5t-35 -96.5v-360h62v-3h-202v3h63v501h-63v3h140z
M226 -245v4q36 11 54 37t18 47q0 5 -4 5l-10 -4q-9 -4 -17 -4q-19 0 -32.5 12.5t-13.5 34.5q0 19 13 32.5t33 13.5q23 0 36.5 -15.5t13.5 -39.5q0 -37 -24 -73.5t-67 -49.5z" />
    <glyph glyph-name="Ncaron" unicode="&#x147;" horiz-adv-x="643" 
d="M444 894v-3q-37 -31 -65.5 -60t-43.5 -41q-4 -4 -10 -4q-4 0 -10 4q-17 14 -44.5 42t-64.5 59v3l119 -88zM628 700v-3q-63 0 -63 -125v-572h-70l-408 690v-562q0 -65 20.5 -95t52.5 -30v-3h-140v3q63 0 63 125v569h-63v3h154l387 -663v535q0 65 -20.5 95t-52.5 30v3h140z
" />
    <glyph glyph-name="ncaron" unicode="&#x148;" horiz-adv-x="536" 
d="M385 741v-3q-37 -31 -65.5 -60t-43.5 -41q-4 -4 -10 -4q-4 0 -10 4q-17 14 -44.5 42t-64.5 59v3l119 -88zM155 507v-96q15 42 56.5 74t98.5 32q72 0 109 -50.5t37 -139.5v-257q0 -23 12.5 -35t30.5 -12q17 0 30 13t14 34h3q-2 -28 -24 -54t-62 -26q-39 0 -60.5 29
t-21.5 82v297q0 50 -26.5 77t-72.5 27q-54 0 -89 -42.5t-35 -96.5v-360h62v-3h-202v3h63v501h-63v3h140z" />
    <glyph glyph-name="Eng" unicode="&#x14a;" horiz-adv-x="643" 
d="M628 700v-3q-63 0 -63 -125v-540q0 -86 -34 -142.5t-94 -56.5q-40 0 -66.5 22.5t-26.5 60.5q0 27 16 45.5t38 18.5q23 0 36.5 -14t13.5 -36q0 -24 -15 -37.5t-35 -13.5q-7 0 -14 2t-11 4t-5 2q-5 0 -5 -5q0 -15 21.5 -31t52.5 -16q41 0 70 28.5t29 72.5q0 42 -8.5 69.5
t-32.5 64.5l-408 620v-562q0 -65 20.5 -95t52.5 -30v-3h-140v3q63 0 63 125v569h-63v3h154l387 -593v465q0 65 -20.5 95t-52.5 30v3h140z" />
    <glyph glyph-name="eng" unicode="&#x14b;" horiz-adv-x="532" 
d="M155 507v-96q15 42 56.5 74t98.5 32q72 0 108.5 -50.5t36.5 -139.5v-295q0 -82 -34 -140.5t-94 -58.5q-40 0 -66.5 22.5t-26.5 60.5q0 27 16 45.5t38 18.5q23 0 36.5 -14t13.5 -36q0 -24 -15 -37.5t-35 -13.5q-7 0 -14 2t-11 4t-5 2q-5 0 -5 -5q0 -15 21.5 -31t52.5 -16
q37 0 68 27t31 70q0 37 -24 122.5t-24 169.5v174q0 50 -26.5 77t-72.5 27q-54 0 -89 -42.5t-35 -96.5v-360h62v-3h-202v3h63v501h-63v3h140z" />
    <glyph glyph-name="Omacron" unicode="&#x14c;" horiz-adv-x="704" 
d="M203 822v3q49 0 87.5 2.5t59.5 2.5q18 0 58.5 -2.5t91.5 -2.5v-3q-51 0 -91.5 -2.5t-58.5 -2.5q-21 0 -59.5 2.5t-87.5 2.5zM352 710q153 0 237.5 -98.5t84.5 -257.5q0 -157 -90.5 -261t-231.5 -104q-153 0 -237.5 99t-84.5 258q0 157 90.5 260.5t231.5 103.5zM352 706
q-118 0 -174.5 -98t-56.5 -256q0 -152 59.5 -255.5t171.5 -103.5q118 0 174.5 98.5t56.5 256.5q0 152 -59.5 255t-171.5 103z" />
    <glyph glyph-name="omacron" unicode="&#x14d;" horiz-adv-x="557" 
d="M129 669v3q49 0 87.5 2.5t59.5 2.5q18 0 58.5 -2.5t91.5 -2.5v-3q-51 0 -91.5 -2.5t-58.5 -2.5q-21 0 -59.5 2.5t-87.5 2.5zM281 518q99 0 165 -75t66 -185t-69.5 -188.5t-166.5 -78.5q-99 0 -165 75.5t-66 185.5t69.5 188t166.5 78zM281 514q-75 0 -114 -71t-39 -186
t38.5 -188.5t109.5 -73.5q75 0 114 71t39 187q0 115 -38.5 188t-109.5 73z" />
    <glyph glyph-name="Ohungarumlaut" unicode="&#x150;" horiz-adv-x="704" 
d="M249 786l-2 2q38 26 90 68.5t71 55.5q4 3 9 4h2q8 0 9 -7v-1q0 -7 -10 -13q-4 -3 -65.5 -41t-103.5 -68zM288 753l-1 3q43 19 102 51t79 41q6 2 10 2q9 0 9 -9q0 -8 -12 -12q-15 -6 -48.5 -18.5t-68.5 -27t-70 -30.5zM352 710q153 0 237.5 -98.5t84.5 -257.5
q0 -157 -90.5 -261t-231.5 -104q-153 0 -237.5 99t-84.5 258q0 157 90.5 260.5t231.5 103.5zM352 706q-118 0 -174.5 -98t-56.5 -256q0 -152 59.5 -255.5t171.5 -103.5q118 0 174.5 98.5t56.5 256.5q0 152 -59.5 255t-171.5 103z" />
    <glyph glyph-name="ohungarumlaut" unicode="&#x151;" horiz-adv-x="557" 
d="M175 633l-2 2q38 26 90 69t71 55q4 3 9 4h2q8 0 9 -7v-1q0 -7 -10 -13q-4 -3 -65.5 -41t-103.5 -68zM214 600l-1 3q43 19 102 51t79 41q6 2 10 2q9 0 9 -9q0 -8 -12 -12q-15 -6 -48.5 -18.5t-68.5 -27t-70 -30.5zM281 518q99 0 165 -75t66 -185t-69.5 -188.5
t-166.5 -78.5q-99 0 -165 75.5t-66 185.5t69.5 188t166.5 78zM281 514q-75 0 -114 -71t-39 -186t38.5 -188.5t109.5 -73.5q75 0 114 71t39 187q0 115 -38.5 188t-109.5 73z" />
    <glyph glyph-name="OE" unicode="&#x152;" horiz-adv-x="985" 
d="M925 0h-449q-20 0 -65.5 -5.5t-58.5 -5.5q-153 0 -237.5 99t-84.5 258q0 157 90.5 260.5t231.5 103.5q15 0 64 -5t69 -5h430v-174h-2q-16 95 -53 133t-123 38h-286q107 -30 165 -122t58 -223h21q66 0 96.5 27t37.5 81h3v-219h-3q-7 54 -37.5 81t-96.5 27h-21
q-1 -127 -63 -220.5t-165 -125.5h301q86 0 123 38t53 133h2v-174zM352 706q-118 0 -174.5 -98t-56.5 -256q0 -152 59.5 -255.5t171.5 -103.5q118 0 174.5 98.5t56.5 256.5q0 152 -59.5 255t-171.5 103z" />
    <glyph glyph-name="oe" unicode="&#x153;" horiz-adv-x="874" 
d="M659 520q76 0 124.5 -36.5t48.5 -94.5q0 -41 -22.5 -69.5t-56 -41.5t-73 -27t-73 -25.5t-56 -38t-22.5 -64.5q0 -54 40.5 -91t107.5 -37q58 0 98 31.5t40 53.5q0 5 -5 5q-1 0 -5 -2t-11 -4t-14 -2q-20 0 -35 13.5t-15 37.5q0 22 15 36.5t38 14.5q22 0 36.5 -16t14.5 -41
q0 -49 -48 -90.5t-124 -41.5q-63 0 -114 32t-80 86q-31 -54 -82 -85.5t-110 -31.5q-99 0 -165 75.5t-66 185.5t69.5 188t166.5 78q61 0 110 -30.5t79 -83.5q29 54 79 85t110 31zM659 517q-68 0 -107 -77t-39 -192q0 -56 10 -99q8 28 34.5 49.5t58.5 36.5t63 33t51.5 48
t20.5 72q0 57 -24.5 93t-67.5 36zM281 514q-75 0 -114 -71t-39 -186t38.5 -188.5t109.5 -73.5q75 0 114 71t39 187q0 115 -38.5 188t-109.5 73z" />
    <glyph glyph-name="Racute" unicode="&#x154;" horiz-adv-x="610" 
d="M201 781l-1 3q43 19 102 51t79 41q6 2 10 2q9 0 9 -9q0 -8 -12 -12q-15 -6 -48.5 -18.5t-68.5 -27t-70 -30.5zM20 700h287q109 0 172.5 -48.5t63.5 -127.5q0 -72 -60 -122.5t-153 -59.5q93 -7 138 -64.5t45 -156.5q0 -47 8 -68.5t30 -21.5q16 0 26 14.5t10 35.5v21h3v-21
q0 -37 -18.5 -64t-57.5 -27q-46 0 -62.5 33t-16.5 98q0 54 -6 91t-22 67.5t-47 45.5t-78 15h-117v-337h62v-3h-207v3h63v694h-63v3zM165 343h116q89 0 132 49t43 129q0 77 -43.5 126.5t-127.5 49.5h-120v-354z" />
    <glyph glyph-name="racute" unicode="&#x155;" horiz-adv-x="436" 
d="M112 628l-1 3q43 19 102 51t79 41q6 2 10 2q9 0 9 -9q0 -8 -12 -12q-15 -6 -48.5 -18.5t-68.5 -27t-70 -30.5zM155 507v-123q52 131 151 131q53 0 81.5 -30.5t28.5 -73.5q0 -27 -16 -44t-40 -17q-23 0 -38.5 15t-15.5 39t15.5 38.5t37.5 14.5q7 0 16 -2l9 -2q5 0 5 6
q0 17 -22 35t-61 18q-65 0 -108 -58t-43 -139v-312h62v-3h-202v3h63v501h-63v3h140z" />
    <glyph glyph-name="Rcommaaccent" unicode="&#x156;" horiz-adv-x="610" 
d="M20 700h287q109 0 172.5 -48.5t63.5 -127.5q0 -72 -60 -122.5t-153 -59.5q93 -7 138 -64.5t45 -156.5q0 -47 8 -68.5t30 -21.5q16 0 26 14.5t10 35.5v21h3v-21q0 -37 -18.5 -64t-57.5 -27q-46 0 -62.5 33t-16.5 98q0 54 -6 91t-22 67.5t-47 45.5t-78 15h-117v-337h62v-3
h-207v3h63v694h-63v3zM165 343h116q89 0 132 49t43 129q0 77 -43.5 126.5t-127.5 49.5h-120v-354zM265 -245v4q36 11 54 37t18 47q0 5 -4 5l-9 -4q-10 -4 -18 -4q-19 0 -32.5 12.5t-13.5 34.5q0 19 13 32.5t33 13.5q23 0 36.5 -15.5t13.5 -39.5q0 -37 -24 -73.5t-67 -49.5z
" />
    <glyph glyph-name="rcommaaccent" unicode="&#x157;" horiz-adv-x="436" 
d="M155 507v-123q52 131 151 131q53 0 81.5 -30.5t28.5 -73.5q0 -27 -16 -44t-40 -17q-23 0 -38.5 15t-15.5 39t15.5 38.5t37.5 14.5q7 0 16 -2l9 -2q5 0 5 6q0 17 -22 35t-61 18q-65 0 -108 -58t-43 -139v-312h62v-3h-202v3h63v501h-63v3h140zM78 -245v4q36 11 54 37t18 47
q0 5 -4 5l-10 -4q-9 -4 -17 -4q-19 0 -32.5 12.5t-13.5 34.5q0 19 13 32.5t33 13.5q23 0 36.5 -15.5t13.5 -39.5q0 -37 -24 -73.5t-67 -49.5z" />
    <glyph glyph-name="Rcaron" unicode="&#x158;" horiz-adv-x="610" 
d="M419 894v-3q-37 -31 -65.5 -60t-43.5 -41q-4 -4 -10 -4q-4 0 -10 4q-17 14 -44.5 42t-64.5 59v3l119 -88zM20 700h287q109 0 172.5 -48.5t63.5 -127.5q0 -72 -60 -122.5t-153 -59.5q93 -7 138 -64.5t45 -156.5q0 -47 8 -68.5t30 -21.5q16 0 26 14.5t10 35.5v21h3v-21
q0 -37 -18.5 -64t-57.5 -27q-46 0 -62.5 33t-16.5 98q0 54 -6 91t-22 67.5t-47 45.5t-78 15h-117v-337h62v-3h-207v3h63v694h-63v3zM165 343h116q89 0 132 49t43 129q0 77 -43.5 126.5t-127.5 49.5h-120v-354z" />
    <glyph glyph-name="rcaron" unicode="&#x159;" horiz-adv-x="436" 
d="M330 741v-3q-37 -31 -65.5 -60t-43.5 -41q-4 -4 -10 -4q-4 0 -10 4q-17 14 -44.5 42t-64.5 59v3l119 -88zM155 507v-123q52 131 151 131q53 0 81.5 -30.5t28.5 -73.5q0 -27 -16 -44t-40 -17q-23 0 -38.5 15t-15.5 39t15.5 38.5t37.5 14.5q7 0 16 -2l9 -2q5 0 5 6
q0 17 -22 35t-61 18q-65 0 -108 -58t-43 -139v-312h62v-3h-202v3h63v501h-63v3h140z" />
    <glyph glyph-name="Sacute" unicode="&#x15a;" horiz-adv-x="513" 
d="M166 781l-1 3q43 19 102 51t79 41q6 2 10 2q9 0 9 -9q0 -8 -12 -12q-15 -6 -48.5 -18.5t-68.5 -27t-70 -30.5zM464 501h-3q-21 98 -67 151.5t-133 53.5q-72 0 -113 -40.5t-41 -101.5q0 -45 20.5 -77.5t54 -52t73.5 -35t80 -32t73.5 -37.5t54 -56.5t20.5 -83.5
q0 -87 -63.5 -143.5t-155.5 -56.5q-61 0 -115 27t-80 27q-35 0 -35 -36h-4v209h4q17 -99 78.5 -161t151.5 -62q73 0 112.5 41t39.5 106q0 44 -20.5 77t-54 52t-73 35t-79.5 32.5t-73.5 37.5t-54 57t-20.5 84q0 89 60 141.5t160 52.5q48 0 96.5 -18.5t68.5 -18.5
q16 0 25.5 10t9.5 27h3v-209z" />
    <glyph glyph-name="sacute" unicode="&#x15b;" horiz-adv-x="442" 
d="M125 628l-1 3q43 19 102 51t79 41q6 2 10 2q9 0 9 -9q0 -8 -12 -12q-15 -6 -48.5 -18.5t-68.5 -27t-70 -30.5zM387 360h-3q-31 154 -160 154q-58 0 -87.5 -28.5t-29.5 -73.5q0 -43 30.5 -71.5t73.5 -44t86.5 -32t74 -48t30.5 -79.5q0 -64 -52.5 -105.5t-130.5 -41.5
q-77 0 -128 39.5t-51 88.5q0 25 14.5 41t36.5 16q23 0 38 -14.5t15 -36.5q0 -24 -15 -37.5t-35 -13.5q-7 0 -14 2t-11 4t-5 2q-5 0 -5 -5q0 -21 44.5 -51t109.5 -30q59 0 94 29.5t35 74.5q0 43 -30.5 71t-74 44t-86.5 32t-73.5 48t-30.5 80q0 66 48 105.5t129 39.5
q43 0 80 -13.5t52 -13.5q28 0 28 27h3v-159z" />
    <glyph glyph-name="Scedilla" unicode="&#x15e;" horiz-adv-x="513" 
d="M464 501h-3q-21 98 -67 151.5t-133 53.5q-72 0 -113 -40.5t-41 -101.5q0 -45 20.5 -77.5t54 -52t73.5 -35t80 -32t73.5 -37.5t54 -56.5t20.5 -83.5q0 -87 -63.5 -143.5t-155.5 -56.5q-61 0 -115 27t-80 27q-35 0 -35 -36h-4v209h4q17 -99 78.5 -161t151.5 -62
q73 0 112.5 41t39.5 106q0 44 -20.5 77t-54 52t-73 35t-79.5 32.5t-73.5 37.5t-54 57t-20.5 84q0 89 60 141.5t160 52.5q48 0 96.5 -18.5t68.5 -18.5q16 0 25.5 10t9.5 27h3v-209zM264 -10l-73 -68q21 15 63 15q39 0 63.5 -14.5t24.5 -43.5q0 -30 -27.5 -49.5t-68.5 -19.5
q-38 0 -60 15.5t-22 33.5q0 8 6 14.5t14 6.5q9 0 15 -5.5t6 -13.5t-6 -13t-13 -5q-5 0 -10 3l-2 1q-2 0 -2 -2q0 -5 7 -12t22.5 -13.5t35.5 -6.5q39 0 60 17t21 46q0 58 -74 58q-17 0 -30 -4t-18 -8l-5 -3h-6l76 71h3z" />
    <glyph glyph-name="scedilla" unicode="&#x15f;" horiz-adv-x="442" 
d="M387 360h-3q-31 154 -160 154q-58 0 -87.5 -28.5t-29.5 -73.5q0 -43 30.5 -71.5t73.5 -44t86.5 -32t74 -48t30.5 -79.5q0 -64 -52.5 -105.5t-130.5 -41.5q-77 0 -128 39.5t-51 88.5q0 25 14.5 41t36.5 16q23 0 38 -14.5t15 -36.5q0 -24 -15 -37.5t-35 -13.5q-7 0 -14 2
t-11 4t-5 2q-5 0 -5 -5q0 -21 44.5 -51t109.5 -30q59 0 94 29.5t35 74.5q0 43 -30.5 71t-74 44t-86.5 32t-73.5 48t-30.5 80q0 66 48 105.5t129 39.5q43 0 80 -13.5t52 -13.5q28 0 28 27h3v-159zM222 -10l-73 -68q21 15 63 15q39 0 63.5 -14.5t24.5 -43.5q0 -30 -27.5 -49.5
t-68.5 -19.5q-38 0 -60 15.5t-22 33.5q0 8 6 14.5t14 6.5q9 0 15 -5.5t6 -13.5t-6 -13t-13 -5q-5 0 -10 3l-2 1q-2 0 -2 -2q0 -5 7 -12t22.5 -13.5t35.5 -6.5q39 0 60 17t21 46q0 58 -74 58q-17 0 -30 -4t-18 -8l-5 -3h-6l76 71h3z" />
    <glyph glyph-name="Scaron" unicode="&#x160;" horiz-adv-x="513" 
d="M384 894v-3q-37 -31 -65.5 -60t-43.5 -41q-4 -4 -10 -4q-4 0 -10 4q-17 14 -44.5 42t-64.5 59v3l119 -88zM464 501h-3q-21 98 -67 151.5t-133 53.5q-72 0 -113 -40.5t-41 -101.5q0 -45 20.5 -77.5t54 -52t73.5 -35t80 -32t73.5 -37.5t54 -56.5t20.5 -83.5
q0 -87 -63.5 -143.5t-155.5 -56.5q-61 0 -115 27t-80 27q-35 0 -35 -36h-4v209h4q17 -99 78.5 -161t151.5 -62q73 0 112.5 41t39.5 106q0 44 -20.5 77t-54 52t-73 35t-79.5 32.5t-73.5 37.5t-54 57t-20.5 84q0 89 60 141.5t160 52.5q48 0 96.5 -18.5t68.5 -18.5
q16 0 25.5 10t9.5 27h3v-209z" />
    <glyph glyph-name="scaron" unicode="&#x161;" horiz-adv-x="442" 
d="M343 741v-3q-37 -31 -65.5 -60t-43.5 -41q-4 -4 -10 -4q-4 0 -10 4q-17 14 -44.5 42t-64.5 59v3l119 -88zM387 360h-3q-31 154 -160 154q-58 0 -87.5 -28.5t-29.5 -73.5q0 -43 30.5 -71.5t73.5 -44t86.5 -32t74 -48t30.5 -79.5q0 -64 -52.5 -105.5t-130.5 -41.5
q-77 0 -128 39.5t-51 88.5q0 25 14.5 41t36.5 16q23 0 38 -14.5t15 -36.5q0 -24 -15 -37.5t-35 -13.5q-7 0 -14 2t-11 4t-5 2q-5 0 -5 -5q0 -21 44.5 -51t109.5 -30q59 0 94 29.5t35 74.5q0 43 -30.5 71t-74 44t-86.5 32t-73.5 48t-30.5 80q0 66 48 105.5t129 39.5
q43 0 80 -13.5t52 -13.5q28 0 28 27h3v-159z" />
    <glyph glyph-name="Tcedilla" unicode="&#x162;" horiz-adv-x="604" 
d="M569 737v-209h-3q-7 92 -49.5 130.5t-135.5 38.5h-38v-694h62v-3h-102l-73 -68q21 15 63 15q39 0 63.5 -14.5t24.5 -43.5q0 -30 -27.5 -49.5t-68.5 -19.5q-38 0 -60 15.5t-22 33.5q0 8 6 14.5t14 6.5q9 0 15 -5.5t6 -13.5t-6 -13t-13 -5q-5 0 -11 3l-1 1q-2 0 -2 -2
q0 -5 7 -12t22.5 -13.5t35.5 -6.5q39 0 60 17t21 46q0 58 -74 58q-17 0 -30 -4t-18 -8l-5 -3h-6l76 71h-102v3h63v694h-38q-93 0 -135.5 -38.5t-49.5 -130.5h-3v209h3q0 -17 9.5 -27t25.5 -10h458q16 0 25.5 10t9.5 27h3z" />
    <glyph glyph-name="tcedilla" unicode="&#x163;" horiz-adv-x="316" 
d="M306 507v-3h-165v-372q0 -112 94 -112q29 0 51.5 18t26.5 46h3q-4 -36 -39 -65t-81 -29q-66 0 -98.5 40t-32.5 111v363h-65v3h65v104l76 38v-142h165zM195 -10l-73 -68q21 15 63 15q39 0 63.5 -14.5t24.5 -43.5q0 -30 -27.5 -49.5t-68.5 -19.5q-38 0 -60 15.5t-22 33.5
q0 8 6 14.5t14 6.5q9 0 15 -5.5t6 -13.5t-6 -13t-13 -5q-5 0 -11 3l-1 1q-2 0 -2 -2q0 -5 7 -12t22.5 -13.5t35.5 -6.5q39 0 60 17t21 46q0 58 -74 58q-17 0 -30 -4t-18 -8l-5 -3h-6l76 71h3z" />
    <glyph glyph-name="Tcaron" unicode="&#x164;" horiz-adv-x="604" 
d="M421 894v-3q-37 -31 -65.5 -60t-43.5 -41q-4 -4 -10 -4q-4 0 -10 4q-17 14 -44.5 42t-64.5 59v3l119 -88zM569 528h-3q-7 92 -49.5 130.5t-135.5 38.5h-38v-694h62v-3h-207v3h63v694h-38q-93 0 -135.5 -38.5t-49.5 -130.5h-3v209h3q0 -17 9.5 -27t25.5 -10h458
q16 0 25.5 10t9.5 27h3v-209z" />
    <glyph glyph-name="tcaron" unicode="&#x165;" horiz-adv-x="326" 
d="M196 534v3q36 11 54.5 34t18.5 43q0 5 -5 5l-10 -4q-9 -4 -17 -4q-18 0 -32 13t-14 34q0 20 12.5 33.5t33.5 13.5q22 0 35.5 -16t13.5 -39q0 -36 -23 -69.5t-67 -46.5zM306 507v-3h-165v-372q0 -112 94 -112q29 0 51.5 18t26.5 46h3q-4 -36 -39 -65t-81 -29
q-66 0 -98.5 40t-32.5 111v363h-65v3h65v104l76 38v-142h165z" />
    <glyph glyph-name="Tbar" unicode="&#x166;" horiz-adv-x="604" 
d="M153 822v3q49 0 87.5 2.5t59.5 2.5q18 0 58.5 -2.5t91.5 -2.5v-3q-51 0 -91.5 -2.5t-58.5 -2.5q-21 0 -59.5 2.5t-87.5 2.5zM569 528h-3q-7 92 -49.5 130.5t-135.5 38.5h-38v-694h62v-3h-207v3h63v694h-38q-93 0 -135.5 -38.5t-49.5 -130.5h-3v209h3q0 -17 9.5 -27
t25.5 -10h458q16 0 25.5 10t9.5 27h3v-209z" />
    <glyph glyph-name="tbar" unicode="&#x167;" horiz-adv-x="326" 
d="M313 84h3q-4 -36 -39 -65t-81 -29q-66 0 -98.5 40t-32.5 111v183h-65v3h65v177h-65v3h65v104l76 38v-142h165v-3h-165v-177h164v-3h-164v-192q0 -112 94 -112q29 0 51.5 18t26.5 46z" />
    <glyph glyph-name="Umacron" unicode="&#x16a;" horiz-adv-x="671" 
d="M208 822v3q49 0 87.5 2.5t59.5 2.5q18 0 58.5 -2.5t91.5 -2.5v-3q-51 0 -91.5 -2.5t-58.5 -2.5q-21 0 -59.5 2.5t-87.5 2.5zM656 697h-4q-80 0 -80 -110v-350q0 -108 -72 -177t-176 -69t-172.5 67.5t-68.5 169.5v469h-63v3h207v-3h-62v-464q0 -87 58 -140.5t147 -53.5
q87 0 142.5 52.5t55.5 146.5v349q0 110 -78 110h-4v3h170v-3z" />
    <glyph glyph-name="umacron" unicode="&#x16b;" horiz-adv-x="542" 
d="M99 669v3q49 0 87.5 2.5t59.5 2.5q18 0 58.5 -2.5t91.5 -2.5v-3q-51 0 -91.5 -2.5t-58.5 -2.5q-21 0 -59.5 2.5t-87.5 2.5zM-7 437h-3q2 28 24 54t62 26q39 0 60.5 -29t21.5 -82v-297q0 -50 26.5 -77t72.5 -27q55 0 89.5 40t34.5 94v365h-62v3h138v-437q0 -23 12.5 -35
t30.5 -12q17 0 30 13t14 34h3q-2 -28 -24 -54t-62 -26q-33 0 -54.5 27.5t-25.5 73.5q-15 -41 -56.5 -71t-98.5 -30q-72 0 -109 50.5t-37 139.5v257q0 23 -12.5 35t-30.5 12q-17 0 -30 -13t-14 -34z" />
    <glyph glyph-name="Uring" unicode="&#x16e;" horiz-adv-x="671" 
d="M356 929q39 0 66.5 -27.5t27.5 -66.5t-27.5 -66t-66.5 -27t-66 27t-27 66t27 66.5t66 27.5zM356 926q-37 0 -57 -26t-20 -65t20 -64.5t57 -25.5t57.5 25.5t20.5 64.5t-20.5 65t-57.5 26zM656 697h-4q-80 0 -80 -110v-350q0 -108 -72 -177t-176 -69t-172.5 67.5
t-68.5 169.5v469h-63v3h207v-3h-62v-464q0 -87 58 -140.5t147 -53.5q87 0 142.5 52.5t55.5 146.5v349q0 110 -78 110h-4v3h170v-3z" />
    <glyph glyph-name="uring" unicode="&#x16f;" horiz-adv-x="542" 
d="M247 776q39 0 66.5 -27.5t27.5 -66.5t-27.5 -66t-66.5 -27t-66 27t-27 66t27 66.5t66 27.5zM247 773q-37 0 -57 -26t-20 -65t20 -64.5t57 -25.5t57.5 25.5t20.5 64.5t-20.5 65t-57.5 26zM-7 437h-3q2 28 24 54t62 26q39 0 60.5 -29t21.5 -82v-297q0 -50 26.5 -77
t72.5 -27q55 0 89.5 40t34.5 94v365h-62v3h138v-437q0 -23 12.5 -35t30.5 -12q17 0 30 13t14 34h3q-2 -28 -24 -54t-62 -26q-33 0 -54.5 27.5t-25.5 73.5q-15 -41 -56.5 -71t-98.5 -30q-72 0 -109 50.5t-37 139.5v257q0 23 -12.5 35t-30.5 12q-17 0 -30 -13t-14 -34z" />
    <glyph glyph-name="Uhungarumlaut" unicode="&#x170;" horiz-adv-x="671" 
d="M254 786l-2 2q38 26 90 68.5t71 55.5q4 3 9 4h2q8 0 9 -7v-1q0 -7 -10 -13q-4 -3 -65.5 -41t-103.5 -68zM293 753l-1 3q43 19 102 51t79 41q6 2 10 2q9 0 9 -9q0 -8 -12 -12q-15 -6 -48.5 -18.5t-68.5 -27t-70 -30.5zM656 697h-4q-80 0 -80 -110v-350q0 -108 -72 -177
t-176 -69t-172.5 67.5t-68.5 169.5v469h-63v3h207v-3h-62v-464q0 -87 58 -140.5t147 -53.5q87 0 142.5 52.5t55.5 146.5v349q0 110 -78 110h-4v3h170v-3z" />
    <glyph glyph-name="uhungarumlaut" unicode="&#x171;" horiz-adv-x="542" 
d="M145 633l-2 2q38 26 90 69t71 55q4 3 9 4h2q8 0 9 -7v-1q0 -7 -10 -13q-4 -3 -65.5 -41t-103.5 -68zM184 600l-1 3q43 19 102 51t79 41q6 2 10 2q9 0 9 -9q0 -8 -12 -12q-15 -6 -48.5 -18.5t-68.5 -27t-70 -30.5zM-7 437h-3q2 28 24 54t62 26q39 0 60.5 -29t21.5 -82
v-297q0 -50 26.5 -77t72.5 -27q55 0 89.5 40t34.5 94v365h-62v3h138v-437q0 -23 12.5 -35t30.5 -12q17 0 30 13t14 34h3q-2 -28 -24 -54t-62 -26q-33 0 -54.5 27.5t-25.5 73.5q-15 -41 -56.5 -71t-98.5 -30q-72 0 -109 50.5t-37 139.5v257q0 23 -12.5 35t-30.5 12
q-17 0 -30 -13t-14 -34z" />
    <glyph glyph-name="Uogonek" unicode="&#x172;" horiz-adv-x="671" 
d="M656 700v-3h-4q-80 0 -80 -110v-350q0 -88 -50 -152t-129 -85q-53 -28 -53 -81q0 -75 95 -75q23 0 41.5 7.5t26.5 16t8 14.5q0 3 -2 3l-2 -1q-2 -2 -5 -3t-7 -1q-9 0 -15.5 6t-6.5 15t7 16t18 7q9 0 15.5 -8t6.5 -17q0 -21 -25.5 -39.5t-69.5 -18.5q-48 0 -77.5 20.5
t-29.5 56.5q0 48 51 77q-20 -4 -45 -4q-104 0 -172.5 67.5t-68.5 169.5v469h-63v3h207v-3h-62v-464q0 -87 58 -140.5t147 -53.5q87 0 142.5 52.5t55.5 146.5v349q0 110 -78 110h-4v3h170z" />
    <glyph glyph-name="uogonek" unicode="&#x173;" horiz-adv-x="542" 
d="M544 70h3q-2 -26 -22 -51.5t-56 -28.5q-62 -28 -62 -85q0 -75 95 -75q23 0 41.5 7.5t26.5 16t8 14.5q0 3 -2 3l-2 -1q-2 -2 -5 -3t-7 -1q-9 0 -15.5 6t-6.5 15t7 16t18 7q9 0 15.5 -8t6.5 -17q0 -21 -25.5 -39.5t-69.5 -18.5q-48 0 -77.5 20.5t-29.5 56.5q0 58 71 86
q-31 2 -51 29t-24 72q-15 -41 -56.5 -71t-98.5 -30q-72 0 -109 50.5t-37 139.5v257q0 23 -12.5 35t-30.5 12q-17 0 -30 -13t-14 -34h-3q2 28 24 54t62 26q39 0 60.5 -29t21.5 -82v-297q0 -50 26.5 -77t72.5 -27q55 0 89.5 40t34.5 94v365h-62v3h138v-437q0 -23 12.5 -35
t30.5 -12q17 0 30 13t14 34z" />
    <glyph glyph-name="Wcircumflex" unicode="&#x174;" horiz-adv-x="930" 
d="M349 778l-1 4q37 31 64.5 59t44.5 42q4 4 10 4q7 0 10 -4q15 -12 43.5 -41t65.5 -60l-1 -4l-118 89zM925 700v-3q-68 0 -98 -110l-164 -587h-37l-162 550l-165 -550h-37l-201 697h-56v3h208v-3h-66l173 -612l142 473l-41 139h-56v3h203v-3h-66l180 -614l141 505
q8 29 8 49q0 60 -76 60v3h170z" />
    <glyph glyph-name="wcircumflex" unicode="&#x175;" horiz-adv-x="752" 
d="M260 625l-1 4q37 31 64.5 59t44.5 42q4 4 10 4q7 0 10 -4q15 -12 43.5 -41t65.5 -60l-1 -4l-118 89zM752 507v-3q-36 0 -57.5 -29.5t-38.5 -80.5l-125 -394h-37l-115 356l-121 -356h-37l-165 504h-56v3h202v-3h-66l140 -439l101 298l-45 141h-56v3h198v-3h-66l140 -436
l104 327q10 24 10 48q0 61 -80 61v3h170z" />
    <glyph glyph-name="Ycircumflex" unicode="&#x176;" horiz-adv-x="649" 
d="M213 778l-1 4q37 31 64.5 59t44.5 42q4 4 10 4q7 0 10 -4q15 -12 43.5 -41t65.5 -60l-1 -4l-118 89zM649 700v-3q-36 0 -67 -28t-69 -82l-155 -234v-350h62v-3h-207v3h63v339l-224 355h-52v3h213v-3h-67l212 -338l151 229q31 46 31 72q0 37 -61 37v3h170z" />
    <glyph glyph-name="ycircumflex" unicode="&#x177;" horiz-adv-x="514" 
d="M162 625l-1 4q37 31 64.5 59t44.5 42q4 4 10 4q7 0 10 -4q15 -12 43.5 -41t65.5 -60l-1 -4l-118 89zM135 504l168 -368q11 17 41 64t42.5 68.5t31.5 56.5t26.5 60t7.5 46q0 11 -9 11q-2 0 -13 -4t-21 -4q-20 0 -35.5 14.5t-15.5 38.5q0 22 14.5 37t37.5 15q26 0 42.5 -19
t16.5 -48q0 -44 -25.5 -102.5t-62 -116t-73 -114t-62 -110.5t-25.5 -90q0 -10 9 -10q2 0 13 4t21 4q20 0 35.5 -14.5t15.5 -38.5q0 -22 -14.5 -37t-37.5 -15q-26 0 -42.5 19t-16.5 48q0 62 56 165l-204 440h-56v3h204v-3h-69z" />
    <glyph glyph-name="Ydieresis" unicode="&#x178;" horiz-adv-x="649" 
d="M251 858q22 0 35.5 -14t13.5 -37q0 -22 -14.5 -36.5t-34.5 -14.5q-21 0 -34.5 14t-13.5 36t14 37t34 15zM410 858q22 0 35.5 -14t13.5 -37q0 -22 -14.5 -36.5t-34.5 -14.5q-21 0 -34.5 14t-13.5 36t14 37t34 15zM649 700v-3q-36 0 -67 -28t-69 -82l-155 -234v-350h62v-3
h-207v3h63v339l-224 355h-52v3h213v-3h-67l212 -338l151 229q31 46 31 72q0 37 -61 37v3h170z" />
    <glyph glyph-name="Zacute" unicode="&#x179;" horiz-adv-x="608" 
d="M206 781l-1 3q43 19 102 51t79 41q6 2 10 2q9 0 9 -9q0 -8 -12 -12q-15 -6 -48.5 -18.5t-68.5 -27t-70 -30.5zM133 3h247q86 0 123 38t53 133h2v-174h-518l424 697h-224q-86 0 -123 -38t-53 -133h-2v174h495z" />
    <glyph glyph-name="zacute" unicode="&#x17a;" horiz-adv-x="487" 
d="M149 628l-1 3q43 19 102 51t79 41q6 2 10 2q9 0 9 -9q0 -8 -12 -12q-15 -6 -48.5 -18.5t-68.5 -27t-70 -30.5zM442 507l-314 -484q40 0 105 -15.5t110 -15.5q23 0 23 17q0 4 -4.5 14.5t-4.5 20.5q0 20 14.5 35.5t38.5 15.5q22 0 37 -14t15 -37q0 -29 -20 -48t-60 -19
q-60 0 -135.5 21.5t-118.5 21.5q-57 0 -98 -20l327 504h-135q-69 0 -116 -38.5t-61 -89.5h-3l20 131h380z" />
    <glyph glyph-name="Zdotaccent" unicode="&#x17b;" horiz-adv-x="608" 
d="M304 858q22 0 35.5 -14t13.5 -37q0 -22 -14.5 -36.5t-34.5 -14.5q-21 0 -34.5 14t-13.5 36t14 37t34 15zM133 3h247q86 0 123 38t53 133h2v-174h-518l424 697h-224q-86 0 -123 -38t-53 -133h-2v174h495z" />
    <glyph glyph-name="zdotaccent" unicode="&#x17c;" horiz-adv-x="487" 
d="M247 705q22 0 35.5 -14t13.5 -37q0 -22 -14.5 -36.5t-34.5 -14.5q-21 0 -34.5 14t-13.5 36t14 37t34 15zM442 507l-314 -484q40 0 105 -15.5t110 -15.5q23 0 23 17q0 4 -4.5 14.5t-4.5 20.5q0 20 14.5 35.5t38.5 15.5q22 0 37 -14t15 -37q0 -29 -20 -48t-60 -19
q-60 0 -135.5 21.5t-118.5 21.5q-57 0 -98 -20l327 504h-135q-69 0 -116 -38.5t-61 -89.5h-3l20 131h380z" />
    <glyph glyph-name="Zcaron" unicode="&#x17d;" horiz-adv-x="608" 
d="M424 894v-3q-37 -31 -65.5 -60t-43.5 -41q-4 -4 -10 -4q-4 0 -10 4q-17 14 -44.5 42t-64.5 59v3l119 -88zM133 3h247q86 0 123 38t53 133h2v-174h-518l424 697h-224q-86 0 -123 -38t-53 -133h-2v174h495z" />
    <glyph glyph-name="zcaron" unicode="&#x17e;" horiz-adv-x="487" 
d="M367 741v-3q-37 -31 -65.5 -60t-43.5 -41q-4 -4 -10 -4q-4 0 -10 4q-17 14 -44.5 42t-64.5 59v3l119 -88zM442 507l-314 -484q40 0 105 -15.5t110 -15.5q23 0 23 17q0 4 -4.5 14.5t-4.5 20.5q0 20 14.5 35.5t38.5 15.5q22 0 37 -14t15 -37q0 -29 -20 -48t-60 -19
q-60 0 -135.5 21.5t-118.5 21.5q-57 0 -98 -20l327 504h-135q-69 0 -116 -38.5t-61 -89.5h-3l20 131h380z" />
    <glyph glyph-name="florin" unicode="&#x192;" horiz-adv-x="287" 
d="M78 507v24q0 87 34.5 138t97.5 51q52 0 79.5 -29t27.5 -74q0 -26 -15.5 -44t-37.5 -18q-23 0 -37 14t-14 35q0 24 14.5 38t35.5 14q7 0 14 -2t11 -4t5 -2q5 0 5 5q0 21 -22 43t-66 22q-45 0 -73.5 -29.5t-28.5 -76.5q0 -37 20 -105h140v-3h-139q26 -82 26 -171v-301
q0 -82 -34 -140.5t-94 -58.5q-40 0 -66.5 22.5t-26.5 60.5q0 27 16 45.5t38 18.5q23 0 36.5 -14t13.5 -36q0 -24 -15 -37.5t-35 -13.5q-7 0 -14 2t-11 4t-5 2q-5 0 -5 -5q0 -15 21.5 -31t52.5 -16q37 0 68 27t31 70q0 37 -24 122.5t-24 169.5v280h-63v3h63z" />
    <glyph glyph-name="Scommaaccent" unicode="&#x218;" horiz-adv-x="513" 
d="M464 501h-3q-21 98 -67 151.5t-133 53.5q-72 0 -113 -40.5t-41 -101.5q0 -45 20.5 -77.5t54 -52t73.5 -35t80 -32t73.5 -37.5t54 -56.5t20.5 -83.5q0 -87 -63.5 -143.5t-155.5 -56.5q-61 0 -115 27t-80 27q-35 0 -35 -36h-4v209h4q17 -99 78.5 -161t151.5 -62
q73 0 112.5 41t39.5 106q0 44 -20.5 77t-54 52t-73 35t-79.5 32.5t-73.5 37.5t-54 57t-20.5 84q0 89 60 141.5t160 52.5q48 0 96.5 -18.5t68.5 -18.5q16 0 25.5 10t9.5 27h3v-209zM225 -245v4q36 11 54 37t18 47q0 5 -4 5l-9 -4q-10 -4 -18 -4q-19 0 -32.5 12.5t-13.5 34.5
q0 19 13 32.5t33 13.5q23 0 36.5 -15.5t13.5 -39.5q0 -37 -24 -73.5t-67 -49.5z" />
    <glyph glyph-name="scommaaccent" unicode="&#x219;" horiz-adv-x="442" 
d="M387 360h-3q-31 154 -160 154q-58 0 -87.5 -28.5t-29.5 -73.5q0 -43 30.5 -71.5t73.5 -44t86.5 -32t74 -48t30.5 -79.5q0 -64 -52.5 -105.5t-130.5 -41.5q-77 0 -128 39.5t-51 88.5q0 25 14.5 41t36.5 16q23 0 38 -14.5t15 -36.5q0 -24 -15 -37.5t-35 -13.5q-7 0 -14 2
t-11 4t-5 2q-5 0 -5 -5q0 -21 44.5 -51t109.5 -30q59 0 94 29.5t35 74.5q0 43 -30.5 71t-74 44t-86.5 32t-73.5 48t-30.5 80q0 66 48 105.5t129 39.5q43 0 80 -13.5t52 -13.5q28 0 28 27h3v-159zM183 -245v4q36 11 54 37t18 47q0 5 -4 5l-9 -4q-10 -4 -18 -4
q-19 0 -32.5 12.5t-13.5 34.5q0 19 13 32.5t33 13.5q23 0 36.5 -15.5t13.5 -39.5q0 -37 -24 -73.5t-67 -49.5z" />
    <glyph glyph-name="uni021A" unicode="&#x21a;" horiz-adv-x="604" 
d="M569 528h-3q-7 92 -49.5 130.5t-135.5 38.5h-38v-694h62v-3h-207v3h63v694h-38q-93 0 -135.5 -38.5t-49.5 -130.5h-3v209h3q0 -17 9.5 -27t25.5 -10h458q16 0 25.5 10t9.5 27h3v-209zM264 -235v4q36 11 54 37t18 47q0 5 -4 5l-10 -4q-9 -4 -17 -4q-19 0 -32.5 12.5
t-13.5 34.5q0 19 13 32.5t33 13.5q23 0 36.5 -15.5t13.5 -39.5q0 -37 -24 -73.5t-67 -49.5z" />
    <glyph glyph-name="uni021B" unicode="&#x21b;" horiz-adv-x="316" 
d="M306 507v-3h-165v-372q0 -112 94 -112q29 0 51.5 18t26.5 46h3q-4 -36 -39 -65t-81 -29q-66 0 -98.5 40t-32.5 111v363h-65v3h65v104l76 38v-142h165zM156 -245v4q36 11 54 37t18 47q0 5 -4 5l-10 -4q-9 -4 -17 -4q-19 0 -32.5 12.5t-13.5 34.5q0 19 13 32.5t33 13.5
q23 0 36.5 -15.5t13.5 -39.5q0 -37 -24 -73.5t-67 -49.5z" />
    <glyph glyph-name="dotlessj" unicode="&#x237;" horiz-adv-x="216" 
d="M148 507v-475q0 -82 -34 -140.5t-94 -58.5q-40 0 -66.5 22.5t-26.5 60.5q0 27 16 45.5t38 18.5q23 0 36.5 -14t13.5 -36q0 -24 -15 -37.5t-35 -13.5q-7 0 -14 2t-11 4t-5 2q-5 0 -5 -5q0 -15 21.5 -31t52.5 -16q37 0 68 27t31 70q0 37 -24 122.5t-24 169.5v280h-63v3h140
z" />
    <glyph glyph-name="circumflex" unicode="&#x2c6;" 
d="M132 625l-1 4q37 31 64.5 59t44.5 42q4 4 10 4q7 0 10 -4q15 -12 43.5 -41t65.5 -60l-1 -4l-118 89z" />
    <glyph glyph-name="caron" unicode="&#x2c7;" 
d="M369 741v-3q-37 -31 -65.5 -60t-43.5 -41q-4 -4 -10 -4q-4 0 -10 4q-17 14 -44.5 42t-64.5 59v3l119 -88z" />
    <glyph glyph-name="breve" unicode="&#x2d8;" 
d="M403 729h3q-42 -99 -156 -99t-156 99h3q37 -85 153 -85t153 85z" />
    <glyph glyph-name="dotaccent" unicode="&#x2d9;" 
d="M249 705q22 0 35.5 -14t13.5 -37q0 -22 -14.5 -36.5t-34.5 -14.5q-21 0 -34.5 14t-13.5 36t14 37t34 15z" />
    <glyph glyph-name="ring" unicode="&#x2da;" 
d="M247 776q39 0 66.5 -27.5t27.5 -66.5t-27.5 -66t-66.5 -27t-66 27t-27 66t27 66.5t66 27.5zM247 773q-37 0 -57 -26t-20 -65t20 -64.5t57 -25.5t57.5 25.5t20.5 64.5t-20.5 65t-57.5 26z" />
    <glyph glyph-name="ogonek" unicode="&#x2db;" 
d="M258 2l1 -2l-10 -2.5t-21.5 -8.5t-27.5 -16.5t-22 -27.5t-10 -40q0 -75 95 -75q23 0 41.5 7.5t26.5 16t8 14.5q0 3 -2 3l-2 -1q-2 -2 -5 -3t-7 -1q-9 0 -15.5 6t-6.5 15t7 16t18 7q9 0 15.5 -8t6.5 -17q0 -21 -25.5 -39.5t-69.5 -18.5q-48 0 -77.5 20.5t-29.5 56.5
q0 22 10.5 40t26 28t31 16.5t26.5 9.5l10 2z" />
    <glyph glyph-name="tilde" unicode="&#x2dc;" 
d="M78 649h-3q18 41 40 60t58 19q32 0 77 -35.5t85 -35.5q58 0 87 64h3q-18 -41 -40 -60t-58 -19q-29 0 -52.5 11t-37.5 24.5t-33 24.5t-39 11q-58 0 -87 -64z" />
    <glyph glyph-name="hungarumlaut" unicode="&#x2dd;" 
d="M155 633l-2 2q38 26 90 69t71 55q4 3 9 4h2q8 0 9 -7v-1q0 -7 -10 -13q-4 -3 -65.5 -41t-103.5 -68zM194 600l-1 3q43 19 102 51t79 41q6 2 10 2q9 0 9 -9q0 -8 -12 -12q-15 -6 -48.5 -18.5t-68.5 -27t-70 -30.5z" />
    <glyph glyph-name="commaaccentcomb" unicode="&#x326;" horiz-adv-x="0" 
d="M206 -245v4q36 11 54 37t18 47q0 5 -4 5l-10 -4q-9 -4 -17 -4q-19 0 -32.5 12.5t-13.5 34.5q0 19 13 32.5t33 13.5q23 0 36.5 -15.5t13.5 -39.5q0 -37 -24 -73.5t-67 -49.5z" />
    <glyph glyph-name="Delta" unicode="&#x394;" horiz-adv-x="675" 
d="M621 0h-565l254 700h37zM288 628l-188 -516q-10 -28 -10 -47q0 -61 68 -62h373z" />
    <glyph glyph-name="Omega" unicode="&#x3a9;" horiz-adv-x="704" 
d="M20 144h3q35 -88 201 -88q-78 44 -136 123t-58 184q0 147 90.5 247t231.5 100q152 0 237 -96.5t85 -244.5q0 -105 -58 -187t-134 -126q164 0 199 88h3l-51 -144h-241v4q4 1 11 3.5t26.5 13t38 25.5t40.5 43t37.5 63.5t26.5 89t11 116.5q0 148 -59.5 248t-171.5 100
q-118 0 -174.5 -95t-56.5 -249q0 -63 10.5 -117t27.5 -89.5t37 -64t40.5 -44t37.5 -26t28 -13.5l10 -4v-4h-241z" />
    <glyph glyph-name="mu" unicode="&#x3bc;" horiz-adv-x="539" 
d="M444 507v-437q0 -23 12.5 -35t30.5 -12q17 0 30 13t14 34h3q-2 -28 -24 -54t-62 -26q-33 0 -54.5 27.5t-25.5 73.5q-15 -41 -54 -70t-96 -29q-20 0 -38.5 5t-26.5 10l-8 5v-155h62v-3h-202v3h63v647h-63v3h140v-398q0 -50 26.5 -77t72.5 -27q55 0 89.5 40t34.5 94v365
h-62v3h138z" />
    <glyph glyph-name="pi" unicode="&#x3c0;" horiz-adv-x="482" 
d="M467 504h-63v-501h63v-3h-202v3h62v501h-172v-501h62v-3h-202v3h63v501h-63v3h452v-3z" />
    <glyph glyph-name="uni0401" unicode="&#x401;" horiz-adv-x="564" 
d="M198 858q22 0 35.5 -14t13.5 -37q0 -22 -14.5 -36.5t-34.5 -14.5q-21 0 -34.5 14t-13.5 36t14 37t34 15zM357 858q22 0 35.5 -14t13.5 -37q0 -22 -14.5 -36.5t-34.5 -14.5q-21 0 -34.5 14t-13.5 36t14 37t34 15zM494 526h-2q-16 95 -53 133t-123 38h-151v-345h96
q66 0 96.5 27t37.5 81h3v-219h-3q-7 54 -37.5 81t-96.5 27h-96v-346h161q86 0 123 38t53 133h2v-174h-484v3h63v694h-63v3h474v-174z" />
    <glyph glyph-name="uni0402" unicode="&#x402;" horiz-adv-x="734" 
d="M530 528h-3q-7 92 -49.5 130.5t-135.5 38.5h-19v-360q19 46 62.5 80t104.5 34q84 0 129 -57.5t45 -153.5v-208q0 -81 -36.5 -140t-97.5 -59q-40 0 -66.5 22.5t-26.5 60.5q0 27 16 45.5t38 18.5q23 0 36.5 -14t13.5 -36q0 -24 -15 -37.5t-35 -13.5q-7 0 -14 2t-11 4t-5 2
q-5 0 -5 -5q0 -15 21.5 -31t52.5 -16q37 0 68 27t31 70q0 37 -24 122.5t-24 169.5v93q0 54 -34 86t-88 32q-60 0 -98 -46t-38 -104v-282h62v-3h-207v3h63v694h-18q-93 0 -135.5 -38.5t-49.5 -130.5h-3v209h3q0 -17 9.5 -27t25.5 -10h419q16 0 25.5 10t9.5 27h3v-209z" />
    <glyph glyph-name="uni0403" unicode="&#x403;" horiz-adv-x="461" 
d="M150 781l-1 3q43 19 102 51t79 41q6 2 10 2q9 0 9 -9q0 -8 -12 -12q-15 -6 -48.5 -18.5t-68.5 -27t-70 -30.5zM426 528h-3q-7 92 -49.5 130.5t-135.5 38.5h-73v-694h62v-3h-207v3h63v694h-63v3h368q16 0 25.5 10t9.5 27h3v-209z" />
    <glyph glyph-name="uni0404" unicode="&#x404;" horiz-adv-x="581" 
d="M542 167h4q-9 -80 -66.5 -128.5t-157.5 -48.5q-128 0 -210 103t-82 253q0 156 88.5 260t224.5 104q48 0 93.5 -18.5t65.5 -18.5q16 0 25.5 10t9.5 27h3v-209h-3q-21 100 -64 152.5t-130 52.5q-113 0 -167.5 -98t-54.5 -256v-3h292v-3h-292q2 -148 68.5 -243t174.5 -95
q71 0 120 42t58 117z" />
    <glyph glyph-name="uni0405" unicode="&#x405;" horiz-adv-x="513" 
d="M464 501h-3q-21 98 -67 151.5t-133 53.5q-72 0 -113 -40.5t-41 -101.5q0 -45 20.5 -77.5t54 -52t73.5 -35t80 -32t73.5 -37.5t54 -56.5t20.5 -83.5q0 -87 -63.5 -143.5t-155.5 -56.5q-61 0 -115 27t-80 27q-35 0 -35 -36h-4v209h4q17 -99 78.5 -161t151.5 -62
q73 0 112.5 41t39.5 106q0 44 -20.5 77t-54 52t-73 35t-79.5 32.5t-73.5 37.5t-54 57t-20.5 84q0 89 60 141.5t160 52.5q48 0 96.5 -18.5t68.5 -18.5q16 0 25.5 10t9.5 27h3v-209z" />
    <glyph glyph-name="uni0406" unicode="&#x406;" horiz-adv-x="247" 
d="M165 697v-694h62v-3h-207v3h63v694h-63v3h207v-3h-62z" />
    <glyph glyph-name="uni0407" unicode="&#x407;" horiz-adv-x="247" 
d="M44 858q22 0 35.5 -14t13.5 -37q0 -22 -14.5 -36.5t-34.5 -14.5q-21 0 -34.5 14t-13.5 36t14 37t34 15zM203 858q22 0 35.5 -14t13.5 -37q0 -22 -14.5 -36.5t-34.5 -14.5q-21 0 -34.5 14t-13.5 36t14 37t34 15zM165 697v-694h62v-3h-207v3h63v694h-63v3h207v-3h-62z" />
    <glyph glyph-name="uni0408" unicode="&#x408;" horiz-adv-x="333" 
d="M251 697v-499q0 -91 -29 -148.5t-95 -57.5q-50 0 -78.5 30.5t-28.5 76.5q0 29 16.5 48.5t40.5 19.5q25 0 39 -15t14 -38q0 -25 -15.5 -39.5t-37.5 -14.5q-10 0 -21 4l-11 4q-5 0 -5 -5q0 -22 23 -45.5t64 -23.5t67 25.5t26 72.5q0 39 -25.5 125.5t-25.5 175.5v304h-63v3
h207v-3h-62z" />
    <glyph glyph-name="uni0409" unicode="&#x409;" horiz-adv-x="977" 
d="M643 697h-64v-345h125q123 0 188 -47t65 -125q0 -79 -71.5 -129.5t-178.5 -50.5h-273v3h63v694h-254v-393q0 -156 -46.5 -232t-119.5 -76q-28 0 -47.5 18t-19.5 43q0 28 16 44.5t42 16.5t41 -16.5t15 -39.5q0 -8 -2 -16.5t-4.5 -14t-2.5 -6.5q0 -8 7 -8q16 0 34.5 15
t38 45.5t32 90t12.5 136.5v268q0 62 -23 93.5t-53 31.5h-13v3h493v-3zM579 349v-346h116q89 0 132 47t43 127q0 77 -43 124.5t-128 47.5h-120z" />
    <glyph glyph-name="uni040A" unicode="&#x40a;" horiz-adv-x="987" 
d="M653 697h-64v-345h125q123 0 188 -47t65 -125q0 -79 -71.5 -129.5t-178.5 -50.5h-273v3h63v343h-342v-343h62v-3h-207v3h63v694h-63v3h207v-3h-62v-348h342v348h-63v3h209v-3zM589 349v-346h116q89 0 132 47t43 127q0 77 -43 124.5t-128 47.5h-120z" />
    <glyph glyph-name="uni040B" unicode="&#x40b;" horiz-adv-x="744" 
d="M530 528h-3q-7 92 -49.5 130.5t-135.5 38.5h-19v-360q19 46 62.5 80t104.5 34q84 0 129 -57.5t45 -153.5v-237h65v-3h-212v3h64v314q0 54 -33.5 86t-88.5 32q-60 0 -98 -46t-38 -104v-282h62v-3h-207v3h63v694h-18q-93 0 -135.5 -38.5t-49.5 -130.5h-3v209h3
q0 -17 9.5 -27t25.5 -10h419q16 0 25.5 10t9.5 27h3v-209z" />
    <glyph glyph-name="uni040C" unicode="&#x40c;" horiz-adv-x="625" 
d="M215 781l-1 3q43 19 102 51t79 41q6 2 10 2q9 0 9 -9q0 -8 -12 -12q-15 -6 -48.5 -18.5t-68.5 -27t-70 -30.5zM165 368h27q51 0 93 18.5t68.5 50t43 65.5t25.5 71q16 69 39.5 101.5t62.5 32.5q27 0 42.5 -15t15.5 -40t-15.5 -40.5t-38.5 -15.5q-14 0 -33.5 9t-29.5 9
q-26 0 -39 -46q-22 -80 -70.5 -134.5t-124.5 -65.5q104 -3 169.5 -73t91.5 -174q11 -47 24 -68.5t35 -21.5q16 0 26 14.5t10 35.5v21h3v-21q0 -37 -18.5 -64t-57.5 -27q-46 0 -71.5 34t-37.5 97q-12 58 -24 95.5t-33 75t-54 55.5t-79 18h-50v-362h62v-3h-207v3h63v694h-63v3
h207v-3h-62v-329z" />
    <glyph glyph-name="uni040E" unicode="&#x40e;" horiz-adv-x="617" 
d="M486 882h3q-42 -99 -156 -99t-156 99h3q37 -85 153 -85t153 85zM617 697h-4q-55 0 -114 -120l-203 -419q-45 -94 -77.5 -131.5t-80.5 -37.5q-51 0 -78 30.5t-27 78.5q0 29 17.5 49.5t41.5 20.5q26 0 40.5 -15.5t14.5 -39.5q0 -26 -16.5 -41t-38.5 -15q-7 0 -14.5 2.5
t-12 4.5t-5.5 2q-6 0 -6 -5q0 -23 21 -45.5t63 -22.5q47 0 77.5 36t76.5 130l34 69l-274 469h-52v3h213v-3h-67l219 -387l130 268q19 41 19 67q0 52 -60 52h-7v3h170v-3z" />
    <glyph glyph-name="uni040F" unicode="&#x40f;" horiz-adv-x="655" 
d="M635 697h-62v-694h61v-3h-181q-62 0 -90.5 -35.5t-33.5 -126.5h-2q-5 91 -33.5 126.5t-90.5 35.5h-183v3h63v694h-63v3h207v-3h-62v-694h326v694h-63v3h207v-3z" />
    <glyph glyph-name="uni0410" unicode="&#x410;" horiz-adv-x="675" 
d="M675 3v-3h-210v3h66l-116 297h-247l-68 -188q-10 -28 -10 -47q0 -62 73 -62h7v-3h-170v3h4q32 0 52.5 28.5t39.5 81.5l214 587h37l272 -697h56zM414 303l-126 325l-119 -325h245z" />
    <glyph glyph-name="uni0411" unicode="&#x411;" horiz-adv-x="563" 
d="M489 528h-3q-7 92 -49.5 130.5t-135.5 38.5h-136v-345h131q120 0 183.5 -47t63.5 -125q0 -79 -71.5 -129.5t-178.5 -50.5h-273v3h63v694h-63v3h431q16 0 25.5 10t9.5 27h3v-209zM165 349v-346h116q89 0 132 47t43 127q0 77 -43 124.5t-128 47.5h-120z" />
    <glyph glyph-name="uni0412" unicode="&#x412;" horiz-adv-x="563" 
d="M20 700h269q104 0 162 -47t58 -127q0 -70 -52 -116.5t-136 -57.5q103 -3 162.5 -49.5t59.5 -122.5q0 -79 -71.5 -129.5t-178.5 -50.5h-273v3h63v694h-63v3zM165 352h98q159 0 159 171q0 79 -37.5 126.5t-117.5 47.5h-102v-345zM165 3h116q89 0 132 47t43 127
q0 77 -43 124.5t-128 47.5h-120v-346z" />
    <glyph glyph-name="uni0413" unicode="&#x413;" horiz-adv-x="461" 
d="M426 528h-3q-7 92 -49.5 130.5t-135.5 38.5h-73v-694h62v-3h-207v3h63v694h-63v3h368q16 0 25.5 10t9.5 27h3v-209z" />
    <glyph glyph-name="uni0414" unicode="&#x414;" horiz-adv-x="633" 
d="M613 697h-62v-694h62v-165h-3q-7 91 -49 126.5t-136 35.5h-227q-94 0 -136 -35.5t-49 -126.5h-3v165h39q70 0 116 73.5t46 227.5v268q0 62 -23 93.5t-53 31.5h-13v3h491v-3zM215 697v-393q0 -137 -37 -211t-97 -90h388v694h-254z" />
    <glyph glyph-name="uni0415" unicode="&#x415;" horiz-adv-x="564" 
d="M494 526h-2q-16 95 -53 133t-123 38h-151v-345h96q66 0 96.5 27t37.5 81h3v-219h-3q-7 54 -37.5 81t-96.5 27h-96v-346h161q86 0 123 38t53 133h2v-174h-484v3h63v694h-63v3h474v-174z" />
    <glyph glyph-name="uni0416" unicode="&#x416;" horiz-adv-x="812" 
d="M802 102v-21q0 -37 -18.5 -64t-57.5 -27q-46 0 -71.5 34t-37.5 97q-25 122 -41 158q-42 83 -129 86v-362h63v-3h-207v3h62v362q-35 0 -61.5 -12t-42 -30t-28 -50t-19 -60t-15.5 -71q-3 -14 -4 -21q-12 -63 -37.5 -97t-71.5 -34q-39 0 -57.5 27t-18.5 64v21h3v-21
q0 -21 10 -35.5t26 -14.5q22 0 35 21.5t24 68.5q60 243 241 247q-72 12 -112 63.5t-63 136.5q-13 46 -39 46q-10 0 -29.5 -9t-33.5 -9q-23 0 -38.5 15.5t-15.5 40.5t15.5 40t42.5 15q39 0 62.5 -32.5t39.5 -101.5q9 -38 20.5 -67.5t32.5 -61t55 -51.5t79 -24v328h-62v3h207
v-3h-63v-328q45 4 79 24t55 51.5t32.5 61t20.5 67.5q16 69 39.5 101.5t62.5 32.5q27 0 42.5 -15t15.5 -40t-15.5 -40.5t-38.5 -15.5q-14 0 -33.5 9t-29.5 9q-26 0 -39 -46q-23 -85 -63 -136.5t-112 -63.5q181 -4 241 -247q11 -47 24 -68.5t35 -21.5q16 0 26 14.5t10 35.5v21
h3z" />
    <glyph glyph-name="uni0417" unicode="&#x417;" horiz-adv-x="529" 
d="M75 708h3q0 -27 28 -27q16 0 62.5 13.5t84.5 13.5q100 0 159.5 -43.5t59.5 -126.5q0 -70 -55.5 -120t-142.5 -61q101 -5 160.5 -50.5t59.5 -119.5q0 -86 -68 -142.5t-179 -56.5q-97 0 -149 42t-52 94q0 25 14.5 42.5t36.5 17.5q23 0 38 -15t15 -36q0 -23 -15 -37t-35 -14
q-7 0 -14 2t-11 4t-5 2q-5 0 -5 -5q0 -26 43.5 -57.5t118.5 -31.5q85 0 134 52t49 129q0 78 -47 128t-132 50h-71v3h70q80 2 117.5 50.5t37.5 126.5q0 83 -30.5 126t-101.5 43t-115 -42.5t-60 -112.5h-3v159z" />
    <glyph glyph-name="uni0418" unicode="&#x418;" horiz-adv-x="671" 
d="M651 697h-62v-694h62v-3h-207v3h63v643l-342 -594v-49h62v-3h-207v3h63v694h-63v3h207v-3h-62v-638l342 594v44h-63v3h207v-3z" />
    <glyph glyph-name="uni0419" unicode="&#x419;" horiz-adv-x="671" 
d="M490 882h3q-42 -99 -156 -99t-156 99h3q37 -85 153 -85t153 85zM589 697v-694h62v-3h-207v3h63v643l-342 -594v-49h62v-3h-207v3h63v694h-63v3h207v-3h-62v-638l342 594v44h-63v3h207v-3h-62z" />
    <glyph glyph-name="uni041A" unicode="&#x41a;" horiz-adv-x="625" 
d="M165 368h27q51 0 93 18.5t68.5 50t43 65.5t25.5 71q16 69 39.5 101.5t62.5 32.5q27 0 42.5 -15t15.5 -40t-15.5 -40.5t-38.5 -15.5q-14 0 -33.5 9t-29.5 9q-26 0 -39 -46q-22 -80 -70.5 -134.5t-124.5 -65.5q104 -3 169.5 -73t91.5 -174q11 -47 24 -68.5t35 -21.5
q16 0 26 14.5t10 35.5v21h3v-21q0 -37 -18.5 -64t-57.5 -27q-46 0 -71.5 34t-37.5 97q-12 58 -24 95.5t-33 75t-54 55.5t-79 18h-50v-362h62v-3h-207v3h63v694h-63v3h207v-3h-62v-329z" />
    <glyph glyph-name="uni041B" unicode="&#x41b;" horiz-adv-x="656" 
d="M636 697h-62v-694h62v-3h-207v3h63v694h-254v-393q0 -156 -46.5 -232t-119.5 -76q-28 0 -47.5 18t-19.5 43q0 28 16 44.5t42 16.5t41 -16.5t15 -39.5q0 -8 -2.5 -16.5t-4.5 -14t-2 -6.5q0 -8 7 -8q16 0 34.5 15t38 45.5t32 90t12.5 136.5v268q0 62 -23 93.5t-53 31.5h-13
v3h491v-3z" />
    <glyph glyph-name="uni041C" unicode="&#x41c;" horiz-adv-x="744" 
d="M662 697v-694h62v-3h-205v3h63v684l-217 -687h-34l-244 686v-558q0 -65 20.5 -95t52.5 -30v-3h-140v3q28 0 45.5 31t17.5 94v569h-63v3h148l218 -622l196 622h142v-3h-62z" />
    <glyph glyph-name="uni041D" unicode="&#x41d;" horiz-adv-x="671" 
d="M444 700h207v-3h-62v-694h62v-3h-207v3h63v343h-342v-343h62v-3h-207v3h63v694h-63v3h207v-3h-62v-348h342v348h-63v3z" />
    <glyph glyph-name="uni041E" unicode="&#x41e;" horiz-adv-x="704" 
d="M352 710q153 0 237.5 -98.5t84.5 -257.5q0 -157 -90.5 -261t-231.5 -104q-153 0 -237.5 99t-84.5 258q0 157 90.5 260.5t231.5 103.5zM352 706q-118 0 -174.5 -98t-56.5 -256q0 -152 59.5 -255.5t171.5 -103.5q118 0 174.5 98.5t56.5 256.5q0 152 -59.5 255t-171.5 103z
" />
    <glyph glyph-name="uni041F" unicode="&#x41f;" horiz-adv-x="655" 
d="M635 697h-62v-694h62v-3h-207v3h63v694h-326v-694h62v-3h-207v3h63v694h-63v3h615v-3z" />
    <glyph glyph-name="uni0420" unicode="&#x420;" horiz-adv-x="563" 
d="M20 700h287q108 0 172 -49.5t64 -129.5q0 -79 -72 -133t-178 -54h-128v-331h62v-3h-207v3h63v694h-63v3zM165 337h116q88 0 131.5 50.5t43.5 130.5q0 78 -43.5 128.5t-127.5 50.5h-120v-360z" />
    <glyph glyph-name="uni0421" unicode="&#x421;" horiz-adv-x="581" 
d="M542 167h4q-9 -80 -66.5 -128.5t-157.5 -48.5q-128 0 -210 103t-82 253q0 156 88.5 260t224.5 104q48 0 93.5 -18.5t65.5 -18.5q16 0 25.5 10t9.5 27h3v-209h-3q-21 100 -64 152.5t-130 52.5q-113 0 -167.5 -98t-54.5 -256q0 -150 67 -247t176 -97q71 0 120 42t58 117z
" />
    <glyph glyph-name="uni0422" unicode="&#x422;" horiz-adv-x="604" 
d="M569 528h-3q-7 92 -49.5 130.5t-135.5 38.5h-38v-694h62v-3h-207v3h63v694h-38q-93 0 -135.5 -38.5t-49.5 -130.5h-3v209h3q0 -17 9.5 -27t25.5 -10h458q16 0 25.5 10t9.5 27h3v-209z" />
    <glyph glyph-name="uni0423" unicode="&#x423;" horiz-adv-x="617" 
d="M617 697h-4q-55 0 -114 -120l-203 -419q-45 -94 -77.5 -131.5t-80.5 -37.5q-51 0 -78 30.5t-27 78.5q0 29 17.5 49.5t41.5 20.5q26 0 40.5 -15.5t14.5 -39.5q0 -26 -16.5 -41t-38.5 -15q-7 0 -14.5 2.5t-12 4.5t-5.5 2q-6 0 -6 -5q0 -23 21 -45.5t63 -22.5q47 0 77.5 36
t76.5 130l34 69l-274 469h-52v3h213v-3h-67l219 -387l130 268q19 41 19 67q0 52 -60 52h-7v3h170v-3z" />
    <glyph glyph-name="uni0424" unicode="&#x424;" horiz-adv-x="776" 
d="M492 697h-63v-117h37q128 0 209 -60.5t81 -157.5q0 -93 -75 -157t-201 -63h-51v-139h63v-3h-208v3h63v138h-37q-127 0 -208.5 62t-81.5 158q0 93 75 155.5t201 62.5h51v118h-63v3h208v-3zM429 577v-432h20q103 -1 155 60t52 155q0 96 -52 156.5t-159 60.5h-16zM347 576
h-20q-103 0 -155 -61t-52 -154q0 -96 52 -156.5t159 -60.5h16v432z" />
    <glyph glyph-name="uni0425" unicode="&#x425;" horiz-adv-x="644" 
d="M622 700v-3q-36 0 -67 -28t-69 -82l-140 -204l241 -380h52v-3h-213v3h67l-199 319l-144 -210q-32 -45 -32 -72q0 -37 61 -37v-3h-169v3q24 0 50 18t40.5 35.5t45.5 56.5l146 212l-235 372h-52v3h213v-3h-67l193 -310l138 201q31 46 31 72q0 37 -61 37v3h170z" />
    <glyph glyph-name="uni0426" unicode="&#x426;" horiz-adv-x="655" 
d="M635 697h-62v-694h61v-165h-3q-7 91 -49 126.5t-136 35.5h-426v3h63v694h-63v3h207v-3h-62v-694h326v694h-63v3h207v-3z" />
    <glyph glyph-name="uni0427" unicode="&#x427;" horiz-adv-x="586" 
d="M566 697h-63v-694h59v-3h-205v3h64v360q-19 -46 -62.5 -80t-104.5 -34q-84 0 -129 57.5t-45 153.5v237h-65v3h212v-3h-64v-314q0 -54 33.5 -86t88.5 -32q60 0 98 46t38 104v282h-62v3h207v-3z" />
    <glyph glyph-name="uni0428" unicode="&#x428;" horiz-adv-x="943" 
d="M923 697h-62v-694h61v-3h-902v3h63v694h-63v3h207v-3h-62v-694h266v694h-63v3h207v-3h-62v-694h266v694h-63v3h207v-3z" />
    <glyph glyph-name="uni0429" unicode="&#x429;" horiz-adv-x="943" 
d="M923 697h-62v-694h61v-165h-3q-7 91 -49 126.5t-136 35.5h-714v3h63v694h-63v3h207v-3h-62v-694h266v694h-63v3h207v-3h-62v-694h266v694h-63v3h207v-3z" />
    <glyph glyph-name="uni042A" unicode="&#x42a;" horiz-adv-x="703" 
d="M35 737h3q0 -17 9.5 -27t25.5 -10h296v-3h-64v-345h125q123 0 188 -47t65 -125q0 -79 -71.5 -129.5t-178.5 -50.5h-273v3h63v694q-93 0 -135.5 -38.5t-49.5 -130.5h-3v209zM305 349v-346h116q89 0 132 47t43 127q0 77 -43 124.5t-128 47.5h-120z" />
    <glyph glyph-name="uni042B" unicode="&#x42b;" horiz-adv-x="807" 
d="M236 697h-71v-345h131q120 0 183.5 -47t63.5 -125q0 -79 -71.5 -129.5t-178.5 -50.5h-273v3h63v694h-63v3h216v-3zM787 697h-62v-694h62v-3h-207v3h63v694h-63v3h207v-3zM165 349v-346h116q89 0 132 47t43 127q0 77 -43 124.5t-128 47.5h-120z" />
    <glyph glyph-name="uni042C" unicode="&#x42c;" horiz-adv-x="563" 
d="M229 697h-64v-345h125q123 0 188 -47t65 -125q0 -79 -71.5 -129.5t-178.5 -50.5h-273v3h63v694h-63v3h209v-3zM165 349v-346h116q89 0 132 47t43 127q0 77 -43 124.5t-128 47.5h-120z" />
    <glyph glyph-name="uni042D" unicode="&#x42d;" horiz-adv-x="581" 
d="M45 710h3q0 -17 9.5 -27t25.5 -10q20 0 65.5 18.5t93.5 18.5q136 0 222.5 -99t86.5 -255q0 -154 -81 -260t-209 -106q-100 0 -157.5 48.5t-66.5 128.5h4q9 -75 58 -117t120 -42q107 0 173 94.5t68 243.5h-290v3h290v7q0 158 -52.5 254t-165.5 96q-87 0 -130 -52.5
t-64 -152.5h-3v209z" />
    <glyph glyph-name="uni042E" unicode="&#x42e;" horiz-adv-x="867" 
d="M165 349h166q1 149 77 254t183 105q110 0 183 -101.5t73 -252.5q0 -150 -77 -256.5t-184 -106.5q-110 0 -182.5 102.5t-72.5 252.5h-166v-343h62v-3h-207v3h63v694h-63v3h207v-3h-62v-348zM586 -5q86 0 129.5 97.5t43.5 254.5t-43 256.5t-125 99.5q-86 0 -129.5 -96
t-43.5 -254t43 -258t125 -100z" />
    <glyph glyph-name="uni042F" unicode="&#x42f;" horiz-adv-x="610" 
d="M590 697h-63v-694h63v-3h-207v3h62v337h-117q-47 0 -78 -15t-47 -45.5t-22 -67.5t-6 -91q0 -65 -16.5 -98t-62.5 -33q-39 0 -57.5 27t-18.5 64v21h3v-21q0 -21 10 -35.5t26 -14.5q22 0 30 21.5t8 68.5q0 99 45 156.5t138 64.5q-94 9 -153.5 56.5t-59.5 118.5
q0 80 64 131.5t172 51.5h287v-3zM445 697h-120q-84 0 -127.5 -49.5t-43.5 -126.5q0 -80 43 -129t132 -49h116v354z" />
    <glyph glyph-name="uni0430" unicode="&#x430;" horiz-adv-x="509" 
d="M501 70h3q-2 -28 -23.5 -54t-60.5 -26q-77 0 -84 96q-17 -38 -59.5 -67t-97.5 -29q-56 0 -95 32.5t-39 88.5q0 52 31 84t75 47l88 30t75 47.5t31 85.5q0 109 -132 109q-58 0 -95.5 -31.5t-37.5 -53.5q0 -5 5 -5q1 0 5 2t11 4t14 2q20 0 35 -14t15 -37q0 -21 -14.5 -36
t-38.5 -15q-22 0 -36.5 16t-14.5 41q0 50 46 91t121 41q86 0 135 -53t49 -141v-255q0 -23 12 -35t30 -12q19 0 32 13t15 34zM335 120v219q-15 -25 -43 -44.5t-55 -33t-53 -30.5t-42 -45t-16 -68q0 -46 27 -73t72 -27q49 0 79.5 30t30.5 72z" />
    <glyph glyph-name="uni0431" unicode="&#x431;" horiz-adv-x="547" 
d="M405 721v7q30 -8 50.5 -28.5t20.5 -53.5q0 -44 -39 -64.5t-134 -20.5q-65 0 -109.5 -13t-78.5 -45.5t-50 -90t-17 -143.5q11 94 73.5 160t154.5 66q97 0 161.5 -70t64.5 -176q0 -108 -63.5 -183.5t-163.5 -75.5q-103 0 -166.5 74t-63.5 200q0 339 250 362q77 7 106.5 18
t29.5 37q0 19 -6 27t-20 13zM271 489q-78 0 -110.5 -60.5t-32.5 -170.5q0 -122 34 -192.5t99 -70.5q76 0 117 69.5t41 179.5t-38.5 177.5t-109.5 67.5z" />
    <glyph glyph-name="uni0432" unicode="&#x432;" horiz-adv-x="460" 
d="M15 507h207q88 0 134.5 -34t46.5 -92q0 -51 -44 -85t-117 -42q88 -2 135.5 -35t47.5 -88q0 -58 -57.5 -94.5t-148.5 -36.5h-204v3h63v501h-63v3zM155 504v-250h40q129 0 129 124q0 126 -120 126h-49zM155 251v-248h54q132 0 132 125q0 123 -128 123h-58z" />
    <glyph glyph-name="uni0433" unicode="&#x433;" horiz-adv-x="406" 
d="M371 343h-3q-7 88 -47 124.5t-129 36.5h-37v-501h62v-3h-202v3h63v501h-63v3h320q33 0 33 35h3v-199z" />
    <glyph glyph-name="uni0434" unicode="&#x434;" horiz-adv-x="524" 
d="M509 504h-63v-501h63v-165h-3q-7 91 -49 126.5t-136 35.5h-128q-94 0 -136 -35.5t-49 -126.5h-3v165h23q66 0 110 69t44 215v98q0 59 -22 89t-50 30h-13v3h412v-3zM186 504v-217q0 -129 -35 -199t-91 -85h309v501h-183z" />
    <glyph glyph-name="uni0435" unicode="&#x435;" horiz-adv-x="489" 
d="M274 520q76 0 124.5 -36.5t48.5 -94.5q0 -49 -31 -79t-75.5 -44.5t-89.5 -28t-76 -41.5t-31 -73q0 -54 40.5 -91t107.5 -37q58 0 98 31.5t40 53.5q0 5 -5 5q-1 0 -5 -2t-11 -4t-14 -2q-20 0 -35 13.5t-15 37.5q0 22 14.5 36.5t38.5 14.5q22 0 36.5 -16t14.5 -41
q0 -49 -48 -90.5t-124 -41.5q-100 0 -166 76t-66 187t65.5 189t163.5 78zM274 517q-68 0 -107 -77t-39 -192q0 -56 10 -99q8 28 34.5 49.5t58.5 36.5t63 33t51.5 48t20.5 72q0 57 -24.5 93t-67.5 36z" />
    <glyph glyph-name="uni0436" unicode="&#x436;" horiz-adv-x="696" 
d="M676 101v-20q0 -35 -18 -61t-55 -26q-71 0 -104 120q-1 5 -6.5 25t-7 25t-7.5 21t-10 21t-12.5 15.5t-18 14.5t-22.5 8t-29 5v-246h62v-3h-202v3h63v246q-16 -1 -29 -5t-22 -8t-17.5 -14.5t-12.5 -15.5t-10 -21t-7.5 -21t-7 -25t-6.5 -25q-33 -120 -104 -120
q-37 0 -55 26t-18 61v20h3v-20q0 -21 9 -34.5t24 -13.5q31 0 56 88q38 128 197 130q-94 15 -132 137q-12 42 -37 42q-10 0 -28.5 -8.5t-31.5 -8.5q-22 0 -37 15t-15 39q0 23 14.5 37.5t40.5 14.5q37 0 59.5 -31t38.5 -97q35 -123 128 -138v251h-63v3h202v-3h-62v-251
q95 14 129 138q16 66 38.5 97t59.5 31q26 0 40.5 -14.5t14.5 -37.5q0 -24 -15 -39t-37 -15q-13 0 -31.5 8.5t-28.5 8.5q-25 0 -37 -42q-38 -122 -132 -137q90 -1 135 -36t62 -94q25 -88 56 -88q15 0 24 13.5t9 34.5v20h3z" />
    <glyph glyph-name="uni0437" unicode="&#x437;" horiz-adv-x="448" 
d="M62 517h2q0 -26 27 -26q15 0 57 13t75 13q82 0 125 -36.5t43 -96.5q0 -51 -44.5 -86.5t-116.5 -43.5q87 -2 135 -36t48 -90q0 -59 -55.5 -99.5t-144.5 -40.5t-136 40t-47 90q0 24 14 40.5t35 16.5q22 0 36 -14t14 -35q0 -22 -14.5 -35t-33.5 -13q-7 0 -13 2t-10 3.5
t-5 1.5q-5 0 -5 -5q0 -25 39 -54.5t107 -29.5q63 0 99 36.5t36 92.5q0 57 -30.5 91.5t-97.5 34.5h-28v3h15q124 0 124 127q0 130 -102 130q-62 0 -95.5 -38t-50.5 -108h-2v152z" />
    <glyph glyph-name="uni0438" unicode="&#x438;" horiz-adv-x="533" 
d="M518 504h-63v-501h63v-3h-202v3h62v457l-223 -418v-39h62v-3h-202v3h63v501h-63v3h202v-3h-62v-455l223 419v36h-62v3h202v-3z" />
    <glyph glyph-name="uni0439" unicode="&#x439;" horiz-adv-x="533" 
d="M420 729h3q-42 -99 -156 -99t-156 99h3q37 -85 153 -85t153 85zM455 504v-501h63v-3h-202v3h62v457l-223 -418v-39h62v-3h-202v3h63v501h-63v3h202v-3h-62v-455l223 419v36h-62v3h202v-3h-63z" />
    <glyph glyph-name="uni043A" unicode="&#x43a;" horiz-adv-x="498" 
d="M155 504v-253q69 3 108 44t54 96q16 66 38.5 97t59.5 31q26 0 40.5 -14.5t14.5 -37.5q0 -24 -15 -39t-37 -15q-13 0 -31.5 8.5t-28.5 8.5q-25 0 -37 -42q-37 -121 -145 -137q173 -3 210 -130q25 -88 56 -88q15 0 24 13.5t9 34.5v20h3v-20q0 -35 -18 -61t-55 -26
q-71 0 -104 120q-10 37 -16 53t-21 39.5t-39.5 33t-61.5 9.5h-8v-246h62v-3h-202v3h63v501h-63v3h202v-3h-62z" />
    <glyph glyph-name="uni043B" unicode="&#x43b;" horiz-adv-x="557" 
d="M542 504h-63v-501h63v-3h-202v3h62v501h-184v-215q0 -150 -40.5 -221.5t-109.5 -71.5q-26 0 -44.5 17t-18.5 41q0 26 15 42t40 16t39 -15.5t14 -37.5q0 -8 -2 -16t-4 -13l-2 -6q0 -8 6 -8q15 0 31.5 14t33.5 43.5t28 86t11 129.5v97q0 58 -22 88.5t-51 30.5h-12v2h412v-3
z" />
    <glyph glyph-name="uni043C" unicode="&#x43c;" horiz-adv-x="604" 
d="M579 504h-59v-501h59v-3h-195v3h60v491l-157 -494h-32l-176 493v-371q0 -119 69 -119v-3h-133v3q26 0 43 29.5t17 89.5v382h-60v3h141l151 -433l137 433h135v-3z" />
    <glyph glyph-name="uni043D" unicode="&#x43d;" horiz-adv-x="533" 
d="M518 504h-63v-501h63v-3h-202v3h62v247h-223v-247h62v-3h-202v3h63v501h-63v3h202v-3h-62v-251h223v251h-62v3h202v-3z" />
    <glyph glyph-name="uni043E" unicode="&#x43e;" horiz-adv-x="557" 
d="M281 518q99 0 165 -75t66 -185t-69.5 -188.5t-166.5 -78.5q-99 0 -165 75.5t-66 185.5t69.5 188t166.5 78zM281 514q-75 0 -114 -71t-39 -186t38.5 -188.5t109.5 -73.5q75 0 114 71t39 187q0 115 -38.5 188t-109.5 73z" />
    <glyph glyph-name="uni043F" unicode="&#x43f;" horiz-adv-x="532" 
d="M518 504h-63v-501h63v-3h-202v3h62v501h-223v-501h62v-3h-202v3h63v501h-63v3h503v-3z" />
    <glyph glyph-name="uni0440" unicode="&#x440;" horiz-adv-x="553" 
d="M145 507v-77q17 40 55.5 65t90.5 25q98 0 157.5 -71.5t59.5 -182.5t-65 -188.5t-161 -77.5q-48 0 -84 22.5t-53 59.5v-225h62v-3h-202v3h63v647h-63v3h140zM145 378v-244q0 -57 33.5 -90t86.5 -33q76 0 118 68.5t42 181.5q0 111 -41 178t-114 67q-57 0 -91 -34.5
t-34 -93.5z" />
    <glyph glyph-name="uni0441" unicode="&#x441;" horiz-adv-x="471" 
d="M437 121h4q-6 -59 -51 -95t-119 -36q-98 0 -162 76t-64 187q0 110 68 188.5t168 78.5q76 0 116.5 -37.5t40.5 -87.5q0 -25 -14.5 -42.5t-36.5 -17.5q-23 0 -38 14.5t-15 36.5q0 24 15 37.5t35 13.5q7 0 14 -2t11 -4t5 -2q5 0 5 5q0 23 -32.5 52t-90.5 29q-78 0 -123 -69
t-45 -188q0 -111 49 -182.5t129 -71.5q49 0 86.5 31.5t44.5 85.5z" />
    <glyph glyph-name="uni0442" unicode="&#x442;" horiz-adv-x="511" 
d="M481 542v-199h-3q-7 88 -47 124.5t-129 36.5h-8v-501h62v-3h-202v3h63v501h-8q-89 0 -129 -36.5t-47 -124.5h-3v199h3q0 -35 33 -35h379q33 0 33 35h3z" />
    <glyph glyph-name="uni0443" unicode="&#x443;" horiz-adv-x="514" 
d="M135 504l168 -368q11 17 41 64t42.5 68.5t31.5 56.5t26.5 60t7.5 46q0 11 -9 11q-2 0 -13 -4t-21 -4q-20 0 -35.5 14.5t-15.5 38.5q0 22 14.5 37t37.5 15q26 0 42.5 -19t16.5 -48q0 -44 -25.5 -102.5t-62 -116t-73 -114t-62 -110.5t-25.5 -90q0 -10 9 -10q2 0 13 4t21 4
q20 0 35.5 -14.5t15.5 -38.5q0 -22 -14.5 -37t-37.5 -15q-26 0 -42.5 19t-16.5 48q0 62 56 165l-204 440h-56v3h204v-3h-69z" />
    <glyph glyph-name="uni0444" unicode="&#x444;" horiz-adv-x="817" 
d="M447 700v-270q17 39 53.5 64.5t79.5 25.5q86 0 139 -73t53 -181q0 -107 -58.5 -186.5t-142.5 -79.5q-41 0 -74 23t-50 59v-225h62v-3h-202v3h63v233q-17 -39 -53.5 -64.5t-79.5 -25.5q-86 0 -139 73t-53 181q0 107 58.5 186.5t142.5 79.5q41 0 74 -23t50 -59v259h-63v3
h140zM370 142v244q0 56 -31 89.5t-76 33.5q-65 0 -100 -70t-35 -180q0 -108 34.5 -176.5t95.5 -68.5q49 0 80.5 35t31.5 93zM447 378v-244q0 -56 31 -89.5t76 -33.5q65 0 100 70t35 180q0 108 -34.5 176.5t-95.5 68.5q-49 0 -80.5 -35t-31.5 -93z" />
    <glyph glyph-name="uni0445" unicode="&#x445;" horiz-adv-x="543" 
d="M514 507v-3q-8 0 -15.5 -1.5t-14 -4t-14 -7.5t-13 -8.5t-13.5 -12t-12 -12.5t-12.5 -14.5t-12 -15.5t-13 -17t-13.5 -17l-84 -114l189 -277h52v-3h-207v3h67l-155 227l-86 -118q-31 -44 -31 -70q0 -39 63 -39v-3h-169v3q23 0 47 17t34.5 28.5t41.5 52.5q7 8 10 12l88 120
l-184 271h-52v3h207v-3h-67l150 -221l82 112q30 43 30 70q0 39 -63 39v3h170z" />
    <glyph glyph-name="uni0446" unicode="&#x446;" horiz-adv-x="533" 
d="M518 504h-63v-501h63v-157h-3q-7 82 -38.5 116t-106.5 38h-355v3h63v501h-63v3h202v-3h-62v-501h223v501h-62v3h202v-3z" />
    <glyph glyph-name="uni0447" unicode="&#x447;" horiz-adv-x="532" 
d="M516 504h-62v-501h63v-3h-202v3h62v255q-15 -42 -56.5 -74t-98.5 -32q-72 0 -109 50.5t-37 139.5v162h-61v3h202v-3h-63v-233q0 -50 26.5 -77t72.5 -27q54 0 89 42.5t35 96.5v198h-63v3h202v-3z" />
    <glyph glyph-name="uni0448" unicode="&#x448;" horiz-adv-x="783" 
d="M768 504h-63v-501h63v-3h-753v3h63v501h-63v3h202v-3h-62v-501h198v501h-63v3h203v-3h-63v-501h198v501h-62v3h202v-3z" />
    <glyph glyph-name="uni0449" unicode="&#x449;" horiz-adv-x="783" 
d="M768 504h-63v-501h63v-157h-3q-7 82 -38.5 116t-106.5 38h-605v3h63v501h-63v3h202v-3h-62v-501h198v501h-63v3h203v-3h-63v-501h198v501h-62v3h202v-3z" />
    <glyph glyph-name="uni044A" unicode="&#x44a;" horiz-adv-x="577" 
d="M30 542h3q0 -35 33 -35h266v-3h-60v-250h90q87 0 133.5 -33.5t46.5 -89.5q0 -58 -57.5 -94.5t-148.5 -36.5h-204v3h63v501q-81 -3 -118 -40t-44 -121h-3v199zM272 251v-249h54q132 0 132 126q0 123 -125 123h-61z" />
    <glyph glyph-name="uni044B" unicode="&#x44b;" horiz-adv-x="682" 
d="M155 504v-250h90q87 0 133.5 -33.5t46.5 -89.5q0 -58 -57.5 -94.5t-148.5 -36.5h-204v3h63v501h-63v3h200v-3h-60zM677 3v-3h-202v3h63v501h-63v3h140v-504h62zM155 2h54q132 0 132 126q0 123 -125 123h-61v-249z" />
    <glyph glyph-name="uni044C" unicode="&#x44c;" horiz-adv-x="460" 
d="M215 504h-60v-250h90q87 0 133.5 -33.5t46.5 -89.5q0 -58 -57.5 -94.5t-148.5 -36.5h-204v3h63v501h-63v3h200v-3zM155 251v-249h54q132 0 132 126q0 123 -125 123h-61z" />
    <glyph glyph-name="uni044D" unicode="&#x44d;" horiz-adv-x="471" 
d="M165 260h178q-1 119 -44.5 187t-121.5 68q-58 0 -90.5 -29t-32.5 -52q0 -5 5 -5q1 0 5 2t11 4t14 2q20 0 35 -13.5t15 -37.5q0 -22 -14.5 -36.5t-38.5 -14.5q-22 0 -36.5 17.5t-14.5 42.5q0 50 40.5 87.5t116.5 37.5q100 0 167 -75t67 -185q0 -112 -65 -191t-163 -79
q-74 0 -119 36t-51 95h4q7 -54 44.5 -85.5t86.5 -31.5q80 0 130 71.5t50 181.5h-178v3z" />
    <glyph glyph-name="uni044E" unicode="&#x44e;" horiz-adv-x="772" 
d="M155 253h135q0 110 65.5 187.5t155.5 77.5q92 0 154 -75t62 -185t-65.5 -188.5t-155.5 -78.5q-91 0 -153 75t-63 184h-135v-247h62v-3h-202v3h63v501h-63v3h202v-3h-62v-251zM506 -5q68 0 103 71t35 187q0 115 -34.5 188t-98.5 73q-68 0 -103 -70.5t-35 -186.5
q0 -115 34.5 -188.5t98.5 -73.5z" />
    <glyph glyph-name="uni044F" unicode="&#x44f;" horiz-adv-x="501" 
d="M486 504h-63v-501h63v-3h-200v3h60v245h-32q-24 -2 -42.5 -11.5t-29 -18.5t-20.5 -31t-13.5 -33t-11.5 -40q-33 -120 -104 -120q-37 0 -55 26t-18 61v20h3v-20q0 -21 9 -34.5t24 -13.5q31 0 56 88q31 110 165 127q-99 0 -146.5 35t-47.5 94q0 58 55.5 94t145.5 36h202v-3
zM346 505h-47q-132 0 -132 -128q0 -126 125 -126h54v254z" />
    <glyph glyph-name="uni0451" unicode="&#x451;" horiz-adv-x="489" 
d="M191 705q22 0 35.5 -14t13.5 -37q0 -22 -14.5 -36.5t-34.5 -14.5q-21 0 -34.5 14t-13.5 36t14 37t34 15zM350 705q22 0 35.5 -14t13.5 -37q0 -22 -14.5 -36.5t-34.5 -14.5q-21 0 -34.5 14t-13.5 36t14 37t34 15zM274 520q76 0 124.5 -36.5t48.5 -94.5q0 -49 -31 -79
t-75.5 -44.5t-89.5 -28t-76 -41.5t-31 -73q0 -54 40.5 -91t107.5 -37q58 0 98 31.5t40 53.5q0 5 -5 5q-1 0 -5 -2t-11 -4t-14 -2q-20 0 -35 13.5t-15 37.5q0 22 14.5 36.5t38.5 14.5q22 0 36.5 -16t14.5 -41q0 -49 -48 -90.5t-124 -41.5q-100 0 -166 76t-66 187t65.5 189
t163.5 78zM274 517q-68 0 -107 -77t-39 -192q0 -56 10 -99q8 28 34.5 49.5t58.5 36.5t63 33t51.5 48t20.5 72q0 57 -24.5 93t-67.5 36z" />
    <glyph glyph-name="uni0452" unicode="&#x452;" horiz-adv-x="520" 
d="M155 601v-190q15 42 56.5 74t98.5 32q72 0 108.5 -50.5t36.5 -139.5v-295q0 -82 -34 -140.5t-94 -58.5q-40 0 -66.5 22.5t-26.5 60.5q0 27 16 45.5t38 18.5q23 0 36.5 -14t13.5 -36q0 -24 -15 -37.5t-35 -13.5q-7 0 -14 2t-11 4t-5 2q-5 0 -5 -5q0 -15 21.5 -31t52.5 -16
q37 0 68 27t31 70q0 37 -24 122.5t-24 169.5v174q0 50 -26.5 77t-72.5 27q-54 0 -89 -42.5t-35 -96.5v-360h62v-3h-202v3h63v598h-62v3h62v93h-63v3h140v-96h158v-3h-158z" />
    <glyph glyph-name="uni0453" unicode="&#x453;" horiz-adv-x="406" 
d="M117 628l-1 3q43 19 102 51t79 41q6 2 10 2q9 0 9 -9q0 -8 -12 -12q-15 -6 -48.5 -18.5t-68.5 -27t-70 -30.5zM371 343h-3q-7 88 -47 124.5t-129 36.5h-37v-501h62v-3h-202v3h63v501h-63v3h320q33 0 33 35h3v-199z" />
    <glyph glyph-name="uni0454" unicode="&#x454;" horiz-adv-x="471" 
d="M437 121h4q-6 -59 -51 -95t-119 -36q-98 0 -162 76t-64 187q0 110 68 188.5t168 78.5q76 0 116.5 -37.5t40.5 -87.5q0 -25 -14.5 -42.5t-36.5 -17.5q-23 0 -38 14.5t-15 36.5q0 24 15 37.5t35 13.5q7 0 14 -2t11 -4t5 -2q5 0 5 5q0 23 -32.5 52t-90.5 29
q-78 0 -122.5 -68t-45.5 -187h169v-3h-169q0 -110 49 -181.5t129 -71.5q49 0 86.5 31.5t44.5 85.5z" />
    <glyph glyph-name="uni0455" unicode="&#x455;" horiz-adv-x="442" 
d="M387 360h-3q-31 154 -160 154q-58 0 -87.5 -28.5t-29.5 -73.5q0 -43 30.5 -71.5t73.5 -44t86.5 -32t74 -48t30.5 -79.5q0 -64 -52.5 -105.5t-130.5 -41.5q-77 0 -128 39.5t-51 88.5q0 25 14.5 41t36.5 16q23 0 38 -14.5t15 -36.5q0 -24 -15 -37.5t-35 -13.5q-7 0 -14 2
t-11 4t-5 2q-5 0 -5 -5q0 -21 44.5 -51t109.5 -30q59 0 94 29.5t35 74.5q0 43 -30.5 71t-74 44t-86.5 32t-73.5 48t-30.5 80q0 66 48 105.5t129 39.5q43 0 80 -13.5t52 -13.5q28 0 28 27h3v-159z" />
    <glyph glyph-name="uni0456" unicode="&#x456;" horiz-adv-x="222" 
d="M114 705q22 0 35.5 -14t13.5 -37q0 -22 -14.5 -36.5t-34.5 -14.5q-21 0 -34.5 14t-13.5 36t14 37t34 15zM217 3v-3h-202v3h63v501h-63v3h140v-504h62z" />
    <glyph glyph-name="uni0457" unicode="&#x457;" horiz-adv-x="222" 
d="M39 705q22 0 35.5 -14t13.5 -37q0 -22 -14.5 -36.5t-34.5 -14.5q-21 0 -34.5 14t-13.5 36t14 37t34 15zM198 705q22 0 35.5 -14t13.5 -37q0 -22 -14.5 -36.5t-34.5 -14.5q-21 0 -34.5 14t-13.5 36t14 37t34 15zM217 3v-3h-202v3h63v501h-63v3h140v-504h62z" />
    <glyph glyph-name="uni0458" unicode="&#x458;" horiz-adv-x="216" 
d="M107 705q22 0 35.5 -14t13.5 -37q0 -22 -14.5 -36.5t-34.5 -14.5q-21 0 -34.5 14t-13.5 36t14 37t34 15zM148 507v-475q0 -82 -34 -140.5t-94 -58.5q-40 0 -66.5 22.5t-26.5 60.5q0 27 16 45.5t38 18.5q23 0 36.5 -14t13.5 -36q0 -24 -15 -37.5t-35 -13.5q-7 0 -14 2
t-11 4t-5 2q-5 0 -5 -5q0 -15 21.5 -31t52.5 -16q37 0 68 27t31 70q0 37 -24 122.5t-24 169.5v280h-63v3h140z" />
    <glyph glyph-name="uni0459" unicode="&#x459;" horiz-adv-x="764" 
d="M519 504h-60v-250h90q87 0 133.5 -33.5t46.5 -89.5q0 -58 -57.5 -94.5t-148.5 -36.5h-204v3h63v501h-164v-215q0 -150 -40.5 -221.5t-109.5 -71.5q-26 0 -44.5 17t-18.5 41q0 26 15 42t40 16t39 -15.5t14 -37.5q0 -8 -2 -16t-4 -13l-2 -6q0 -8 6 -8q15 0 31.5 14
t33.5 43.5t28 86t11 129.5v97q0 58 -22 88.5t-51 30.5h-12v2h389v-3zM459 251v-249h54q132 0 132 126q0 123 -125 123h-61z" />
    <glyph glyph-name="uni045A" unicode="&#x45a;" horiz-adv-x="735" 
d="M490 504h-60v-250h90q87 0 133.5 -33.5t46.5 -89.5q0 -58 -57.5 -94.5t-148.5 -36.5h-204v3h63v247h-198v-247h62v-3h-202v3h63v501h-63v3h202v-3h-62v-251h198v251h-63v3h200v-3zM430 251v-249h54q132 0 132 126q0 123 -125 123h-61z" />
    <glyph glyph-name="uni045B" unicode="&#x45b;" horiz-adv-x="532" 
d="M543 70h3q-2 -28 -24 -54t-62 -26q-39 0 -60.5 29t-21.5 82v297q0 50 -26.5 77t-72.5 27q-54 0 -89 -42.5t-35 -96.5v-360h62v-3h-202v3h63v598h-62v3h62v93h-63v3h140v-96h158v-3h-158v-190q15 42 56.5 74t98.5 32q72 0 109 -50.5t37 -139.5v-257q0 -23 12.5 -35
t30.5 -12q17 0 30 13t14 34z" />
    <glyph glyph-name="uni045C" unicode="&#x45c;" horiz-adv-x="498" 
d="M201 628l-1 3q43 19 102 51t79 41q6 2 10 2q9 0 9 -9q0 -8 -12 -12q-15 -6 -48.5 -18.5t-68.5 -27t-70 -30.5zM155 504v-253q69 3 108 44t54 96q16 66 38.5 97t59.5 31q26 0 40.5 -14.5t14.5 -37.5q0 -24 -15 -39t-37 -15q-13 0 -31.5 8.5t-28.5 8.5q-25 0 -37 -42
q-37 -121 -145 -137q173 -3 210 -130q25 -88 56 -88q15 0 24 13.5t9 34.5v20h3v-20q0 -35 -18 -61t-55 -26q-71 0 -104 120q-10 37 -16 53t-21 39.5t-39.5 33t-61.5 9.5h-8v-246h62v-3h-202v3h63v501h-63v3h202v-3h-62z" />
    <glyph glyph-name="uni045E" unicode="&#x45e;" horiz-adv-x="514" 
d="M433 729h3q-42 -99 -156 -99t-156 99h3q37 -85 153 -85t153 85zM135 504l168 -368q11 17 41 64t42.5 68.5t31.5 56.5t26.5 60t7.5 46q0 11 -9 11q-2 0 -13 -4t-21 -4q-20 0 -35.5 14.5t-15.5 38.5q0 22 14.5 37t37.5 15q26 0 42.5 -19t16.5 -48q0 -44 -25.5 -102.5
t-62 -116t-73 -114t-62 -110.5t-25.5 -90q0 -10 9 -10q2 0 13 4t21 4q20 0 35.5 -14.5t15.5 -38.5q0 -22 -14.5 -37t-37.5 -15q-26 0 -42.5 19t-16.5 48q0 62 56 165l-204 440h-56v3h204v-3h-69z" />
    <glyph glyph-name="uni045F" unicode="&#x45f;" horiz-adv-x="533" 
d="M518 504h-63v-501h63v-3h-133q-59 0 -86 -34t-32 -120h-2q-5 86 -32 120t-86 34h-132v3h63v501h-63v3h202v-3h-62v-501h223v501h-62v3h202v-3z" />
    <glyph glyph-name="uni0462" unicode="&#x462;" horiz-adv-x="721" 
d="M323 352h125q123 0 188 -47t65 -125q0 -79 -71.5 -129.5t-178.5 -50.5h-273v3h63v595h-18q-93 0 -135.5 -38.5t-49.5 -130.5h-3v209h3q0 -17 9.5 -27t25.5 -10h168v96h-63v3h209v-3h-64v-96h169q16 0 25.5 10t9.5 27h3v-209h-3q-7 92 -49.5 130.5t-135.5 38.5h-19v-246z
M323 3h116q89 0 132 47t43 127q0 77 -43 124.5t-128 47.5h-120v-346z" />
    <glyph glyph-name="uni0463" unicode="&#x463;" horiz-adv-x="577" 
d="M272 254h90q87 0 133.5 -33.5t46.5 -89.5q0 -58 -57.5 -94.5t-148.5 -36.5h-204v3h63v501q-81 -3 -118 -40t-44 -121h-3v199h3q0 -35 33 -35h129v190h-63v3h140v-193h126q33 0 33 35h3v-199h-3q-7 83 -43.5 120t-115.5 41v-250zM272 2h54q132 0 132 126q0 123 -125 123
h-61v-249z" />
    <glyph glyph-name="uni0472" unicode="&#x472;" horiz-adv-x="704" 
d="M352 710q153 0 237.5 -98.5t84.5 -257.5q0 -157 -90.5 -261t-231.5 -104q-153 0 -237.5 99t-84.5 258q0 157 90.5 260.5t231.5 103.5zM352 706q-118 0 -174.5 -98t-56.5 -256v-24q45 68 124 68q30 0 57.5 -12t46.5 -27t49.5 -27t65.5 -12q78 0 118 58q-6 143 -64.5 236.5
t-165.5 93.5zM352 -7q118 0 174.5 98.5t56.5 256.5v22q-46 -66 -124 -66q-39 0 -72 12t-51.5 27t-44 27t-52.5 12q-76 0 -117 -59q4 -92 29 -164.5t77 -119t124 -46.5z" />
    <glyph glyph-name="uni0473" unicode="&#x473;" horiz-adv-x="557" 
d="M281 518q99 0 165 -75t66 -185t-69.5 -188.5t-166.5 -78.5q-99 0 -165 75.5t-66 185.5t69.5 188t166.5 78zM281 514q-75 0 -114 -71t-39 -186v-12q29 49 81 49q30 0 69.5 -30.5t74.5 -30.5q49 0 76 42q-4 106 -42 172.5t-106 66.5zM276 -5q75 0 114 71t39 187v17
q-29 -48 -81 -48q-27 0 -48.5 9.5t-33 21t-28 21t-34.5 9.5q-49 0 -76 -43q3 -109 41 -177t107 -68z" />
    <glyph glyph-name="uni0474" unicode="&#x474;" horiz-adv-x="705" 
d="M376 74l153 479q25 78 52.5 116t65.5 38q27 0 42.5 -15t15.5 -40t-15.5 -40.5t-38.5 -15.5q-14 0 -32.5 9t-30.5 9q-34 0 -55 -63l-178 -551h-37l-262 697h-56v3h210v-3h-66z" />
    <glyph glyph-name="uni0475" unicode="&#x475;" horiz-adv-x="569" 
d="M305 61l97 312q23 73 49.5 109.5t62.5 36.5q26 0 40.5 -14.5t14.5 -37.5t-14.5 -38t-36.5 -15q-13 0 -31 8.5t-29 8.5q-34 0 -53 -60l-116 -371h-37l-199 504h-53v3h197v-3h-63z" />
    <glyph glyph-name="uni0490" unicode="&#x490;" horiz-adv-x="461" 
d="M426 660h-3q0 17 -9.5 27t-25.5 10h-223v-694h62v-3h-207v3h63v694h-63v3h218q94 0 136 36.5t49 128.5h3v-205z" />
    <glyph glyph-name="uni0491" unicode="&#x491;" horiz-adv-x="381" 
d="M361 469h-3q0 35 -33 35h-170v-501h62v-3h-202v3h63v501h-63v3h167q89 0 129 36.5t47 124.5h3v-199z" />
    <glyph glyph-name="uni0492" unicode="&#x492;" horiz-adv-x="461" 
d="M426 737v-209h-3q-7 92 -49.5 130.5t-135.5 38.5h-73v-348h114v-3h-114v-343h62v-3h-207v3h63v343h-62v3h62v348h-63v3h368q16 0 25.5 10t9.5 27h3z" />
    <glyph glyph-name="uni0493" unicode="&#x493;" horiz-adv-x="381" 
d="M371 542v-199h-3q-7 88 -47 124.5t-129 36.5h-37v-251h102v-3h-102v-247h62v-3h-202v3h63v247h-63v3h63v251h-63v3h320q33 0 33 35h3z" />
    <glyph glyph-name="uni0496" unicode="&#x496;" horiz-adv-x="821" 
d="M811 3v-165h-3q-7 87 -38 122.5t-109 39.5h-2l-34 121q-36 128 -61 171q-43 73 -116 73h-1v-362h63v-3h-207v3h62v362q-35 0 -61.5 -12t-42 -30t-28 -50t-19 -60t-15.5 -71q-3 -14 -4 -21q-12 -63 -37.5 -97t-71.5 -34q-39 0 -57.5 27t-18.5 64v21h3v-21q0 -21 10 -35.5
t26 -14.5q22 0 35 21.5t24 68.5q60 243 241 247q-72 12 -112 63.5t-63 136.5q-13 46 -39 46q-10 0 -29.5 -9t-33.5 -9q-23 0 -38.5 15.5t-15.5 40.5t15.5 40t42.5 15q39 0 62.5 -32.5t39.5 -101.5q9 -38 20.5 -67.5t32.5 -61t55 -51.5t79 -24v328h-62v3h207v-3h-63v-328
q45 4 79 24t55 51.5t32.5 61t20.5 67.5q16 69 39.5 101.5t62.5 32.5q27 0 42.5 -15t15.5 -40t-15.5 -40.5t-38.5 -15.5q-14 0 -33.5 9t-29.5 9q-26 0 -39 -46q-23 -86 -64.5 -138.5t-117.5 -62.5q92 0 160 -72.5t98 -173.5l35 -118h62z" />
    <glyph glyph-name="uni0497" unicode="&#x497;" horiz-adv-x="696" 
d="M691 3v-157h-3q-7 81 -37.5 117.5t-99.5 36.5h-5l-39 115q-1 3 -6 18.5t-6.5 19t-7 17.5t-8.5 18t-9.5 15t-11.5 15.5t-13 11.5t-16.5 10t-19.5 6t-23 3v-246h62v-3h-202v3h63v246q-16 -1 -29 -5t-22 -8t-17.5 -14.5t-12.5 -15.5t-10 -21t-7.5 -21t-7 -25t-6.5 -25
q-33 -120 -104 -120q-37 0 -55 26t-18 61v20h3v-20q0 -21 9 -34.5t24 -13.5q31 0 56 88q38 129 197 130q-94 15 -132 137q-12 42 -37 42q-10 0 -28.5 -8.5t-31.5 -8.5q-22 0 -37 15t-15 39q0 23 14.5 37.5t40.5 14.5q37 0 59.5 -31t38.5 -97q35 -123 128 -138v251h-63v3h202
v-3h-62v-251q95 14 129 138q16 66 38.5 97t59.5 31q26 0 40.5 -14.5t14.5 -37.5q0 -24 -15 -39t-37 -15q-13 0 -31.5 8.5t-28.5 8.5q-25 0 -37 -42q-38 -122 -132 -137q151 -1 200 -130l43 -118h61z" />
    <glyph glyph-name="uni049A" unicode="&#x49a;" horiz-adv-x="631" 
d="M165 368h27q51 0 93 18.5t68.5 50t43 65.5t25.5 71q16 69 39.5 101.5t62.5 32.5q27 0 42.5 -15t15.5 -40t-15.5 -40.5t-38.5 -15.5q-14 0 -33.5 9t-29.5 9q-26 0 -39 -46q-22 -80 -70.5 -134.5t-124.5 -65.5q53 -2 98.5 -23.5t79 -58t58 -77t42.5 -88.5l45 -118h67v-165
h-3q-7 86 -39.5 124t-106.5 38h-6l-44 121q-44 122 -68 161q-52 83 -142 83h-47v-362h62v-3h-207v3h63v694h-63v3h207v-3h-62v-329z" />
    <glyph glyph-name="uni049B" unicode="&#x49b;" horiz-adv-x="518" 
d="M155 251h7q73 0 114 42t56 98q16 66 38.5 97t59.5 31q26 0 40.5 -14.5t14.5 -37.5q0 -24 -15 -39t-37 -15q-13 0 -31.5 8.5t-28.5 8.5q-25 0 -37 -42q-38 -122 -145 -137q163 -2 210 -130l43 -118h64v-157h-3q-7 81 -37 117.5t-98 36.5h-10l-39 115q-23 69 -42 92
q-34 42 -101 42h-23v-246h62v-3h-202v3h63v501h-63v3h202v-3h-62v-253z" />
    <glyph glyph-name="uni04A2" unicode="&#x4a2;" horiz-adv-x="671" 
d="M651 697h-62v-694h62v-165h-3q-7 86 -40 122t-112 40h-52v3h63v343h-342v-343h62v-3h-207v3h63v694h-63v3h207v-3h-62v-348h342v348h-63v3h207v-3z" />
    <glyph glyph-name="uni04A3" unicode="&#x4a3;" horiz-adv-x="533" 
d="M518 504h-63v-501h63v-157h-3q-7 82 -38.5 116t-106.5 38h-54v3h62v247h-223v-247h62v-3h-202v3h63v501h-63v3h202v-3h-62v-251h223v251h-62v3h202v-3z" />
    <glyph glyph-name="uni04AE" unicode="&#x4ae;" horiz-adv-x="649" 
d="M649 700v-3q-36 0 -67 -28t-69 -82l-155 -234v-350h62v-3h-207v3h63v339l-224 355h-52v3h213v-3h-67l212 -338l151 229q31 46 31 72q0 37 -61 37v3h170z" />
    <glyph glyph-name="uni04AF" unicode="&#x4af;" horiz-adv-x="527" 
d="M527 504h-4q-52 0 -126 -104l-103 -147v-250h59v-3h-197v3h60v239l-166 262h-50v3h203v-3h-63l154 -245l99 142q29 42 29 68q0 35 -51 35h-6v3h162v-3z" />
    <glyph glyph-name="uni04B0" unicode="&#x4b0;" horiz-adv-x="649" 
d="M649 700v-3q-36 0 -67 -28t-69 -82l-155 -234v-14h182v-3h-182v-333h62v-3h-207v3h63v333h-184v3h184v3l-224 355h-52v3h213v-3h-67l212 -338l151 229q31 46 31 72q0 37 -61 37v3h170z" />
    <glyph glyph-name="uni04B1" unicode="&#x4b1;" horiz-adv-x="527" 
d="M527 507v-3h-4q-52 0 -126 -104l-103 -147v-8h136v-3h-136v-239h59v-3h-197v3h60v239h-128v3h126l-164 259h-50v3h203v-3h-63l154 -245l99 142q29 42 29 68q0 35 -51 35h-6v3h162z" />
    <glyph glyph-name="uni04B2" unicode="&#x4b2;" horiz-adv-x="649" 
d="M622 697h-4q-54 0 -132 -110l-140 -204l241 -380h52v-165h-3q-7 86 -40 122t-112 40h-58v3h67l-199 319l-144 -210q-32 -45 -32 -73q0 -36 54 -36h7v-3h-169v3h4q21 0 46 18t40.5 36t45.5 56l146 212l-235 372h-52v3h213v-3h-67l193 -310l138 201q31 44 31 72
q0 37 -54 37h-7v3h170v-3z" />
    <glyph glyph-name="uni04B3" unicode="&#x4b3;" horiz-adv-x="548" 
d="M514 504h-4q-20 0 -42 -15t-37 -32.5t-40 -49.5q-6 -9 -10 -13l-84 -114l189 -277h52v-157h-3q-7 82 -38.5 116t-106.5 38h-59v3h67l-155 227l-86 -118q-30 -43 -30 -71q0 -38 55 -38h7v-3h-169v3h4q20 0 43.5 17t35.5 30.5t41 51.5q6 7 9 11l88 120l-184 271h-52v3h207
v-3h-67l150 -221l82 112q30 41 30 70q0 39 -56 39h-7v3h170v-3z" />
    <glyph glyph-name="uni04B6" unicode="&#x4b6;" horiz-adv-x="586" 
d="M566 697h-63v-694h62v-165h-3q-7 86 -40 122t-112 40h-53v3h64v360q-19 -46 -62.5 -80t-104.5 -34q-84 0 -129 57.5t-45 153.5v237h-65v3h212v-3h-64v-314q0 -54 33.5 -86t88.5 -32q60 0 98 46t38 104v282h-62v3h207v-3z" />
    <glyph glyph-name="uni04B7" unicode="&#x4b7;" horiz-adv-x="532" 
d="M516 504h-62v-501h63v-157h-3q-7 84 -34 117t-100 37h-65v3h62v245q-15 -42 -56.5 -74t-98.5 -32q-72 0 -109 50.5t-37 139.5v172h-61v3h202v-3h-63v-243q0 -50 26.5 -77t72.5 -27q54 0 89 42.5t35 96.5v208h-63v3h202v-3z" />
    <glyph glyph-name="uni04BA" unicode="&#x4ba;" horiz-adv-x="586" 
d="M229 697h-64v-360q19 46 62.5 80t104.5 34q84 0 129 -57.5t45 -153.5v-237h65v-3h-212v3h64v314q0 54 -33.5 86t-88.5 32q-60 0 -98 -46t-38 -104v-282h62v-3h-207v3h63v694h-63v3h209v-3z" />
    <glyph glyph-name="uni04BB" unicode="&#x4bb;" horiz-adv-x="532" 
d="M217 504h-62v-255q15 42 56.5 74t98.5 32q72 0 109 -50.5t37 -139.5v-162h61v-3h-202v3h63v233q0 50 -26.5 77t-72.5 27q-54 0 -89 -42.5t-35 -96.5v-198h63v-3h-202v3h62v501h-63v3h202v-3z" />
    <glyph glyph-name="uni04C0" unicode="&#x4c0;" horiz-adv-x="247" 
d="M165 697v-694h62v-3h-207v3h63v694h-63v3h207v-3h-62z" />
    <glyph glyph-name="uni04CF" unicode="&#x4cf;" horiz-adv-x="222" 
d="M217 3v-3h-202v3h63v501h-63v3h140v-504h62z" />
    <glyph glyph-name="uni04D8" unicode="&#x4d8;" horiz-adv-x="599" 
d="M66 533h-4q9 80 66.5 128.5t157.5 48.5q127 0 205 -102t78 -254t-88.5 -258t-205.5 -106q-108 0 -178 48.5t-70 125.5q0 55 31.5 93t79 55.5t102.5 35.5t102.5 34t79 51t31.5 86q0 72 -57.5 122.5t-151.5 50.5q-71 0 -120 -42t-58 -117zM462 485q-11 -38 -50.5 -67.5
t-87.5 -51t-94.5 -46t-78 -66t-31.5 -97.5q0 -75 40.5 -119.5t109.5 -44.5q64 0 111.5 49.5t71 130t23.5 179.5q0 71 -14 133z" />
    <glyph glyph-name="uni04D9" unicode="&#x4d9;" horiz-adv-x="489" 
d="M212 520q100 0 166 -76t66 -187t-65.5 -189t-163.5 -78q-76 0 -124.5 36.5t-48.5 94.5q0 41 22.5 69.5t56 41.5t73 27t73 25.5t56 38t22.5 64.5q0 54 -40.5 91t-107.5 37q-58 0 -98 -31.5t-40 -53.5q0 -5 5 -5q1 0 5 2t11 4t14 2q20 0 35 -13.5t15 -37.5q0 -22 -15 -36.5
t-38 -14.5q-22 0 -36.5 16t-14.5 41q0 49 48 90.5t124 41.5zM351 361q-8 -28 -34.5 -49.5t-58.5 -36.5t-63 -33t-51.5 -48t-20.5 -72q0 -57 24.5 -93t67.5 -36q68 0 107 77t39 192q0 56 -10 99z" />
    <glyph glyph-name="uni04E2" unicode="&#x4e2;" horiz-adv-x="671" 
d="M188 822v3q49 0 87.5 2.5t59.5 2.5q18 0 58.5 -2.5t91.5 -2.5v-3q-51 0 -91.5 -2.5t-58.5 -2.5q-21 0 -59.5 2.5t-87.5 2.5zM651 697h-62v-694h62v-3h-207v3h63v643l-342 -594v-49h62v-3h-207v3h63v694h-63v3h207v-3h-62v-638l342 594v44h-63v3h207v-3z" />
    <glyph glyph-name="uni04E3" unicode="&#x4e3;" horiz-adv-x="533" 
d="M118 669v3q49 0 87.5 2.5t59.5 2.5q18 0 58.5 -2.5t91.5 -2.5v-3q-51 0 -91.5 -2.5t-58.5 -2.5q-21 0 -59.5 2.5t-87.5 2.5zM518 504h-63v-501h63v-3h-202v3h62v457l-223 -418v-39h62v-3h-202v3h63v501h-63v3h202v-3h-62v-455l223 419v36h-62v3h202v-3z" />
    <glyph glyph-name="uni04E8" unicode="&#x4e8;" horiz-adv-x="704" 
d="M352 710q153 0 237.5 -98.5t84.5 -257.5q0 -157 -90.5 -261t-231.5 -104q-153 0 -237.5 99t-84.5 258q0 157 90.5 260.5t231.5 103.5zM121 349h462q0 152 -59.5 254.5t-171.5 102.5q-118 0 -174.5 -98t-56.5 -256v-3zM583 346h-462q1 -97 25.5 -175t77.5 -128t128 -50
q80 0 133 49t75.5 125.5t22.5 178.5z" />
    <glyph glyph-name="uni04E9" unicode="&#x4e9;" horiz-adv-x="557" 
d="M281 518q99 0 165 -75t66 -185t-69.5 -188.5t-166.5 -78.5q-99 0 -165 75.5t-66 185.5t69.5 188t166.5 78zM128 260h301q-2 112 -40 183t-108 71q-74 0 -113 -70t-40 -184zM429 257h-301q0 -115 38.5 -188.5t109.5 -73.5q75 0 114 71t39 187v4z" />
    <glyph glyph-name="uni04EE" unicode="&#x4ee;" horiz-adv-x="617" 
d="M184 822v3q49 0 87.5 2.5t59.5 2.5q18 0 58.5 -2.5t91.5 -2.5v-3q-51 0 -91.5 -2.5t-58.5 -2.5q-21 0 -59.5 2.5t-87.5 2.5zM617 697h-4q-55 0 -114 -120l-203 -419q-45 -94 -77.5 -131.5t-80.5 -37.5q-51 0 -78 30.5t-27 78.5q0 29 17.5 49.5t41.5 20.5q26 0 40.5 -15.5
t14.5 -39.5q0 -26 -16.5 -41t-38.5 -15q-7 0 -14.5 2.5t-12 4.5t-5.5 2q-6 0 -6 -5q0 -23 21 -45.5t63 -22.5q47 0 77.5 36t76.5 130l34 69l-274 469h-52v3h213v-3h-67l219 -387l130 268q19 41 19 67q0 52 -60 52h-7v3h170v-3z" />
    <glyph glyph-name="uni04EF" unicode="&#x4ef;" horiz-adv-x="514" 
d="M137 669v3q49 0 87.5 2.5t59.5 2.5q18 0 58.5 -2.5t91.5 -2.5v-3q-51 0 -91.5 -2.5t-58.5 -2.5q-21 0 -59.5 2.5t-87.5 2.5zM135 504l168 -368q11 17 41 64t42.5 68.5t31.5 56.5t26.5 60t7.5 46q0 11 -9 11q-2 0 -13 -4t-21 -4q-20 0 -35.5 14.5t-15.5 38.5q0 22 14.5 37
t37.5 15q26 0 42.5 -19t16.5 -48q0 -44 -25.5 -102.5t-62 -116t-73 -114t-62 -110.5t-25.5 -90q0 -10 9 -10q2 0 13 4t21 4q20 0 35.5 -14.5t15.5 -38.5q0 -22 -14.5 -37t-37.5 -15q-26 0 -42.5 19t-16.5 48q0 62 56 165l-204 440h-56v3h204v-3h-69z" />
    <glyph glyph-name="Wgrave" unicode="&#x1e80;" horiz-adv-x="930" 
d="M567 784l-1 -3q-35 16 -70 30.5t-68.5 27t-48.5 18.5q-12 4 -12 12q0 9 9 9q4 0 10 -2q20 -9 79 -41t102 -51zM925 700v-3q-68 0 -98 -110l-164 -587h-37l-162 550l-165 -550h-37l-201 697h-56v3h208v-3h-66l173 -612l142 473l-41 139h-56v3h203v-3h-66l180 -614l141 505
q8 29 8 49q0 60 -76 60v3h170z" />
    <glyph glyph-name="wgrave" unicode="&#x1e81;" horiz-adv-x="752" 
d="M478 631l-1 -3q-35 16 -70 30.5t-68.5 27t-48.5 18.5q-12 4 -12 12q0 9 9 9q4 0 10 -2q20 -9 79 -41t102 -51zM752 507v-3q-36 0 -57.5 -29.5t-38.5 -80.5l-125 -394h-37l-115 356l-121 -356h-37l-165 504h-56v3h202v-3h-66l140 -439l101 298l-45 141h-56v3h198v-3h-66
l140 -436l104 327q10 24 10 48q0 61 -80 61v3h170z" />
    <glyph glyph-name="Wacute" unicode="&#x1e82;" horiz-adv-x="930" 
d="M368 781l-1 3q43 19 102 51t79 41q6 2 10 2q9 0 9 -9q0 -8 -12 -12q-15 -6 -48.5 -18.5t-68.5 -27t-70 -30.5zM925 700v-3q-68 0 -98 -110l-164 -587h-37l-162 550l-165 -550h-37l-201 697h-56v3h208v-3h-66l173 -612l142 473l-41 139h-56v3h203v-3h-66l180 -614l141 505
q8 29 8 49q0 60 -76 60v3h170z" />
    <glyph glyph-name="wacute" unicode="&#x1e83;" horiz-adv-x="752" 
d="M279 628l-1 3q43 19 102 51t79 41q6 2 10 2q9 0 9 -9q0 -8 -12 -12q-15 -6 -48.5 -18.5t-68.5 -27t-70 -30.5zM752 507v-3q-36 0 -57.5 -29.5t-38.5 -80.5l-125 -394h-37l-115 356l-121 -356h-37l-165 504h-56v3h202v-3h-66l140 -439l101 298l-45 141h-56v3h198v-3h-66
l140 -436l104 327q10 24 10 48q0 61 -80 61v3h170z" />
    <glyph glyph-name="Wdieresis" unicode="&#x1e84;" horiz-adv-x="930" 
d="M387 858q22 0 35.5 -14t13.5 -37q0 -22 -14.5 -36.5t-34.5 -14.5q-21 0 -34.5 14t-13.5 36t14 37t34 15zM546 858q22 0 35.5 -14t13.5 -37q0 -22 -14.5 -36.5t-34.5 -14.5q-21 0 -34.5 14t-13.5 36t14 37t34 15zM925 700v-3q-68 0 -98 -110l-164 -587h-37l-162 550
l-165 -550h-37l-201 697h-56v3h208v-3h-66l173 -612l142 473l-41 139h-56v3h203v-3h-66l180 -614l141 505q8 29 8 49q0 60 -76 60v3h170z" />
    <glyph glyph-name="wdieresis" unicode="&#x1e85;" horiz-adv-x="752" 
d="M298 705q22 0 35.5 -14t13.5 -37q0 -22 -14.5 -36.5t-34.5 -14.5q-21 0 -34.5 14t-13.5 36t14 37t34 15zM457 705q22 0 35.5 -14t13.5 -37q0 -22 -14.5 -36.5t-34.5 -14.5q-21 0 -34.5 14t-13.5 36t14 37t34 15zM752 507v-3q-36 0 -57.5 -29.5t-38.5 -80.5l-125 -394h-37
l-115 356l-121 -356h-37l-165 504h-56v3h202v-3h-66l140 -439l101 298l-45 141h-56v3h198v-3h-66l140 -436l104 327q10 24 10 48q0 61 -80 61v3h170z" />
    <glyph glyph-name="Ygrave" unicode="&#x1ef2;" horiz-adv-x="649" 
d="M431 784l-1 -3q-35 16 -70 30.5t-68.5 27t-48.5 18.5q-12 4 -12 12q0 9 9 9q4 0 10 -2q20 -9 79 -41t102 -51zM649 700v-3q-36 0 -67 -28t-69 -82l-155 -234v-350h62v-3h-207v3h63v339l-224 355h-52v3h213v-3h-67l212 -338l151 229q31 46 31 72q0 37 -61 37v3h170z" />
    <glyph glyph-name="ygrave" unicode="&#x1ef3;" horiz-adv-x="514" 
d="M380 631l-1 -3q-35 16 -70 30.5t-68.5 27t-48.5 18.5q-12 4 -12 12q0 9 9 9q4 0 10 -2q20 -9 79 -41t102 -51zM135 504l168 -368q11 17 41 64t42.5 68.5t31.5 56.5t26.5 60t7.5 46q0 11 -9 11q-2 0 -13 -4t-21 -4q-20 0 -35.5 14.5t-15.5 38.5q0 22 14.5 37t37.5 15
q26 0 42.5 -19t16.5 -48q0 -44 -25.5 -102.5t-62 -116t-73 -114t-62 -110.5t-25.5 -90q0 -10 9 -10q2 0 13 4t21 4q20 0 35.5 -14.5t15.5 -38.5q0 -22 -14.5 -37t-37.5 -15q-26 0 -42.5 19t-16.5 48q0 62 56 165l-204 440h-56v3h204v-3h-69z" />
    <glyph glyph-name="endash" unicode="&#x2013;" 
d="M50 281v3q65 0 117.5 2.5t80.5 2.5q24 0 79 -2.5t123 -2.5v-3q-68 0 -123 -2.5t-79 -2.5q-28 0 -80.5 2.5t-117.5 2.5z" />
    <glyph glyph-name="emdash" unicode="&#x2014;" horiz-adv-x="1000" 
d="M50 281v3q97 0 252 2.5t197 2.5q36 0 192.5 -2.5t258.5 -2.5v-3q-102 0 -258.5 -2.5t-192.5 -2.5q-42 0 -197 2.5t-252 2.5z" />
    <glyph glyph-name="quoteleft" unicode="&#x2018;" horiz-adv-x="222" 
d="M158 727v-3q-39 -11 -59.5 -41t-20.5 -53q0 -5 5 -5q1 0 5 2t11 4t14 2q20 0 35 -13.5t15 -37.5q0 -21 -14 -36t-36 -15q-24 0 -39 17.5t-15 42.5q0 41 26 82t73 54z" />
    <glyph glyph-name="quoteright" unicode="&#x2019;" horiz-adv-x="222" 
d="M70 509v3q39 11 59.5 41t20.5 53q0 5 -5 5q-1 0 -5 -2t-11 -4t-14 -2q-20 0 -35 13.5t-15 37.5q0 21 14 36t36 15q24 0 39 -17.5t15 -42.5q0 -41 -26 -82t-73 -54z" />
    <glyph glyph-name="quotesinglbase" unicode="&#x201a;" horiz-adv-x="222" 
d="M70 -94v3q39 11 59.5 41t20.5 53q0 5 -5 5q-1 0 -5 -2t-11 -4t-14 -2q-20 0 -35 14t-15 37q0 21 14 36t36 15q24 0 39 -17.5t15 -42.5q0 -41 -26 -82t-73 -54z" />
    <glyph glyph-name="quotedblleft" unicode="&#x201c;" horiz-adv-x="368" 
d="M157 727v-3q-39 -11 -59.5 -41t-20.5 -53q0 -5 5 -5q1 0 5 2t11 4t14 2q20 0 35 -13.5t15 -37.5q0 -21 -14 -36t-36 -15q-24 0 -39 17.5t-15 42.5q0 41 26 82t73 54zM303 727v-3q-39 -11 -59.5 -41t-20.5 -53q0 -5 5 -5q1 0 5 2t11 4t14 2q20 0 35 -13.5t15 -37.5
q0 -21 -14 -36t-36 -15q-24 0 -39 17.5t-15 42.5q0 41 26 82t73 54z" />
    <glyph glyph-name="quotedblright" unicode="&#x201d;" horiz-adv-x="368" 
d="M70 509v3q39 11 59.5 41t20.5 53q0 5 -5 5q-1 0 -5 -2t-11 -4t-14 -2q-20 0 -35 13.5t-15 37.5q0 21 14 36t36 15q24 0 39 -17.5t15 -42.5q0 -41 -26 -82t-73 -54zM216 509v3q39 11 59.5 41t20.5 53q0 5 -5 5q-1 0 -5 -2t-11 -4t-14 -2q-20 0 -35 13.5t-15 37.5
q0 21 14 36t36 15q24 0 39 -17.5t15 -42.5q0 -41 -26 -82t-73 -54z" />
    <glyph glyph-name="quotedblbase" unicode="&#x201e;" horiz-adv-x="368" 
d="M70 -94v3q39 11 59.5 41t20.5 53q0 5 -5 5q-1 0 -5 -2t-11 -4t-14 -2q-20 0 -35 14t-15 37q0 21 14 36t36 15q24 0 39 -17.5t15 -42.5q0 -41 -26 -82t-73 -54zM216 -94v3q39 11 59.5 41t20.5 53q0 5 -5 5q-1 0 -5 -2t-11 -4t-14 -2q-20 0 -35 14t-15 37q0 21 14 36t36 15
q24 0 39 -17.5t15 -42.5q0 -41 -26 -82t-73 -54z" />
    <glyph glyph-name="dagger" unicode="&#x2020;" horiz-adv-x="568" 
d="M284 705q18 0 28.5 -12.5t10.5 -33.5q0 -17 -19 -95.5t-19 -126.5q36 0 104.5 19.5t87.5 19.5q21 0 33.5 -11.5t12.5 -29.5q0 -17 -12.5 -29t-33.5 -12q-20 0 -88.5 20t-103.5 21q0 -140 20 -321.5t20 -219.5q0 -21 -11.5 -33.5t-29.5 -12.5q-17 0 -29 12.5t-12 33.5
q0 38 20 219.5t20 321.5q-35 -1 -103.5 -21t-88.5 -20q-21 0 -33.5 12t-12.5 29q0 18 12.5 29.5t33.5 11.5q19 0 87.5 -19.5t104.5 -19.5q-1 47 -19.5 126t-18.5 96q0 21 11 33.5t28 12.5z" />
    <glyph glyph-name="daggerdbl" unicode="&#x2021;" horiz-adv-x="568" 
d="M284 705q18 0 28.5 -12.5t10.5 -33.5q0 -17 -19 -90.5t-19 -121.5q36 0 104.5 19.5t87.5 19.5q21 0 33.5 -11.5t12.5 -29.5q0 -17 -12.5 -29t-33.5 -12q-20 0 -88.5 20t-103.5 21q0 -33 12.5 -89t12.5 -80t-12.5 -80t-12.5 -88q36 0 104.5 20.5t87.5 20.5q21 0 33.5 -12
t12.5 -29q0 -18 -12.5 -29.5t-33.5 -11.5q-20 0 -88.5 19t-103.5 20q0 -48 19 -121.5t19 -90.5q0 -21 -10.5 -33.5t-28.5 -12.5q-17 0 -28 12.5t-11 33.5q0 17 18.5 90.5t19.5 121.5q-35 -1 -103.5 -20t-88.5 -19q-21 0 -33.5 11.5t-12.5 29.5q0 17 12.5 29t33.5 12
q19 0 87.5 -20.5t104.5 -20.5q-1 31 -13 87.5t-12 80.5t12 80.5t13 88.5q-35 -1 -103.5 -21t-88.5 -20q-21 0 -33.5 12t-12.5 29q0 18 12.5 29.5t33.5 11.5q19 0 87.5 -19.5t104.5 -19.5q-1 47 -19.5 121t-18.5 91q0 21 11 33.5t28 12.5z" />
    <glyph glyph-name="bullet" unicode="&#x2022;" horiz-adv-x="397" 
d="M195 366q34 0 56 -23t22 -59q0 -34 -23 -58t-55 -24q-34 0 -55.5 22.5t-21.5 57.5q0 36 22.5 60t54.5 24z" />
    <glyph glyph-name="ellipsis" unicode="&#x2026;" horiz-adv-x="666" 
d="M114 96q22 0 35.5 -14t13.5 -37q0 -22 -14.5 -36.5t-34.5 -14.5q-21 0 -34.5 14t-13.5 36t14 37t34 15zM336 96q22 0 35.5 -14t13.5 -37q0 -22 -14.5 -36.5t-34.5 -14.5q-21 0 -34.5 14t-13.5 36t14 37t34 15zM558 96q22 0 35.5 -14t13.5 -37q0 -22 -14.5 -36.5
t-34.5 -14.5q-21 0 -34.5 14t-13.5 36t14 37t34 15z" />
    <glyph glyph-name="perthousand" unicode="&#x2030;" horiz-adv-x="1099" 
d="M529 723h3q-54 -132 -95.5 -239t-52.5 -135q-15 -35 -62.5 -141t-99.5 -233h-3q48 116 87 215.5t63 158.5q21 50 65 150.5t95 223.5zM202 709q69 0 114 -51t45 -127t-48 -130t-114 -54q-68 0 -113.5 51.5t-45.5 127.5q0 75 48 129t114 54zM202 705q-46 0 -69.5 -48
t-23.5 -127t23.5 -129t66.5 -50q46 0 69.5 48.5t23.5 127.5t-23.5 128.5t-66.5 49.5zM545 353q69 0 114 -51t45 -127t-48 -130t-114 -54q-68 0 -113.5 51.5t-45.5 127.5q0 75 48 129t114 54zM900 353q69 0 114 -51t45 -127t-48 -130t-114 -54q-68 0 -113.5 51.5t-45.5 127.5
q0 75 48 129t114 54zM545 349q-46 0 -69.5 -48t-23.5 -127t23.5 -129t66.5 -50q46 0 69.5 48.5t23.5 127.5t-23.5 128.5t-66.5 49.5zM900 349q-46 0 -69.5 -48t-23.5 -127t23.5 -129t66.5 -50q46 0 69.5 48.5t23.5 127.5t-23.5 128.5t-66.5 49.5z" />
    <glyph glyph-name="guilsinglleft" unicode="&#x2039;" horiz-adv-x="394" 
d="M343 483l-273 -222l273 -221v-5l-285 212q-8 6 -8 14q0 9 8 15l285 212v-5z" />
    <glyph glyph-name="guilsinglright" unicode="&#x203a;" horiz-adv-x="394" 
d="M51 488l285 -212q8 -6 8 -15q0 -8 -8 -14l-285 -212v5l273 221l-273 222v5z" />
    <glyph glyph-name="fraction" unicode="&#x2044;" horiz-adv-x="113" 
d="M210 723h3q-54 -132 -95.5 -239t-52.5 -135q-15 -35 -62.5 -141t-99.5 -233h-3q48 116 87 215.5t63 158.5q21 50 65 150.5t95 223.5z" />
    <glyph glyph-name="Euro" unicode="&#x20ac;" horiz-adv-x="621" 
d="M575 501h-3q-21 100 -64 152.5t-130 52.5q-90 0 -136.5 -80t-54.5 -215h218v-3h-218q-1 -18 -1 -56q0 -33 3 -61h216v-3h-216q14 -126 73.5 -203t144.5 -77q66 0 113.5 42t56.5 117h4q-9 -80 -65.5 -128.5t-150.5 -48.5q-102 0 -174.5 83.5t-87.5 214.5h-98v3h98
q-3 27 -3 55q0 32 3 62h-98v3h99q16 132 91 215.5t183 83.5q48 0 93.5 -18.5t65.5 -18.5q16 0 25.5 10t9.5 27h3v-209z" />
    <glyph glyph-name="trademark" unicode="&#x2122;" horiz-adv-x="848" 
d="M359 657h-3q-5 49 -28 69.5t-77 20.5h-16v-354h36v-3h-134v3h36v354h-15q-53 0 -76.5 -20.5t-28.5 -69.5h-3v112h2q0 -19 19 -19h265q18 0 21 19h2v-112zM808 747h-34v-354h34v-3h-132v3h36v345l-106 -348h-30l-129 349v-281q0 -63 42 -65v-3h-82v3q36 0 36 65v289h-36v3
h102l110 -305l93 305h96v-3z" />
    <glyph glyph-name="partialdiff" unicode="&#x2202;" horiz-adv-x="547" 
d="M175 698v4q54 -15 109.5 -51t105.5 -89.5t81 -132t31 -165.5q0 -126 -63.5 -200t-166.5 -74q-101 0 -164 71t-63 178q0 108 65 184.5t161 76.5q85 0 130 -68q-31 112 -94 179t-132 87zM288 489q-76 0 -118 -67.5t-42 -177.5t41 -179.5t117 -69.5q65 0 100 70.5t35 192.5
q0 54 -5.5 93t-19.5 72t-41 49.5t-67 16.5z" />
    <glyph glyph-name="product" unicode="&#x220f;" horiz-adv-x="567" 
d="M547 697h-62v-694h62v-3h-207v3h63v694h-238v-694h62v-3h-207v3h63v694h-63v3h527v-3z" />
    <glyph glyph-name="summation" unicode="&#x2211;" horiz-adv-x="529" 
d="M506 556h-3q-18 47 -62 62.5t-133 15.5h-233l209 -365l-209 -364h233q89 0 133 15.5t62 62.5h3l-51 -144h-421l246 430l-246 431h421z" />
    <glyph glyph-name="minus" unicode="&#x2212;" 
d="M50 261v3q65 0 117.5 2.5t80.5 2.5q24 0 79 -2.5t123 -2.5v-3q-68 0 -123 -2.5t-79 -2.5q-28 0 -80.5 2.5t-117.5 2.5z" />
    <glyph glyph-name="radical" unicode="&#x221a;" horiz-adv-x="533" 
d="M536 747h-92l-181 -747h-38l-169 504h-56v3h136l141 -433l164 676h95v-3z" />
    <glyph glyph-name="infinity" unicode="&#x221e;" horiz-adv-x="507" 
d="M353 372q46 0 77.5 -32t31.5 -78q0 -45 -31.5 -76.5t-77.5 -31.5q-35 0 -62 20t-38 52q-11 -32 -38.5 -52t-62.5 -20q-45 0 -76 31.5t-31 76.5q0 46 31 78t76 32q35 0 62.5 -20.5t38.5 -53.5q11 33 38 53.5t62 20.5zM152 369q-42 0 -65 -30.5t-23 -76.5q0 -45 23 -75
t65 -30q43 0 67.5 30t24.5 75q0 46 -24.5 76.5t-67.5 30.5zM353 369q-42 0 -66 -30.5t-24 -76.5q0 -45 23.5 -75t66.5 -30t66.5 30t23.5 75q0 46 -23.5 76.5t-66.5 30.5z" />
    <glyph glyph-name="integral" unicode="&#x222b;" horiz-adv-x="287" 
d="M78 224v307q0 87 34.5 138t97.5 51q52 0 79.5 -29t27.5 -74q0 -26 -15.5 -44t-37.5 -18q-23 0 -37 14t-14 35q0 24 14.5 38t35.5 14q7 0 14 -2t11 -4t5 -2q5 0 5 5q0 21 -22 43t-66 22q-45 0 -73.5 -29.5t-28.5 -76.5q0 -37 23.5 -116t23.5 -163v-301q0 -82 -34 -140.5
t-94 -58.5q-40 0 -66.5 22.5t-26.5 60.5q0 27 16 45.5t38 18.5q23 0 36.5 -14t13.5 -36q0 -24 -15 -37.5t-35 -13.5q-7 0 -14 2t-11 4t-5 2q-5 0 -5 -5q0 -15 21.5 -31t52.5 -16q37 0 68 27t31 70q0 37 -24 122.5t-24 169.5z" />
    <glyph glyph-name="approxequal" unicode="&#x2248;" 
d="M53 289h-3q20 41 45 60.5t67 19.5q37 0 88.5 -37t97.5 -37q66 0 100 67h3q-20 -41 -45 -60.5t-67 -19.5q-33 0 -60.5 11.5t-43 25.5t-37.5 25.5t-45 11.5q-66 0 -100 -67zM53 169h-3q20 41 45 60.5t67 19.5q37 0 88.5 -37t97.5 -37q66 0 100 67h3q-20 -41 -45 -60.5
t-67 -19.5q-33 0 -60.5 11.5t-43 25.5t-37.5 25.5t-45 11.5q-66 0 -100 -67z" />
    <glyph glyph-name="notequal" unicode="&#x2260;" 
d="M313 463h3q-19 -58 -40 -134l56 -3q57 -2 118 -2v-3q-62 0 -118 -2.5t-59 -2.5l-34 -107q31 0 88 -2.5t123 -2.5v-3q-66 0 -124.5 -2.5t-92.5 -2.5q-28 -75 -46 -133h-3q22 68 39 133q-7 0 -60 2.5t-113 2.5v3q61 0 114 2.5t62 2.5l35 107q-37 0 -92.5 2.5t-118.5 2.5v3
q62 0 119.5 2.5t97.5 2.5q42 121 46 134z" />
    <glyph glyph-name="lessequal" unicode="&#x2264;" 
d="M449 439l1 -3q-129 -41 -234.5 -77t-140.5 -47q28 -9 136 -46t239 -78l-1 -3q-129 41 -236 72.5t-155 46.5q-8 3 -8 8t8 8q48 15 155 46.5t236 72.5zM50 95v3q65 0 117.5 2.5t80.5 2.5q24 0 79 -2.5t123 -2.5v-3q-68 0 -123 -2.5t-79 -2.5q-28 0 -80.5 2.5t-117.5 2.5z
" />
    <glyph glyph-name="greaterequal" unicode="&#x2265;" 
d="M50 436l1 3q129 -41 236 -72.5t155 -46.5q8 -3 8 -8t-8 -8q-48 -15 -155 -46.5t-236 -72.5l-1 3q131 41 239 78t136 46q-35 11 -140.5 47t-234.5 77zM50 95v3q68 0 123 2.5t79 2.5q28 0 80.5 -2.5t117.5 -2.5v-3q-65 0 -117.5 -2.5t-80.5 -2.5q-24 0 -79 2.5t-123 2.5z
" />
    <glyph glyph-name="lozenge" unicode="&#x25ca;" horiz-adv-x="533" 
d="M506 352l-215 -352h-42l-229 348l215 352h42zM67 418l245 -376l147 239l-245 377z" />
    <glyph glyph-name="f_i" horiz-adv-x="489" 
d="M78 507v20q0 95 51.5 149t141.5 54q73 0 116 -34t43 -78q0 -26 -15 -43t-38 -17q-22 0 -36.5 14t-14.5 36q0 25 15 38.5t35 13.5q6 0 14 -2t9 -2q5 0 5 3q0 11 -13 26t-45 28.5t-75 13.5q-72 0 -115 -35.5t-43 -99.5q0 -34 15 -85h294v-504h62v-3h-202v3h63v501h-216
q26 -82 26 -171v-330h62v-3h-202v3h63v501h-63v3h63z" />
    <glyph glyph-name="f_l" horiz-adv-x="531" 
d="M78 507v20q0 95 51 149t137 54q93 0 134 -39t41 -102v-519q0 -23 12.5 -35t30.5 -12q17 0 30 13t14 34h3q-2 -28 -24 -54t-62 -26q-39 0 -59.5 29t-20.5 82v507q0 119 -107 119q-66 0 -105.5 -36t-39.5 -99q0 -34 15 -85h140v-3h-139q26 -82 26 -171v-330h62v-3h-202v3
h63v501h-63v3h63z" />
    <glyph glyph-name="uni0434.locl" horiz-adv-x="548" 
d="M508 542h5q-3 -11 -11 -36.5t-11 -36.5t-6 -31t-3 -41v-344q0 -55 -22.5 -99.5t-58.5 -70t-77 -39t-81 -13.5q-78 0 -122 34.5t-44 82.5q0 25 14.5 42.5t36.5 17.5q24 0 38.5 -15t14.5 -36q0 -23 -15 -37t-35 -14q-7 0 -14 2t-11 4t-5 2q-5 0 -5 -5q0 -21 36.5 -47
t95.5 -26q82 0 131 50t49 143v70q-18 -40 -56 -64.5t-90 -24.5q-98 0 -157.5 70.5t-59.5 178.5q0 107 67.5 183t163.5 76q44 0 78 -16.5t57 -33t40 -16.5q20 0 30.5 17.5t26.5 72.5zM408 152v234q0 62 -33.5 94t-88.5 32q-76 0 -117 -69t-41 -179q0 -108 41 -173.5
t114 -65.5q57 0 91 34t34 93z" />
    <glyph glyph-name="uni0433.locl" horiz-adv-x="408" 
d="M208 519q74 0 117 -35.5t43 -96.5q0 -50 -27.5 -83.5t-67 -52t-79 -36t-67 -47t-27.5 -72.5q0 -45 30 -73.5t82 -28.5q67 0 102 28.5t35 53.5q0 5 -5 5q-1 0 -5 -2t-11 -4t-14 -2q-20 0 -35 13.5t-15 37.5q0 22 15 36.5t38 14.5q22 0 36.5 -17.5t14.5 -42.5
q0 -50 -40 -87.5t-116 -37.5q-71 0 -121.5 38t-50.5 99q0 50 27.5 84t67 52.5t79 35.5t67 46t27.5 73t-25.5 70.5t-74.5 26.5q-64 0 -97 -28.5t-33 -53.5q0 -5 5 -5q1 0 11.5 4.5t19.5 4.5q20 0 34.5 -14t14.5 -38q0 -21 -14.5 -36t-38.5 -15q-22 0 -36.5 17.5t-14.5 42.5
q0 50 39 87.5t110 37.5z" />
    <glyph glyph-name="uni0453.locl" horiz-adv-x="408" 
d="M125 628l-1 3q43 19 102 51t79 41q6 2 10 2q9 0 9 -9q0 -8 -12 -12q-15 -6 -48.5 -18.5t-68.5 -27t-70 -30.5zM208 519q74 0 117 -35.5t43 -96.5q0 -50 -27.5 -83.5t-67 -52t-79 -36t-67 -47t-27.5 -72.5q0 -45 30 -73.5t82 -28.5q67 0 102 28.5t35 53.5q0 5 -5 5
q-1 0 -5 -2t-11 -4t-14 -2q-20 0 -35 13.5t-15 37.5q0 22 15 36.5t38 14.5q22 0 36.5 -17.5t14.5 -42.5q0 -50 -40 -87.5t-116 -37.5q-71 0 -121.5 38t-50.5 99q0 50 27.5 84t67 52.5t79 35.5t67 46t27.5 73t-25.5 70.5t-74.5 26.5q-64 0 -97 -28.5t-33 -53.5q0 -5 5 -5
q1 0 11.5 4.5t19.5 4.5q20 0 34.5 -14t14.5 -38q0 -21 -14.5 -36t-38.5 -15q-22 0 -36.5 17.5t-14.5 42.5q0 50 39 87.5t110 37.5z" />
    <glyph glyph-name="uni044E.locl" horiz-adv-x="772" 
d="M155 253h135q0 110 65.5 187.5t155.5 77.5q92 0 154 -75t62 -185t-65.5 -188.5t-155.5 -78.5q-91 0 -153 75t-63 184h-135v-247h62v-3h-202v3h63v694h-63v3h202v-3h-62v-444zM506 -5q68 0 103 71t35 187q0 115 -34.5 188t-98.5 73q-68 0 -103 -70.5t-35 -186.5
q0 -115 34.5 -188.5t98.5 -73.5z" />
    <glyph glyph-name="uni043A.locl" horiz-adv-x="498" 
d="M217 697h-62v-446q69 3 108 44t54 96q16 66 38.5 97t59.5 31q26 0 40.5 -14.5t14.5 -37.5q0 -24 -15 -39t-37 -15q-13 0 -31.5 8.5t-28.5 8.5q-25 0 -37 -42q-37 -121 -145 -137q173 -3 210 -130q25 -88 56 -88q15 0 24 13.5t9 34.5v20h3v-20q0 -35 -18 -61t-55 -26
q-71 0 -104 120q-10 37 -16 53t-21 39.5t-39.5 33t-61.5 9.5h-8v-246h62v-3h-202v3h63v694h-63v3h202v-3z" />
    <glyph glyph-name="uni045C.locl" horiz-adv-x="498" 
d="M236 628l-1 3q43 19 102 51t79 41q6 2 10 2q9 0 9 -9q0 -8 -12 -12q-15 -6 -48.5 -18.5t-68.5 -27t-70 -30.5zM155 697v-446q69 3 108 44t54 96q16 66 38.5 97t59.5 31q26 0 40.5 -14.5t14.5 -37.5q0 -24 -15 -39t-37 -15q-13 0 -31.5 8.5t-28.5 8.5q-25 0 -37 -42
q-37 -121 -145 -137q173 -3 210 -130q25 -88 56 -88q15 0 24 13.5t9 34.5v20h3v-20q0 -35 -18 -61t-55 -26q-71 0 -104 120q-10 37 -16 53t-21 39.5t-39.5 33t-61.5 9.5h-8v-246h62v-3h-202v3h63v694h-63v3h202v-3h-62z" />
    <glyph glyph-name="uni0432.locl" horiz-adv-x="538" 
d="M56 113v269q0 327 246 327q59 0 104 -33.5t45 -90.5q0 -39 -27.5 -72.5t-70.5 -50.5q140 -38 140 -221q0 -109 -66.5 -179t-164.5 -70q-44 0 -78 16.5t-57 33t-40 16.5q-20 0 -30.5 -17.5t-26.5 -72.5h-5q3 11 11 36.5t11 36.5t6 31t3 41zM130 491v-84q6 7 18 17.5
t52.5 28t84.5 17.5q23 0 44 -3q49 49 49 111q0 71 -27.5 98t-74.5 27q-61 0 -104 -56.5t-42 -155.5zM130 328v-204q0 -62 33.5 -94t88.5 -32q77 0 117.5 63t40.5 175q0 114 -33.5 170t-113.5 56q-51 0 -92 -38.5t-41 -95.5z" />
    <glyph glyph-name="uni0436.locl" horiz-adv-x="696" 
d="M448 697h-62v-444q95 14 129 138q16 66 38.5 97t59.5 31q26 0 40.5 -14.5t14.5 -37.5q0 -24 -15 -39t-37 -15q-13 0 -31.5 8.5t-28.5 8.5q-25 0 -37 -42q-38 -122 -132 -137q90 -1 135 -36t62 -94q25 -88 56 -88q15 0 24 13.5t9 34.5v20h3v-20q0 -35 -18 -61t-55 -26
q-71 0 -104 120q-1 5 -6.5 25t-7 25t-7.5 21t-10 21t-12.5 15.5t-18 14.5t-22.5 8t-29 5v-246h62v-3h-202v3h63v246q-16 -1 -29 -5t-22 -8t-17.5 -14.5t-12.5 -15.5t-10 -21t-7.5 -21t-7 -25t-6.5 -25q-33 -120 -104 -120q-37 0 -55 26t-18 61v20h3v-20q0 -21 9 -34.5
t24 -13.5q31 0 56 88q38 128 197 130q-94 15 -132 137q-12 42 -37 42q-10 0 -28.5 -8.5t-31.5 -8.5q-22 0 -37 15t-15 39q0 23 14.5 37.5t40.5 14.5q37 0 59.5 -31t38.5 -97q35 -123 128 -138v444h-63v3h202v-3z" />
    <glyph glyph-name="zero.osf" horiz-adv-x="586" 
d="M295 518q106 0 176 -75t70 -185t-74 -188.5t-177 -78.5q-106 0 -175.5 75.5t-69.5 185.5t73.5 188t176.5 78zM295 514q-83 0 -125 -70.5t-42 -186.5t41.5 -189t120.5 -73q83 0 125 71t42 187q0 115 -41.5 188t-120.5 73z" />
    <glyph glyph-name="one.osf" horiz-adv-x="247" 
d="M165 3h62v-3h-207v3h63v492l-63 -12v3l145 28v-511z" />
    <glyph glyph-name="two.osf" horiz-adv-x="529" 
d="M40 0l225 159q122 86 122 203q0 149 -145 149q-75 0 -118 -41t-43 -71q0 -5 5 -5q1 0 5 2t11 4t14 2q20 0 35 -14t15 -37q0 -21 -15 -36t-38 -15q-22 0 -36.5 16t-14.5 41q0 59 52.5 109.5t141.5 50.5q99 0 158.5 -40.5t59.5 -116.5q0 -68 -45 -113.5t-146 -99.5
l-142 -81h166q89 0 133 15.5t62 62.5h3l-51 -144h-414z" />
    <glyph glyph-name="three.osf" horiz-adv-x="529" 
d="M75 517h3q0 -27 28 -27q16 0 62.5 13.5t84.5 13.5q99 0 159 -40.5t60 -116.5q0 -65 -55.5 -111t-142.5 -57q101 -5 160.5 -47t59.5 -110q0 -80 -67.5 -130.5t-179.5 -50.5q-97 0 -149 42t-52 94q0 25 14.5 42.5t36.5 17.5q23 0 38 -15t15 -36q0 -23 -15 -37t-35 -14
q-7 0 -14 2t-11 4t-5 2q-5 0 -5 -5q0 -26 43.5 -57.5t118.5 -31.5q85 0 134 46.5t49 116.5q0 73 -46.5 119t-132.5 46h-71v3h70q80 2 117.5 47t37.5 117q0 76 -30.5 116t-101.5 40t-115 -42.5t-60 -112.5h-3v159z" />
    <glyph glyph-name="four.osf" horiz-adv-x="529" 
d="M393 530v-466q53 2 79.5 17.5t41.5 54.5h3l-51 -136h-73v-143h62v-3h-198v3h63v143h-302zM67 63h253v359z" />
    <glyph glyph-name="five.osf" horiz-adv-x="529" 
d="M447 423h-317l-50 -262q2 3 7 8.5t21.5 19t36 24t51 19t66.5 8.5q105 0 165 -46.5t60 -134.5q0 -89 -68 -147t-179 -58q-96 0 -148.5 46.5t-52.5 99.5q0 25 14.5 42.5t36.5 17.5q24 0 38.5 -15t14.5 -36q0 -23 -15 -37t-35 -14q-7 0 -14 2t-11 4t-5 2q-5 0 -5 -5
q0 -28 44 -63.5t118 -35.5q85 0 134 53.5t49 135.5q0 86 -41.5 132.5t-124.5 46.5q-30 0 -57 -7.5t-44.5 -18t-30.5 -21.5t-19 -19l-6 -7h-3l63 332h160q89 0 133 15.5t62 62.5h3z" />
    <glyph glyph-name="six.osf" horiz-adv-x="548" 
d="M377 666v-4q-40 -11 -75.5 -33t-71.5 -59t-61 -98.5t-34 -140.5q71 53 157 53q100 0 158 -49t58 -138q0 -87 -66.5 -146t-161.5 -59q-106 0 -168 63t-62 186q0 87 31 163.5t81 127.5t105 85t110 49zM267 374q-72 0 -132 -47q-4 -33 -4 -81q0 -116 42.5 -183t106.5 -67
q69 0 106.5 55.5t37.5 137.5q0 87 -39.5 136t-117.5 49z" />
    <glyph glyph-name="seven.osf" horiz-adv-x="529" 
d="M506 507l-164 -289q-69 -121 -73 -285q-2 -89 -54 -89q-16 0 -26.5 10.5t-10.5 30.5q0 51 130 279q21 37 32 57l125 220h-233q-89 0 -133 -15.5t-62 -62.5h-3l51 144h421z" />
    <glyph glyph-name="eight.osf" horiz-adv-x="572" 
d="M286 655q95 0 154.5 -42t59.5 -117q0 -65 -52.5 -110t-138.5 -56q100 -5 159 -47t59 -111q0 -80 -65 -130t-176 -50q-112 0 -176.5 47.5t-64.5 126.5q0 69 59.5 114.5t158.5 49.5q-87 11 -139 53t-52 107q0 74 60.5 119.5t153.5 45.5zM286 651q-65 0 -96 -44.5
t-31 -118.5q0 -69 31 -113t96 -44q64 0 95.5 46.5t31.5 115.5q0 158 -127 158zM282 328q-74 0 -113.5 -45.5t-39.5 -116.5q0 -75 40 -122.5t117 -47.5q78 0 117.5 46t39.5 120q0 72 -43 119t-118 47z" />
    <glyph glyph-name="nine.osf" horiz-adv-x="548" 
d="M181 -158v4q31 9 59.5 23.5t59 41t54.5 61.5t42.5 88t25.5 116q-69 -52 -156 -52q-100 0 -158 51t-58 141q0 86 66 143t162 57q106 0 168 -63t62 -186q0 -87 -31 -163.5t-81 -127.5t-105 -85t-110 -49zM278 512q-69 0 -106.5 -53.5t-37.5 -134.5q0 -87 39.5 -138.5
t117.5 -51.5q73 0 132 47q4 50 4 81q0 116 -42.5 183t-106.5 67z" />
    </font>
</defs>
</svg>
